<svg width="418" height="41" viewBox="0 0 418 41" fill="none" xmlns="http://www.w3.org/2000/svg">
<path d="M0.68545 39.615L0.155119 40.1453L0.172777 40.163L0.19157 40.1794L0.68545 39.615ZM0.68545 1.94L1.17933 2.50443L1.19812 2.48799L1.21578 2.47033L0.68545 1.94ZM29.6704 1.94L29.1401 2.47033L29.1578 2.48799L29.1766 2.50443L29.6704 1.94ZM29.6704 10.41L29.1401 9.87967L29.1401 9.87967L29.6704 10.41ZM11.6305 10.85V10.1H10.8805V10.85H11.6305ZM11.6305 16.295H10.8805V17.045H11.6305V16.295ZM28.4605 16.735L27.9301 17.2653L27.9478 17.283L27.9666 17.2994L28.4605 16.735ZM28.4605 24.71L28.9543 25.2744L28.9731 25.258L28.9908 25.2403L28.4605 24.71ZM11.6305 25.095V24.345H10.8805V25.095H11.6305ZM11.6305 30.65H10.8805V31.4H11.6305V30.65ZM30.1105 31.09L29.5801 31.6203L30.1105 31.09ZM30.1105 39.615L30.6043 40.1794L30.6231 40.163L30.6408 40.1453L30.1105 39.615ZM1.67545 39.25C1.50252 39.25 1.34531 39.1958 1.17933 39.0506L0.19157 40.1794C0.612255 40.5475 1.11504 40.75 1.67545 40.75V39.25ZM1.21578 39.0847C1.05861 38.9275 0.995449 38.7682 0.995449 38.57H-0.504551C-0.504551 39.1785 -0.274378 39.7158 0.155119 40.1453L1.21578 39.0847ZM0.995449 38.57V2.93H-0.504551V38.57H0.995449ZM0.995449 2.93C0.995449 2.73434 1.05511 2.61312 1.17933 2.50443L0.191572 1.37556C-0.270882 1.78021 -0.504551 2.31898 -0.504551 2.93H0.995449ZM1.21578 2.47033C1.3886 2.29751 1.53447 2.25 1.67545 2.25V0.749998C1.0831 0.749998 0.568968 0.995819 0.155119 1.40967L1.21578 2.47033ZM1.67545 2.25H28.6255V0.749998H1.67545V2.25ZM28.6255 2.25C28.8236 2.25 28.983 2.31316 29.1401 2.47033L30.2008 1.40967C29.7713 0.980171 29.234 0.749998 28.6255 0.749998V2.25ZM29.1766 2.50443C29.3008 2.61312 29.3605 2.73434 29.3605 2.93H30.8605C30.8605 2.31898 30.6268 1.78021 30.1643 1.37556L29.1766 2.50443ZM29.3605 2.93V9.42H30.8605V2.93H29.3605ZM29.3605 9.42C29.3605 9.56098 29.3129 9.70685 29.1401 9.87967L30.2008 10.9403C30.6146 10.5265 30.8605 10.0124 30.8605 9.42H29.3605ZM29.1401 9.87967C28.983 10.0368 28.8236 10.1 28.6255 10.1V11.6C29.234 11.6 29.7713 11.3698 30.2008 10.9403L29.1401 9.87967ZM28.6255 10.1H11.6305V11.6H28.6255V10.1ZM10.8805 10.85V16.295H12.3805V10.85H10.8805ZM11.6305 17.045H27.4155V15.545H11.6305V17.045ZM27.4155 17.045C27.6136 17.045 27.773 17.1082 27.9301 17.2653L28.9908 16.2047C28.5613 15.7752 28.024 15.545 27.4155 15.545V17.045ZM27.9666 17.2994C28.0908 17.4081 28.1504 17.5293 28.1504 17.725H29.6504C29.6504 17.114 29.4168 16.5752 28.9543 16.1706L27.9666 17.2994ZM28.1504 17.725V23.665H29.6504V17.725H28.1504ZM28.1504 23.665C28.1504 23.8632 28.0873 24.0225 27.9301 24.1797L28.9908 25.2403C29.4203 24.8108 29.6504 24.2735 29.6504 23.665H28.1504ZM27.9666 24.1456C27.8151 24.2781 27.644 24.345 27.4155 24.345V25.845C27.9935 25.845 28.5192 25.6552 28.9543 25.2744L27.9666 24.1456ZM27.4155 24.345H11.6305V25.845H27.4155V24.345ZM10.8805 25.095V30.65H12.3805V25.095H10.8805ZM11.6305 31.4H29.0654V29.9H11.6305V31.4ZM29.0654 31.4C29.2636 31.4 29.423 31.4632 29.5801 31.6203L30.6408 30.5597C30.2113 30.1302 29.674 29.9 29.0654 29.9V31.4ZM29.5801 31.6203C29.7373 31.7775 29.8004 31.9368 29.8004 32.135H31.3004C31.3004 31.5265 31.0703 30.9892 30.6408 30.5597L29.5801 31.6203ZM29.8004 32.135V38.57H31.3004V32.135H29.8004ZM29.8004 38.57C29.8004 38.7682 29.7373 38.9275 29.5801 39.0847L30.6408 40.1453C31.0703 39.7158 31.3004 39.1785 31.3004 38.57H29.8004ZM29.6166 39.0506C29.4651 39.1831 29.294 39.25 29.0654 39.25V40.75C29.6435 40.75 30.1692 40.5602 30.6043 40.1794L29.6166 39.0506ZM29.0654 39.25H1.67545V40.75H29.0654V39.25ZM45.3106 39.45L44.7803 39.9803L44.7929 39.993L44.8061 40.005L45.3106 39.45ZM44.5956 38.295L45.3192 38.0977L45.316 38.086L45.3125 38.0744L44.5956 38.295ZM33.7606 3.095L33.033 3.2769L33.0379 3.29642L33.0438 3.31564L33.7606 3.095ZM34.0356 1.885L34.566 2.41533V2.41533L34.0356 1.885ZM44.9806 2.05L45.511 1.51967V1.51967L44.9806 2.05ZM45.6956 3.15L46.4174 2.94576L46.414 2.93449L45.6956 3.15ZM52.1856 26.085L51.464 26.2892L52.1856 28.8395L52.9073 26.2892L52.1856 26.085ZM58.6756 3.15L57.9572 2.93446L57.954 2.94579L58.6756 3.15ZM59.3906 2.05L58.8603 1.51967L59.3906 2.05ZM70.2806 1.885L69.7112 2.37309L69.7299 2.39496L69.7503 2.41533L70.2806 1.885ZM70.5556 3.095L71.2728 3.31462L71.2785 3.2959L71.2832 3.27691L70.5556 3.095ZM59.7757 38.295L59.0585 38.0754L59.0551 38.0865L59.0521 38.0977L59.7757 38.295ZM59.0056 39.45L58.5011 38.895L58.4879 38.9071L58.4753 38.9197L59.0056 39.45ZM46.9606 39.25C46.3969 39.25 46.0453 39.1043 45.8151 38.895L44.8061 40.005C45.3826 40.529 46.131 40.75 46.9606 40.75V39.25ZM45.841 38.9197C45.5446 38.6233 45.3875 38.3482 45.3192 38.0977L43.8721 38.4923C44.0238 39.0485 44.3433 39.5433 44.7803 39.9803L45.841 38.9197ZM45.3125 38.0744L34.4775 2.87436L33.0438 3.31564L43.8788 38.5156L45.3125 38.0744ZM34.4883 2.9131C34.4613 2.80546 34.4556 2.74067 34.4556 2.71H32.9556C32.9556 2.89933 32.9866 3.09121 33.033 3.2769L34.4883 2.9131ZM34.4556 2.71C34.4556 2.56552 34.4958 2.48548 34.566 2.41533L33.5053 1.35467C33.1355 1.72451 32.9556 2.19448 32.9556 2.71H34.4556ZM34.566 2.41533C34.6974 2.28387 34.8054 2.25 34.9156 2.25V0.749998C34.3659 0.749998 33.8872 0.972794 33.5053 1.35467L34.566 2.41533ZM34.9156 2.25H43.4406V0.749998H34.9156V2.25ZM43.4406 2.25C43.9587 2.25 44.26 2.39004 44.4503 2.58033L45.511 1.51967C44.9679 0.976624 44.2426 0.749998 43.4406 0.749998V2.25ZM44.4503 2.58033C44.759 2.88898 44.9133 3.15238 44.9773 3.36551L46.414 2.93449C46.258 2.41428 45.9357 1.94435 45.511 1.51967L44.4503 2.58033ZM44.974 3.35421L51.464 26.2892L52.9073 25.8808L46.4173 2.94579L44.974 3.35421ZM52.9073 26.2892L59.3973 3.35421L57.954 2.94579L51.464 25.8808L52.9073 26.2892ZM59.394 3.36551C59.458 3.15238 59.6123 2.88898 59.921 2.58033L58.8603 1.51967C58.4356 1.94435 58.1133 2.41428 57.9573 2.93449L59.394 3.36551ZM59.921 2.58033C60.1113 2.39004 60.4126 2.25 60.9306 2.25V0.749998C60.1287 0.749998 59.4034 0.976624 58.8603 1.51967L59.921 2.58033ZM60.9306 2.25H69.4556V0.749998H60.9306V2.25ZM69.4556 2.25C69.5606 2.25 69.6297 2.278 69.7112 2.37309L70.8501 1.39691C70.4916 0.978664 70.0107 0.749998 69.4556 0.749998V2.25ZM69.7503 2.41533C69.8205 2.48549 69.8606 2.56552 69.8606 2.71H71.3606C71.3606 2.19448 71.1808 1.72451 70.811 1.35467L69.7503 2.41533ZM69.8606 2.71C69.8606 2.74066 69.8549 2.80545 69.828 2.91309L71.2832 3.27691C71.3297 3.09122 71.3606 2.89934 71.3606 2.71H69.8606ZM69.8385 2.87538L59.0585 38.0754L60.4928 38.5146L71.2728 3.31462L69.8385 2.87538ZM59.0521 38.0977C58.9894 38.3274 58.8305 38.5957 58.5011 38.895L59.5102 40.005C59.9875 39.571 60.3419 39.0693 60.4992 38.4923L59.0521 38.0977ZM58.4753 38.9197C58.2923 39.1027 57.9788 39.25 57.4106 39.25V40.75C58.2358 40.75 58.9857 40.5306 59.536 39.9803L58.4753 38.9197ZM57.4106 39.25H46.9606V40.75H57.4106V39.25ZM75.5585 39.615L75.0282 40.1453L75.0458 40.163L75.0646 40.1794L75.5585 39.615ZM75.5585 1.94L76.0524 2.50443L76.0712 2.48799L76.0888 2.47033L75.5585 1.94ZM104.543 1.94L104.013 2.47033L104.031 2.48799L104.05 2.50443L104.543 1.94ZM104.543 10.41L104.013 9.87967L104.013 9.87967L104.543 10.41ZM86.5035 10.85V10.1H85.7535V10.85H86.5035ZM86.5035 16.295H85.7535V17.045H86.5035V16.295ZM103.333 16.735L102.803 17.2653L102.821 17.283L102.84 17.2994L103.333 16.735ZM103.333 24.71L103.827 25.2744L103.846 25.258L103.864 25.2403L103.333 24.71ZM86.5035 25.095V24.345H85.7535V25.095H86.5035ZM86.5035 30.65H85.7535V31.4H86.5035V30.65ZM104.983 31.09L104.453 31.6203L104.983 31.09ZM104.983 39.615L105.477 40.1794L105.496 40.163L105.514 40.1453L104.983 39.615ZM76.5485 39.25C76.3756 39.25 76.2184 39.1958 76.0524 39.0506L75.0646 40.1794C75.4853 40.5475 75.9881 40.75 76.5485 40.75V39.25ZM76.0888 39.0847C75.9317 38.9275 75.8685 38.7682 75.8685 38.57H74.3685C74.3685 39.1785 74.5987 39.7158 75.0282 40.1453L76.0888 39.0847ZM75.8685 38.57V2.93H74.3685V38.57H75.8685ZM75.8685 2.93C75.8685 2.73434 75.9282 2.61312 76.0524 2.50443L75.0646 1.37556C74.6022 1.78021 74.3685 2.31898 74.3685 2.93H75.8685ZM76.0888 2.47033C76.2616 2.29751 76.4075 2.25 76.5485 2.25V0.749998C75.9561 0.749998 75.442 0.995819 75.0282 1.40967L76.0888 2.47033ZM76.5485 2.25H103.498V0.749998H76.5485V2.25ZM103.498 2.25C103.697 2.25 103.856 2.31316 104.013 2.47033L105.074 1.40967C104.644 0.980171 104.107 0.749998 103.498 0.749998V2.25ZM104.05 2.50443C104.174 2.61312 104.233 2.73434 104.233 2.93H105.733C105.733 2.31898 105.5 1.78021 105.037 1.37556L104.05 2.50443ZM104.233 2.93V9.42H105.733V2.93H104.233ZM104.233 9.42C104.233 9.56098 104.186 9.70685 104.013 9.87967L105.074 10.9403C105.488 10.5265 105.733 10.0124 105.733 9.42H104.233ZM104.013 9.87967C103.856 10.0368 103.697 10.1 103.498 10.1V11.6C104.107 11.6 104.644 11.3698 105.074 10.9403L104.013 9.87967ZM103.498 10.1H86.5035V11.6H103.498V10.1ZM85.7535 10.85V16.295H87.2535V10.85H85.7535ZM86.5035 17.045H102.288V15.545H86.5035V17.045ZM102.288 17.045C102.487 17.045 102.646 17.1082 102.803 17.2653L103.864 16.2047C103.434 15.7752 102.897 15.545 102.288 15.545V17.045ZM102.84 17.2994C102.964 17.4081 103.023 17.5293 103.023 17.725H104.523C104.523 17.114 104.29 16.5752 103.827 16.1706L102.84 17.2994ZM103.023 17.725V23.665H104.523V17.725H103.023ZM103.023 23.665C103.023 23.8632 102.96 24.0225 102.803 24.1797L103.864 25.2403C104.293 24.8108 104.523 24.2735 104.523 23.665H103.023ZM102.84 24.1456C102.688 24.2781 102.517 24.345 102.288 24.345V25.845C102.867 25.845 103.392 25.6552 103.827 25.2744L102.84 24.1456ZM102.288 24.345H86.5035V25.845H102.288V24.345ZM85.7535 25.095V30.65H87.2535V25.095H85.7535ZM86.5035 31.4H103.938V29.9H86.5035V31.4ZM103.938 31.4C104.137 31.4 104.296 31.4632 104.453 31.6203L105.514 30.5597C105.084 30.1302 104.547 29.9 103.938 29.9V31.4ZM104.453 31.6203C104.61 31.7775 104.674 31.9368 104.674 32.135H106.174C106.174 31.5265 105.943 30.9892 105.514 30.5597L104.453 31.6203ZM104.674 32.135V38.57H106.174V32.135H104.674ZM104.674 38.57C104.674 38.7682 104.61 38.9275 104.453 39.0847L105.514 40.1453C105.943 39.7158 106.174 39.1785 106.174 38.57H104.674ZM104.49 39.0506C104.338 39.1831 104.167 39.25 103.938 39.25V40.75C104.517 40.75 105.042 40.5602 105.477 40.1794L104.49 39.0506ZM103.938 39.25H76.5485V40.75H103.938V39.25ZM111.491 39.615L110.961 40.1453L110.978 40.163L110.997 40.1794L111.491 39.615ZM111.491 1.94L111.985 2.50443L112.004 2.48799L112.021 2.47033L111.491 1.94ZM139.871 4.91L139.401 5.49418L139.404 5.49712L139.871 4.91ZM137.781 25.205L137.426 24.5446L136.759 24.9036L137.124 25.5669L137.781 25.205ZM144.931 38.185L145.602 37.8496L145.595 37.8362L145.588 37.8231L144.931 38.185ZM144.766 39.67L145.296 40.2003L145.317 40.18L145.336 40.1581L144.766 39.67ZM133.051 39.505L132.521 40.0353L132.535 40.0493L132.549 40.0625L133.051 39.505ZM132.336 38.515L133.038 38.2517L133.026 38.2189L133.011 38.1875L132.336 38.515ZM126.836 27.185L127.511 26.8575L127.306 26.435H126.836V27.185ZM122.876 27.185V26.435H122.126V27.185H122.876ZM122.436 39.615L122.966 40.1453L122.436 39.615ZM122.876 18.11H122.126V18.86H122.876V18.11ZM130.961 17.065L131.52 17.5651L131.526 17.558L131.533 17.5507L130.961 17.065ZM130.961 11.565L130.365 12.0195L130.371 12.0283L130.378 12.0369L130.961 11.565ZM122.876 10.41V9.66H122.126V10.41H122.876ZM112.481 39.25C112.308 39.25 112.151 39.1958 111.985 39.0506L110.997 40.1794C111.418 40.5475 111.921 40.75 112.481 40.75V39.25ZM112.021 39.0847C111.864 38.9275 111.801 38.7682 111.801 38.57H110.301C110.301 39.1785 110.531 39.7158 110.961 40.1453L112.021 39.0847ZM111.801 38.57V2.93H110.301V38.57H111.801ZM111.801 2.93C111.801 2.73434 111.861 2.61312 111.985 2.50443L110.997 1.37556C110.535 1.78021 110.301 2.31898 110.301 2.93H111.801ZM112.021 2.47033C112.194 2.29751 112.34 2.25 112.481 2.25V0.749998C111.889 0.749998 111.375 0.995819 110.961 1.40967L112.021 2.47033ZM112.481 2.25H128.156V0.749998H112.481V2.25ZM128.156 2.25C133.035 2.25 136.753 3.36224 139.401 5.49417L140.341 4.32583C137.343 1.91109 133.25 0.749998 128.156 0.749998V2.25ZM139.404 5.49712C142.063 7.61067 143.411 10.554 143.411 14.425H144.911C144.911 10.156 143.399 6.75599 140.338 4.32288L139.404 5.49712ZM143.411 14.425C143.411 16.875 142.852 18.9074 141.773 20.5599L143.029 21.3801C144.297 19.4393 144.911 17.1084 144.911 14.425H143.411ZM141.773 20.5599C140.669 22.2507 139.223 23.5768 137.426 24.5446L138.137 25.8654C140.153 24.7799 141.787 23.2826 143.029 21.3801L141.773 20.5599ZM137.124 25.5669L144.274 38.5469L145.588 37.8231L138.438 24.8431L137.124 25.5669ZM144.26 38.5204C144.335 38.6702 144.346 38.7559 144.346 38.79H145.846C145.846 38.4574 145.747 38.1398 145.602 37.8496L144.26 38.5204ZM144.346 38.79C144.346 38.9362 144.303 39.0575 144.197 39.1819L145.336 40.1581C145.669 39.7691 145.846 39.3038 145.846 38.79H144.346ZM144.236 39.1397C144.166 39.2098 144.086 39.25 143.941 39.25V40.75C144.457 40.75 144.927 40.5702 145.296 40.2003L144.236 39.1397ZM143.941 39.25H134.646V40.75H143.941V39.25ZM134.646 39.25C134.059 39.25 133.734 39.1107 133.553 38.9475L132.549 40.0625C133.101 40.5593 133.84 40.75 134.646 40.75V39.25ZM133.581 38.9747C133.247 38.6403 133.094 38.3999 133.038 38.2517L131.634 38.7783C131.798 39.2168 132.122 39.6363 132.521 40.0353L133.581 38.9747ZM133.011 38.1875L127.511 26.8575L126.161 27.5125L131.661 38.8425L133.011 38.1875ZM126.836 26.435H122.876V27.935H126.836V26.435ZM122.126 27.185V38.57H123.626V27.185H122.126ZM122.126 38.57C122.126 38.7682 122.063 38.9275 121.906 39.0847L122.966 40.1453C123.396 39.7158 123.626 39.1785 123.626 38.57H122.126ZM121.906 39.0847C121.806 39.1844 121.675 39.25 121.446 39.25V40.75C122.024 40.75 122.553 40.5589 122.966 40.1453L121.906 39.0847ZM121.446 39.25H112.481V40.75H121.446V39.25ZM122.876 18.86H128.101V17.36H122.876V18.86ZM128.101 18.86C129.515 18.86 130.707 18.4735 131.52 17.5651L130.402 16.5649C129.968 17.0498 129.254 17.36 128.101 17.36V18.86ZM131.533 17.5507C132.283 16.6673 132.646 15.5913 132.646 14.37H131.146C131.146 15.2753 130.885 15.996 130.39 16.5793L131.533 17.5507ZM132.646 14.37C132.646 13.1184 132.288 12.0115 131.544 11.0931L130.378 12.0369C130.881 12.6585 131.146 13.4216 131.146 14.37H132.646ZM131.558 11.1105C130.782 10.092 129.564 9.66 128.101 9.66V11.16C129.278 11.16 129.967 11.498 130.365 12.0195L131.558 11.1105ZM128.101 9.66H122.876V11.16H128.101V9.66ZM122.126 10.41V18.11H123.626V10.41H122.126ZM158.502 39.615L157.937 40.1089L157.97 40.1465L158.008 40.1794L158.502 39.615ZM158.117 27.24H158.867V27.0561L158.781 26.8931L158.117 27.24ZM145.577 3.205L144.906 3.54046L144.912 3.55192L145.577 3.205ZM145.467 2.985L144.755 3.22217L144.772 3.27273L144.796 3.3204L145.467 2.985ZM145.742 1.885L146.272 2.41533V2.41533L145.742 1.885ZM156.687 1.995L157.217 1.46467H157.217L156.687 1.995ZM157.347 2.765L158.009 2.41355L158 2.39608L157.99 2.37913L157.347 2.765ZM164.057 15.415L163.394 15.7664L164.057 17.0155L164.719 15.7664L164.057 15.415ZM170.767 2.765L171.429 3.11644L171.448 3.0809L171.463 3.04354L170.767 2.765ZM171.372 1.995L170.87 1.43753L170.855 1.45072L170.841 1.46467L171.372 1.995ZM182.262 1.885L181.692 2.37309L181.73 2.4169L181.773 2.45444L182.262 1.885ZM182.592 2.985L181.88 2.74783L181.842 2.86329V2.985H182.592ZM182.536 3.205L183.201 3.55312L183.204 3.5468L183.207 3.54042L182.536 3.205ZM169.941 27.24L169.277 26.8919L169.191 27.0554V27.24H169.941ZM169.502 39.615L170.032 40.1453L169.502 39.615ZM159.547 39.25C159.318 39.25 159.147 39.1831 158.995 39.0506L158.008 40.1794C158.443 40.5602 158.968 40.75 159.547 40.75V39.25ZM159.066 39.1211C158.933 38.9696 158.867 38.7986 158.867 38.57H157.367C157.367 39.1481 157.556 39.6737 157.937 40.1089L159.066 39.1211ZM158.867 38.57V27.24H157.367V38.57H158.867ZM158.781 26.8931L146.241 2.85807L144.912 3.55192L157.452 27.5869L158.781 26.8931ZM146.247 2.86959C146.211 2.79626 146.174 2.72292 146.137 2.64959L144.796 3.3204C144.832 3.39374 144.869 3.46708 144.906 3.54041L146.247 2.86959ZM146.178 2.74783C146.167 2.71564 146.163 2.69579 146.161 2.68666C146.16 2.68241 146.16 2.68219 146.16 2.68561C146.161 2.68897 146.161 2.69733 146.161 2.71H144.661C144.661 2.89677 144.706 3.07473 144.755 3.22217L146.178 2.74783ZM146.161 2.71C146.161 2.56552 146.202 2.48548 146.272 2.41533L145.211 1.35467C144.841 1.72451 144.661 2.19448 144.661 2.71H146.161ZM146.272 2.41533C146.403 2.28387 146.511 2.25 146.622 2.25V0.749998C146.072 0.749998 145.593 0.972794 145.211 1.35467L146.272 2.41533ZM146.622 2.25H155.202V0.749998H146.622V2.25ZM155.202 2.25C155.746 2.25 156.016 2.38559 156.156 2.52533L157.217 1.46467C156.697 0.944408 155.977 0.749998 155.202 0.749998V2.25ZM156.156 2.52533C156.481 2.85057 156.644 3.05227 156.703 3.15087L157.99 2.37913C157.829 2.11106 157.552 1.79942 157.217 1.46467L156.156 2.52533ZM156.684 3.11644L163.394 15.7664L164.719 15.0636L158.009 2.41355L156.684 3.11644ZM164.719 15.7664L171.429 3.11644L170.104 2.41355L163.394 15.0636L164.719 15.7664ZM171.463 3.04354C171.461 3.04733 171.481 3.00203 171.562 2.89836C171.639 2.80111 171.75 2.67736 171.902 2.52533L170.841 1.46467C170.511 1.79452 170.206 2.14612 170.07 2.48645L171.463 3.04354ZM171.873 2.55247C172.069 2.37654 172.368 2.25 172.857 2.25V0.749998C172.098 0.749998 171.408 0.953455 170.87 1.43753L171.873 2.55247ZM172.857 2.25H181.492V0.749998H172.857V2.25ZM181.492 2.25C181.531 2.25 181.59 2.25449 181.692 2.37309L182.831 1.39691C182.493 1.00218 182.038 0.749998 181.492 0.749998V2.25ZM181.773 2.45444C181.868 2.53595 181.896 2.60501 181.896 2.71H183.396C183.396 2.15499 183.168 1.67405 182.75 1.31556L181.773 2.45444ZM181.896 2.71C181.896 2.69733 181.897 2.68897 181.898 2.68561C181.898 2.6822 181.898 2.68241 181.897 2.68666C181.895 2.69579 181.891 2.71564 181.88 2.74783L183.303 3.22216C183.352 3.07473 183.396 2.89677 183.396 2.71H181.896ZM181.842 2.985C181.842 2.92875 181.856 2.88796 181.866 2.86957L183.207 3.54042C183.29 3.37537 183.342 3.18791 183.342 2.985H181.842ZM181.872 2.85688L169.277 26.8919L170.606 27.5881L183.201 3.55312L181.872 2.85688ZM169.191 27.24V38.57H170.691V27.24H169.191ZM169.191 38.57C169.191 38.7682 169.128 38.9275 168.971 39.0847L170.032 40.1453C170.461 39.7158 170.691 39.1785 170.691 38.57H169.191ZM168.971 39.0847C168.871 39.1844 168.74 39.25 168.512 39.25V40.75C169.09 40.75 169.618 40.5589 170.032 40.1453L168.971 39.0847ZM168.512 39.25H159.547V40.75H168.512V39.25ZM196.462 39.615L195.931 40.1453L195.949 40.163L195.968 40.1794L196.462 39.615ZM196.462 1.94L196.956 2.50443L196.974 2.48799L196.992 2.47033L196.462 1.94ZM221.762 3.26L221.454 3.94381L221.462 3.94734L221.762 3.26ZM230.342 16.57L229.592 16.5953L229.593 16.6048L230.342 16.57ZM230.342 24.875L229.593 24.8393L229.592 24.8431L230.342 24.875ZM227.977 33.4L227.345 32.996L227.34 33.0034L227.977 33.4ZM222.037 38.405L222.324 39.0979L222.332 39.0944L222.037 38.405ZM207.847 30.65H207.097V31.4H207.847V30.65ZM215.602 30.045L215.278 29.3684L215.602 30.045ZM217.582 28.175L218.235 28.5441L218.241 28.5322L217.582 28.175ZM218.352 24.82L217.602 24.7942L217.602 24.7997L218.352 24.82ZM218.407 21.96L217.658 21.9274L217.657 21.9437V21.96H218.407ZM218.407 19.43H217.657V19.4463L217.658 19.4626L218.407 19.43ZM218.352 16.625L219.101 16.5982L219.101 16.5977L218.352 16.625ZM216.592 12.225L216.102 12.7931L216.112 12.8012L216.592 12.225ZM207.847 10.85V10.1H207.097V10.85H207.847ZM197.452 39.25C197.279 39.25 197.122 39.1958 196.956 39.0506L195.968 40.1794C196.389 40.5475 196.891 40.75 197.452 40.75V39.25ZM196.992 39.0847C196.835 38.9275 196.772 38.7682 196.772 38.57H195.272C195.272 39.1785 195.502 39.7158 195.931 40.1453L196.992 39.0847ZM196.772 38.57V2.93H195.272V38.57H196.772ZM196.772 2.93C196.772 2.73434 196.831 2.61312 196.956 2.50443L195.968 1.37556C195.505 1.78021 195.272 2.31898 195.272 2.93H196.772ZM196.992 2.47033C197.165 2.29751 197.311 2.25 197.452 2.25V0.749998C196.859 0.749998 196.345 0.995819 195.931 1.40967L196.992 2.47033ZM197.452 2.25H212.522V0.749998H197.452V2.25ZM212.522 2.25C215.998 2.25 218.968 2.82342 221.454 3.94376L222.07 2.57624C219.349 1.34991 216.159 0.749998 212.522 0.749998V2.25ZM221.462 3.94734C223.942 5.03011 225.88 6.62677 227.299 8.73837L228.544 7.90162C226.957 5.53989 224.789 3.76322 222.062 2.57266L221.462 3.94734ZM227.299 8.73837C228.709 10.836 229.486 13.4424 229.592 16.5953L231.091 16.5447C230.978 13.1709 230.141 10.2774 228.544 7.90162L227.299 8.73837ZM229.593 16.6048C229.666 18.1732 229.702 19.5545 229.702 20.75H231.202C231.202 19.5255 231.165 18.1202 231.091 16.5352L229.593 16.6048ZM229.702 20.75C229.702 21.9454 229.666 23.3082 229.593 24.8393L231.091 24.9107C231.165 23.3618 231.202 21.9746 231.202 20.75H229.702ZM229.592 24.8431C229.45 28.1962 228.685 30.8994 227.345 32.996L228.609 33.804C230.128 31.4272 230.94 28.4471 231.091 24.9069L229.592 24.8431ZM227.34 33.0034C226.033 35.1019 224.176 36.6722 221.741 37.7156L222.332 39.0944C225.031 37.9378 227.134 36.1714 228.613 33.7966L227.34 33.0034ZM221.75 37.7121C219.297 38.7284 216.319 39.25 212.797 39.25V40.75C216.461 40.75 219.644 40.2082 222.324 39.0979L221.75 37.7121ZM212.797 39.25H197.452V40.75H212.797V39.25ZM207.847 31.4H212.522V29.9H207.847V31.4ZM212.522 31.4C213.812 31.4 214.956 31.1853 215.925 30.7216L215.278 29.3684C214.561 29.7114 213.652 29.9 212.522 29.9V31.4ZM215.925 30.7216C216.913 30.2494 217.685 29.5161 218.235 28.544L216.929 27.806C216.525 28.5206 215.978 29.0339 215.278 29.3684L215.925 30.7216ZM218.241 28.5322C218.79 27.5184 219.063 26.2749 219.102 24.8403L217.602 24.7997C217.568 26.0785 217.327 27.0716 216.922 27.8178L218.241 28.5322ZM219.101 24.8458C219.138 23.776 219.157 22.8138 219.157 21.96H217.657C217.657 22.7928 217.639 23.7373 217.602 24.7942L219.101 24.8458ZM219.156 21.9926C219.194 21.1275 219.194 20.2625 219.156 19.3974L217.658 19.4626C217.693 20.2842 217.693 21.1058 217.658 21.9274L219.156 21.9926ZM219.157 19.43C219.157 18.5761 219.138 17.632 219.101 16.5982L217.602 16.6518C217.639 17.6714 217.657 18.5973 217.657 19.43H219.157ZM219.101 16.5977C219.024 14.4579 218.394 12.7504 217.072 11.6488L216.112 12.8012C216.99 13.5329 217.533 14.7587 217.602 16.6523L219.101 16.5977ZM217.082 11.6569C215.845 10.5909 214.204 10.1 212.247 10.1V11.6C213.956 11.6 215.212 12.0258 216.102 12.7931L217.082 11.6569ZM212.247 10.1H207.847V11.6H212.247V10.1ZM207.097 10.85V30.65H208.597V10.85H207.097ZM243.461 38.9L243.166 39.5894L243.17 39.5909L243.461 38.9ZM237.356 33.95L236.729 34.3613L236.733 34.3672L236.737 34.3731L237.356 33.95ZM234.991 25.645L234.242 25.6629L234.242 25.67L234.991 25.645ZM234.991 16.02L234.242 15.9947L234.242 16.003L234.991 16.02ZM237.356 7.77L236.734 7.35159L236.729 7.35873L237.356 7.77ZM243.516 2.71L243.817 3.39739L243.825 3.39376L243.516 2.71ZM261.721 2.71L261.413 3.39381L261.421 3.39734L261.721 2.71ZM270.246 16.02L269.497 16.0368L269.497 16.0455L269.497 16.0541L270.246 16.02ZM270.246 25.645L269.497 25.6093L269.497 25.62L270.246 25.645ZM267.826 33.95L267.204 33.5316L267.202 33.534L267.826 33.95ZM261.721 38.9L261.43 38.2091L261.426 38.2106L261.721 38.9ZM256.441 29.825L256.951 30.3753L256.956 30.3703L256.962 30.3652L256.441 29.825ZM257.981 25.315L257.232 25.2802L257.232 25.2909L257.232 25.3016L257.981 25.315ZM257.981 16.185L257.232 16.2053L257.232 16.213L257.232 16.2207L257.981 16.185ZM257.211 12.83L256.541 13.1654L256.546 13.1764L256.552 13.1872L257.211 12.83ZM255.341 10.905L254.993 11.5694L255 11.5727L255.006 11.5758L255.341 10.905ZM249.896 10.905L249.561 10.2342V10.2342L249.896 10.905ZM247.971 12.83L247.312 12.4728L247.306 12.4836L247.301 12.4946L247.971 12.83ZM247.256 16.185L246.507 16.1647L246.507 16.1671L247.256 16.185ZM247.256 25.315L246.507 25.3324L246.507 25.3418L247.256 25.315ZM248.796 29.825L248.266 30.3553L248.276 30.3655L248.287 30.3753L248.796 29.825ZM252.646 39.8C249.203 39.8 246.245 39.2618 243.753 38.2091L243.17 39.5909C245.885 40.7382 249.05 41.3 252.646 41.3V39.8ZM243.757 38.2106C241.315 37.164 239.395 35.6034 237.976 33.5269L236.737 34.3731C238.325 36.6966 240.475 38.436 243.166 39.5894L243.757 38.2106ZM237.984 33.5387C236.608 31.4414 235.848 28.8146 235.741 25.62L234.242 25.67C234.355 29.0754 235.171 31.9853 236.729 34.3613L237.984 33.5387ZM235.741 25.6271C235.705 24.0934 235.686 22.5227 235.686 20.915H234.186C234.186 22.534 234.205 24.1166 234.242 25.6629L235.741 25.6271ZM235.686 20.915C235.686 19.2706 235.705 17.6446 235.741 16.037L234.242 16.003C234.205 17.6221 234.186 19.2594 234.186 20.915H235.686ZM235.741 16.0453C235.847 12.889 236.607 10.2799 237.984 8.18127L236.729 7.35873C235.172 9.7334 234.355 12.6243 234.242 15.9947L235.741 16.0453ZM237.979 8.18838C239.398 6.07677 241.337 4.48011 243.817 3.39734L243.216 2.02266C240.49 3.21322 238.321 4.98989 236.734 7.35162L237.979 8.18838ZM243.825 3.39376C246.312 2.27259 249.247 1.7 252.646 1.7V0.199997C249.08 0.199997 245.927 0.800741 243.208 2.02624L243.825 3.39376ZM252.646 1.7C256.008 1.7 258.925 2.27216 261.413 3.39376L262.03 2.02624C259.312 0.801168 256.178 0.199997 252.646 0.199997V1.7ZM261.421 3.39734C263.901 4.48011 265.84 6.07677 267.259 8.18838L268.504 7.35162C266.917 4.98989 264.748 3.21322 262.022 2.02266L261.421 3.39734ZM267.259 8.18838C268.667 10.2831 269.426 12.8863 269.497 16.0368L270.996 16.0032C270.92 12.627 270.103 9.73022 268.504 7.35162L267.259 8.18838ZM269.497 16.0541C269.57 17.6558 269.606 19.2761 269.606 20.915H271.106C271.106 19.2539 271.07 17.6109 270.996 15.9859L269.497 16.0541ZM269.606 20.915C269.606 22.517 269.57 24.0817 269.497 25.6093L270.996 25.6807C271.07 24.1283 271.106 22.5397 271.106 20.915H269.606ZM269.497 25.62C269.391 28.8112 268.613 31.4354 267.204 33.5316L268.449 34.3684C270.047 31.9913 270.882 29.0788 270.996 25.67L269.497 25.62ZM267.202 33.534C265.823 35.6033 263.907 37.1621 261.43 38.2091L262.013 39.5909C264.742 38.4379 266.897 36.6967 268.451 34.366L267.202 33.534ZM261.426 38.2106C258.973 39.262 256.053 39.8 252.646 39.8V41.3C256.207 41.3 259.337 40.738 262.017 39.5894L261.426 38.2106ZM252.646 31.95C254.347 31.95 255.803 31.4386 256.951 30.3753L255.932 29.2747C255.1 30.0447 254.026 30.45 252.646 30.45V31.95ZM256.962 30.3652C258.153 29.2183 258.693 27.4834 258.731 25.3284L257.232 25.3016C257.197 27.2532 256.71 28.525 255.921 29.2848L256.962 30.3652ZM258.731 25.3498C258.805 23.7624 258.841 22.2291 258.841 20.75H257.341C257.341 22.2042 257.305 23.7142 257.232 25.2802L258.731 25.3498ZM258.841 20.75C258.841 19.2345 258.805 17.7009 258.731 16.1493L257.232 16.2207C257.305 17.7491 257.341 19.2589 257.341 20.75H258.841ZM258.731 16.1647C258.692 14.7301 258.42 13.4866 257.871 12.4728L256.552 13.1872C256.956 13.9334 257.197 14.9265 257.232 16.2053L258.731 16.1647ZM257.882 12.4946C257.377 11.4834 256.642 10.7168 255.677 10.2342L255.006 11.5758C255.654 11.8999 256.166 12.4166 256.541 13.1654L257.882 12.4946ZM255.689 10.2406C254.794 9.77169 253.772 9.55 252.646 9.55V11.05C253.574 11.05 254.349 11.2316 254.993 11.5694L255.689 10.2406ZM252.646 9.55C251.52 9.55 250.485 9.77198 249.561 10.2342L250.232 11.5758C250.921 11.2313 251.72 11.05 252.646 11.05V9.55ZM249.561 10.2342C248.602 10.7138 247.854 11.473 247.312 12.4728L248.631 13.1872C249.043 12.427 249.578 11.9029 250.232 11.5758L249.561 10.2342ZM247.301 12.4946C246.797 13.5024 246.545 14.7376 246.507 16.1647L248.006 16.2053C248.041 14.9191 248.266 13.9176 248.642 13.1654L247.301 12.4946ZM246.507 16.1671C246.47 17.713 246.451 19.2406 246.451 20.75H247.951C247.951 19.2528 247.97 17.737 248.006 16.2029L246.507 16.1671ZM246.451 20.75C246.451 22.2229 246.47 23.7504 246.507 25.3324L248.006 25.2976C247.97 23.7263 247.951 22.2104 247.951 20.75H246.451ZM246.507 25.3418C246.584 27.4881 247.123 29.2124 248.266 30.3553L249.327 29.2947C248.563 28.5309 248.076 27.2485 248.006 25.2882L246.507 25.3418ZM248.287 30.3753C249.439 31.4417 250.915 31.95 252.646 31.95V30.45C251.225 30.45 250.134 30.0416 249.306 29.2747L248.287 30.3753ZM276.437 39.615L275.907 40.1453L275.925 40.163L275.944 40.1794L276.437 39.615ZM276.437 1.94L276.931 2.50443L276.95 2.48799L276.968 2.47033L276.437 1.94ZM287.602 1.94L287.072 2.47033L287.09 2.48799L287.109 2.50443L287.602 1.94ZM288.042 30.21H287.292V30.96H288.042V30.21ZM304.982 30.65L304.452 31.1803L304.47 31.198L304.489 31.2144L304.982 30.65ZM304.982 39.615L305.476 40.1794L305.495 40.163L305.513 40.1453L304.982 39.615ZM277.427 39.25C277.254 39.25 277.097 39.1958 276.931 39.0506L275.944 40.1794C276.364 40.5475 276.867 40.75 277.427 40.75V39.25ZM276.968 39.0847C276.811 38.9275 276.747 38.7682 276.747 38.57H275.247C275.247 39.1785 275.478 39.7158 275.907 40.1453L276.968 39.0847ZM276.747 38.57V2.93H275.247V38.57H276.747ZM276.747 2.93C276.747 2.73434 276.807 2.61312 276.931 2.50443L275.944 1.37556C275.481 1.78021 275.247 2.31898 275.247 2.93H276.747ZM276.968 2.47033C277.141 2.29751 277.286 2.25 277.427 2.25V0.749998C276.835 0.749998 276.321 0.995819 275.907 1.40967L276.968 2.47033ZM277.427 2.25H286.557V0.749998H277.427V2.25ZM286.557 2.25C286.756 2.25 286.915 2.31316 287.072 2.47033L288.133 1.40967C287.703 0.980171 287.166 0.749998 286.557 0.749998V2.25ZM287.109 2.50443C287.233 2.61312 287.292 2.73434 287.292 2.93H288.792C288.792 2.31898 288.559 1.78021 288.096 1.37556L287.109 2.50443ZM287.292 2.93V30.21H288.792V2.93H287.292ZM288.042 30.96H303.937V29.46H288.042V30.96ZM303.937 30.96C304.136 30.96 304.295 31.0232 304.452 31.1803L305.513 30.1197C305.083 29.6902 304.546 29.46 303.937 29.46V30.96ZM304.489 31.2144C304.613 31.3231 304.672 31.4443 304.672 31.64H306.172C306.172 31.029 305.939 30.4902 305.476 30.0856L304.489 31.2144ZM304.672 31.64V38.57H306.172V31.64H304.672ZM304.672 38.57C304.672 38.7682 304.609 38.9275 304.452 39.0847L305.513 40.1453C305.942 39.7158 306.172 39.1785 306.172 38.57H304.672ZM304.489 39.0506C304.337 39.1831 304.166 39.25 303.937 39.25V40.75C304.515 40.75 305.041 40.5602 305.476 40.1794L304.489 39.0506ZM303.937 39.25H277.427V40.75H303.937V39.25ZM310.06 39.615L309.53 40.1453L309.548 40.163L309.567 40.1794L310.06 39.615ZM310.06 1.94L310.554 2.50443L310.573 2.48799L310.591 2.47033L310.06 1.94ZM321.225 1.94L320.695 2.47033L320.713 2.48799L320.732 2.50443L321.225 1.94ZM321.665 30.21H320.915V30.96H321.665V30.21ZM338.605 30.65L338.075 31.1803L338.093 31.198L338.112 31.2144L338.605 30.65ZM338.605 39.615L339.099 40.1794L339.118 40.163L339.136 40.1453L338.605 39.615ZM311.05 39.25C310.878 39.25 310.72 39.1958 310.554 39.0506L309.567 40.1794C309.987 40.5475 310.49 40.75 311.05 40.75V39.25ZM310.591 39.0847C310.434 38.9275 310.37 38.7682 310.37 38.57H308.87C308.87 39.1785 309.101 39.7158 309.53 40.1453L310.591 39.0847ZM310.37 38.57V2.93H308.87V38.57H310.37ZM310.37 2.93C310.37 2.73434 310.43 2.61312 310.554 2.50443L309.567 1.37556C309.104 1.78021 308.87 2.31898 308.87 2.93H310.37ZM310.591 2.47033C310.764 2.29751 310.909 2.25 311.05 2.25V0.749998C310.458 0.749998 309.944 0.995819 309.53 1.40967L310.591 2.47033ZM311.05 2.25H320.18V0.749998H311.05V2.25ZM320.18 2.25C320.379 2.25 320.538 2.31316 320.695 2.47033L321.756 1.40967C321.326 0.980171 320.789 0.749998 320.18 0.749998V2.25ZM320.732 2.50443C320.856 2.61312 320.915 2.73434 320.915 2.93H322.415C322.415 2.31898 322.182 1.78021 321.719 1.37556L320.732 2.50443ZM320.915 2.93V30.21H322.415V2.93H320.915ZM321.665 30.96H337.56V29.46H321.665V30.96ZM337.56 30.96C337.759 30.96 337.918 31.0232 338.075 31.1803L339.136 30.1197C338.706 29.6902 338.169 29.46 337.56 29.46V30.96ZM338.112 31.2144C338.236 31.3231 338.295 31.4443 338.295 31.64H339.795C339.795 31.029 339.562 30.4902 339.099 30.0856L338.112 31.2144ZM338.295 31.64V38.57H339.795V31.64H338.295ZM338.295 38.57C338.295 38.7682 338.232 38.9275 338.075 39.0847L339.136 40.1453C339.565 39.7158 339.795 39.1785 339.795 38.57H338.295ZM338.112 39.0506C337.96 39.1831 337.789 39.25 337.56 39.25V40.75C338.139 40.75 338.664 40.5602 339.099 40.1794L338.112 39.0506ZM337.56 39.25H311.05V40.75H337.56V39.25ZM340.439 39.67L339.869 40.1581L339.888 40.18L339.908 40.2003L340.439 39.67ZM340.163 38.405L339.457 38.1533L339.454 38.1605L339.452 38.1678L340.163 38.405ZM352.703 3.205L351.999 2.94868L351.997 2.95331L352.703 3.205ZM353.474 2.05L352.943 1.51967V1.51967L353.474 2.05ZM366.673 2.05L367.204 1.51967V1.51967L366.673 2.05ZM367.388 3.205L366.665 3.40234L366.673 3.43034L366.682 3.45767L367.388 3.205ZM379.983 38.405L380.695 38.1678L380.692 38.16L380.69 38.1523L379.983 38.405ZM379.654 39.67L380.184 40.2003L379.654 39.67ZM368.379 38.735L367.675 38.9947L367.682 39.0127L367.689 39.0304L368.379 38.735ZM366.673 34.115L367.377 33.8553L367.196 33.365H366.673V34.115ZM353.418 34.115V33.365H352.896L352.715 33.8553L353.418 34.115ZM351.714 38.735L352.403 39.0304L352.41 39.0127L352.417 38.9947L351.714 38.735ZM351.108 39.56L350.578 39.0297L350.561 39.0473L350.544 39.0661L351.108 39.56ZM355.948 24.82L355.236 24.5857L354.912 25.57H355.948V24.82ZM364.143 24.82V25.57H365.184L364.855 24.5828L364.143 24.82ZM360.018 12.445L360.73 12.2078L360.014 10.059L359.306 12.2107L360.018 12.445ZM341.263 39.25C341.119 39.25 341.039 39.2098 340.969 39.1397L339.908 40.2003C340.278 40.5702 340.748 40.75 341.263 40.75V39.25ZM341.008 39.1819C340.901 39.0575 340.858 38.9362 340.858 38.79H339.358C339.358 39.3038 339.536 39.7691 339.869 40.1581L341.008 39.1819ZM340.858 38.79C340.858 38.7036 340.87 38.6585 340.875 38.6422L339.452 38.1678C339.384 38.3715 339.358 38.5831 339.358 38.79H340.858ZM340.87 38.6567L353.41 3.45669L351.997 2.95331L339.457 38.1533L340.87 38.6567ZM353.408 3.46131C353.511 3.18015 353.699 2.88536 354.004 2.58033L352.943 1.51967C352.515 1.94797 352.19 2.42318 351.999 2.94869L353.408 3.46131ZM354.004 2.58033C354.194 2.39004 354.495 2.25 355.013 2.25V0.749998C354.212 0.749998 353.486 0.976624 352.943 1.51967L354.004 2.58033ZM355.013 2.25H365.078V0.749998H355.013V2.25ZM365.078 2.25C365.647 2.25 365.96 2.3973 366.143 2.58033L367.204 1.51967C366.654 0.96936 365.904 0.749998 365.078 0.749998V2.25ZM366.143 2.58033C366.439 2.87666 366.597 3.15183 366.665 3.40234L368.112 3.00766C367.96 2.4515 367.641 1.95667 367.204 1.51967L366.143 2.58033ZM366.682 3.45767L379.277 38.6577L380.69 38.1523L368.095 2.95233L366.682 3.45767ZM379.272 38.6422C379.277 38.6585 379.288 38.7036 379.288 38.79H380.788C380.788 38.5831 380.763 38.3715 380.695 38.1678L379.272 38.6422ZM379.288 38.79C379.288 38.9003 379.255 39.0082 379.123 39.1397L380.184 40.2003C380.566 39.8185 380.788 39.3397 380.788 38.79H379.288ZM379.123 39.1397C379.053 39.2098 378.973 39.25 378.828 39.25V40.75C379.344 40.75 379.814 40.5702 380.184 40.2003L379.123 39.1397ZM378.828 39.25H370.358V40.75H378.828V39.25ZM370.358 39.25C369.835 39.25 369.609 39.1253 369.514 39.0297L368.453 40.0903C368.944 40.5814 369.635 40.75 370.358 40.75V39.25ZM369.514 39.0297C369.258 38.7741 369.127 38.5768 369.068 38.4396L367.689 39.0304C367.85 39.4066 368.122 39.7592 368.453 40.0903L369.514 39.0297ZM369.082 38.4753L367.377 33.8553L365.97 34.3747L367.675 38.9947L369.082 38.4753ZM366.673 33.365H353.418V34.865H366.673V33.365ZM352.715 33.8553L351.01 38.4753L352.417 38.9947L354.122 34.3747L352.715 33.8553ZM351.024 38.4396C350.965 38.5768 350.834 38.7741 350.578 39.0297L351.639 40.0903C351.97 39.7592 352.242 39.4066 352.403 39.0304L351.024 38.4396ZM350.544 39.0661C350.503 39.1131 350.321 39.25 349.733 39.25V40.75C350.466 40.75 351.201 40.5936 351.673 40.0539L350.544 39.0661ZM349.733 39.25H341.263V40.75H349.733V39.25ZM355.948 25.57H364.143V24.07H355.948V25.57ZM364.855 24.5828L360.73 12.2078L359.307 12.6822L363.432 25.0572L364.855 24.5828ZM359.306 12.2107L355.236 24.5857L356.661 25.0543L360.731 12.6793L359.306 12.2107ZM384.128 39.615L383.598 40.1453L383.615 40.163L383.634 40.1794L384.128 39.615ZM384.128 1.94L384.622 2.50443L384.641 2.48799L384.658 2.47033L384.128 1.94ZM412.508 4.91L412.037 5.49418L412.041 5.49712L412.508 4.91ZM410.418 25.205L410.062 24.5446L409.396 24.9036L409.761 25.5669L410.418 25.205ZM417.568 38.185L418.239 37.8496L418.232 37.8362L418.225 37.8231L417.568 38.185ZM417.403 39.67L417.933 40.2003L417.954 40.18L417.972 40.1581L417.403 39.67ZM405.688 39.505L405.158 40.0353L405.171 40.0493L405.186 40.0625L405.688 39.505ZM404.973 38.515L405.675 38.2517L405.663 38.2189L405.648 38.1875L404.973 38.515ZM399.473 27.185L400.148 26.8575L399.942 26.435H399.473V27.185ZM395.513 27.185V26.435H394.763V27.185H395.513ZM395.073 39.615L395.603 40.1453L395.073 39.615ZM395.513 18.11H394.763V18.86H395.513V18.11ZM403.598 17.065L404.157 17.5651L404.163 17.558L404.169 17.5507L403.598 17.065ZM403.598 11.565L403.001 12.0195L403.008 12.0283L403.015 12.0369L403.598 11.565ZM395.513 10.41V9.66H394.763V10.41H395.513ZM385.118 39.25C384.945 39.25 384.788 39.1958 384.622 39.0506L383.634 40.1794C384.055 40.5475 384.557 40.75 385.118 40.75V39.25ZM384.658 39.0847C384.501 38.9275 384.438 38.7682 384.438 38.57H382.938C382.938 39.1785 383.168 39.7158 383.598 40.1453L384.658 39.0847ZM384.438 38.57V2.93H382.938V38.57H384.438ZM384.438 2.93C384.438 2.73434 384.497 2.61312 384.622 2.50443L383.634 1.37556C383.172 1.78021 382.938 2.31898 382.938 2.93H384.438ZM384.658 2.47033C384.831 2.29751 384.977 2.25 385.118 2.25V0.749998C384.525 0.749998 384.011 0.995819 383.598 1.40967L384.658 2.47033ZM385.118 2.25H400.793V0.749998H385.118V2.25ZM400.793 2.25C405.672 2.25 409.39 3.36224 412.037 5.49417L412.978 4.32583C409.979 1.91109 405.887 0.749998 400.793 0.749998V2.25ZM412.041 5.49712C414.7 7.61067 416.048 10.554 416.048 14.425H417.548C417.548 10.156 416.036 6.75599 412.975 4.32288L412.041 5.49712ZM416.048 14.425C416.048 16.875 415.489 18.9074 414.41 20.5599L415.666 21.3801C416.933 19.4393 417.548 17.1084 417.548 14.425H416.048ZM414.41 20.5599C413.306 22.2507 411.86 23.5768 410.062 24.5446L410.773 25.8654C412.789 24.7799 414.423 23.2826 415.666 21.3801L414.41 20.5599ZM409.761 25.5669L416.911 38.5469L418.225 37.8231L411.075 24.8431L409.761 25.5669ZM416.897 38.5204C416.972 38.6702 416.983 38.7559 416.983 38.79H418.483C418.483 38.4574 418.384 38.1398 418.239 37.8496L416.897 38.5204ZM416.983 38.79C416.983 38.9362 416.94 39.0575 416.833 39.1819L417.972 40.1581C418.306 39.7691 418.483 39.3038 418.483 38.79H416.983ZM416.872 39.1397C416.802 39.2098 416.722 39.25 416.578 39.25V40.75C417.093 40.75 417.563 40.5702 417.933 40.2003L416.872 39.1397ZM416.578 39.25H407.283V40.75H416.578V39.25ZM407.283 39.25C406.695 39.25 406.371 39.1107 406.19 38.9475L405.186 40.0625C405.738 40.5593 406.477 40.75 407.283 40.75V39.25ZM406.218 38.9747C405.884 38.6403 405.731 38.3999 405.675 38.2517L404.271 38.7783C404.435 39.2168 404.759 39.6363 405.158 40.0353L406.218 38.9747ZM405.648 38.1875L400.148 26.8575L398.798 27.5125L404.298 38.8425L405.648 38.1875ZM399.473 26.435H395.513V27.935H399.473V26.435ZM394.763 27.185V38.57H396.263V27.185H394.763ZM394.763 38.57C394.763 38.7682 394.7 38.9275 394.543 39.0847L395.603 40.1453C396.033 39.7158 396.263 39.1785 396.263 38.57H394.763ZM394.543 39.0847C394.443 39.1844 394.311 39.25 394.083 39.25V40.75C394.661 40.75 395.19 40.5589 395.603 40.1453L394.543 39.0847ZM394.083 39.25H385.118V40.75H394.083V39.25ZM395.513 18.86H400.738V17.36H395.513V18.86ZM400.738 18.86C402.152 18.86 403.344 18.4735 404.157 17.5651L403.039 16.5649C402.605 17.0498 401.891 17.36 400.738 17.36V18.86ZM404.169 17.5507C404.92 16.6673 405.283 15.5913 405.283 14.37H403.783C403.783 15.2753 403.522 15.996 403.026 16.5793L404.169 17.5507ZM405.283 14.37C405.283 13.1184 404.924 12.0115 404.181 11.0931L403.015 12.0369C403.518 12.6585 403.783 13.4216 403.783 14.37H405.283ZM404.194 11.1105C403.418 10.092 402.201 9.66 400.738 9.66V11.16C401.915 11.16 402.604 11.498 403.001 12.0195L404.194 11.1105ZM400.738 9.66H395.513V11.16H400.738V9.66ZM394.763 10.41V18.11H396.263V10.41H394.763Z" fill="white"/>
</svg>
