<svg width="385" height="39" viewBox="0 0 385 39" fill="none" xmlns="http://www.w3.org/2000/svg">
<path d="M0.605 38.67L0.225372 38.9954L0.237869 39.01L0.251447 39.0236L0.605 38.67ZM0.33 37.405L-0.141103 37.2372L-0.144342 37.2469L0.33 37.405ZM12.87 2.205L12.4001 2.03412L12.399 2.0372L12.87 2.205ZM13.64 1.05L13.2864 0.696443L13.2864 0.696444L13.64 1.05ZM26.84 1.05L27.1936 0.696445L27.1936 0.696443L26.84 1.05ZM27.555 2.205L27.0726 2.33656L27.0777 2.35523L27.0842 2.37345L27.555 2.205ZM40.15 37.405L40.6245 37.2469L40.6208 37.2366L40.15 37.405ZM39.82 38.67L40.1736 39.0236L40.1736 39.0236L39.82 38.67ZM28.545 37.735L28.0759 37.9081L28.0804 37.9202L28.0854 37.932L28.545 37.735ZM26.84 33.115L27.3091 32.9419L27.1884 32.615H26.84V33.115ZM13.585 33.115V32.615H13.2366L13.1159 32.9419L13.585 33.115ZM11.88 37.735L12.3396 37.932L12.3446 37.9202L12.3491 37.9081L11.88 37.735ZM11.275 38.56L10.9214 38.2064L10.9097 38.2182L10.8987 38.2307L11.275 38.56ZM16.115 23.82L15.64 23.6638L15.4242 24.32H16.115V23.82ZM24.31 23.82V24.32H25.0037L24.7843 23.6619L24.31 23.82ZM20.185 11.445L20.6593 11.2869L20.1818 9.8543L19.71 11.2888L20.185 11.445ZM1.43 38.5C1.22368 38.5 1.07866 38.4365 0.958553 38.3164L0.251447 39.0236C0.571344 39.3435 0.976319 39.5 1.43 39.5V38.5ZM0.984628 38.3446C0.84023 38.1761 0.775 37.9975 0.775 37.79H-0.225C-0.225 38.2425 -0.0702294 38.6505 0.225372 38.9954L0.984628 38.3446ZM0.775 37.79C0.775 37.6835 0.788485 37.6107 0.804342 37.5631L-0.144342 37.2469C-0.201819 37.4193 -0.225 37.6032 -0.225 37.79H0.775ZM0.801004 37.5728L13.341 2.37279L12.399 2.0372L-0.141004 37.2372L0.801004 37.5728ZM13.3399 2.37587C13.4569 2.05399 13.668 1.72913 13.9936 1.40355L13.2864 0.696444C12.8787 1.1042 12.5764 1.54934 12.4001 2.03413L13.3399 2.37587ZM13.9936 1.40355C14.2426 1.15447 14.6146 0.999997 15.18 0.999997V-2.6226e-06C14.4254 -2.6226e-06 13.7707 0.212192 13.2864 0.696443L13.9936 1.40355ZM15.18 0.999997H25.245V-2.6226e-06H15.18V0.999997ZM25.245 0.999997C25.856 0.999997 26.2422 1.15931 26.4864 1.40355L27.1936 0.696443C26.7045 0.207351 26.0273 -2.6226e-06 25.245 -2.6226e-06V0.999997ZM26.4864 1.40355C26.8062 1.72333 26.9904 2.03511 27.0726 2.33656L28.0374 2.07344C27.8996 1.56822 27.6071 1.11001 27.1936 0.696445L26.4864 1.40355ZM27.0842 2.37345L39.6792 37.5734L40.6208 37.2366L28.0258 2.03655L27.0842 2.37345ZM39.6757 37.5631C39.6915 37.6107 39.705 37.6835 39.705 37.79H40.705C40.705 37.6032 40.6818 37.4193 40.6243 37.2469L39.6757 37.5631ZM39.705 37.79C39.705 37.9735 39.6396 38.1433 39.4664 38.3164L40.1736 39.0236C40.5137 38.6834 40.705 38.2665 40.705 37.79H39.705ZM39.4664 38.3164C39.3463 38.4365 39.2013 38.5 38.995 38.5V39.5C39.4487 39.5 39.8537 39.3435 40.1736 39.0236L39.4664 38.3164ZM38.995 38.5H30.525V39.5H38.995V38.5ZM30.525 38.5C29.9685 38.5 29.6651 38.368 29.5036 38.2064L28.7964 38.9136C29.2216 39.3387 29.8349 39.5 30.525 39.5V38.5ZM29.5036 38.2064C29.2354 37.9383 29.0804 37.7151 29.0046 37.538L28.0854 37.932C28.2296 38.2683 28.4779 38.5951 28.7964 38.9136L29.5036 38.2064ZM29.0141 37.5619L27.3091 32.9419L26.3709 33.2881L28.0759 37.9081L29.0141 37.5619ZM26.84 32.615H13.585V33.615H26.84V32.615ZM13.1159 32.9419L11.4109 37.5619L12.3491 37.9081L14.0541 33.2881L13.1159 32.9419ZM11.4204 37.538C11.3446 37.7151 11.1896 37.9383 10.9214 38.2064L11.6286 38.9136C11.9471 38.5951 12.1954 38.2683 12.3396 37.932L11.4204 37.538ZM10.8987 38.2307C10.7857 38.3599 10.5117 38.5 9.9 38.5V39.5C10.6084 39.5 11.2509 39.3468 11.6513 38.8893L10.8987 38.2307ZM9.9 38.5H1.43V39.5H9.9V38.5ZM16.115 24.32H24.31V23.32H16.115V24.32ZM24.7843 23.6619L20.6593 11.2869L19.7107 11.6031L23.8357 23.9781L24.7843 23.6619ZM19.71 11.2888L15.64 23.6638L16.59 23.9762L20.66 11.6012L19.71 11.2888ZM44.2943 38.615L43.9408 38.9686L43.9526 38.9803L43.9651 38.9913L44.2943 38.615ZM44.2943 0.939998L44.6236 1.31629L44.6361 1.30532L44.6479 1.29355L44.2943 0.939998ZM72.8393 0.939998L72.4858 1.29355L72.4976 1.30532L72.5101 1.31629L72.8393 0.939998ZM55.4593 10.345V9.845H54.9593V10.345H55.4593ZM55.4593 16.395H54.9593V16.895H55.4593V16.395ZM71.7393 16.835L71.3858 17.1886L71.3976 17.2003L71.4101 17.2113L71.7393 16.835ZM71.7393 25.8L72.0686 26.1763L72.0811 26.1653L72.0929 26.1536L71.7393 25.8ZM55.4593 26.185V25.685H54.9593V26.185H55.4593ZM55.0193 38.615L55.3729 38.9686L55.3729 38.9686L55.0193 38.615ZM45.2843 38.5C45.0468 38.5 44.832 38.4211 44.6236 38.2387L43.9651 38.9913C44.3433 39.3222 44.7885 39.5 45.2843 39.5V38.5ZM44.6479 38.2614C44.4453 38.0589 44.3543 37.8366 44.3543 37.57H43.3543C43.3543 38.1101 43.5567 38.5844 43.9408 38.9686L44.6479 38.2614ZM44.3543 37.57V1.93H43.3543V37.57H44.3543ZM44.3543 1.93C44.3543 1.66512 44.443 1.4743 44.6236 1.31629L43.9651 0.563709C43.559 0.919028 43.3543 1.38821 43.3543 1.93H44.3543ZM44.6479 1.29355C44.8609 1.08056 45.0681 0.999997 45.2843 0.999997V-2.6226e-06C44.7672 -2.6226e-06 44.3145 0.212767 43.9408 0.586445L44.6479 1.29355ZM45.2843 0.999997H71.7943V-2.6226e-06H45.2843V0.999997ZM71.7943 0.999997C72.0609 0.999997 72.2832 1.09099 72.4858 1.29355L73.1929 0.586445C72.8088 0.202335 72.3345 -2.6226e-06 71.7943 -2.6226e-06V0.999997ZM72.5101 1.31629C72.6907 1.4743 72.7793 1.66512 72.7793 1.93H73.7793C73.7793 1.38821 73.5747 0.919029 73.1686 0.56371L72.5101 1.31629ZM72.7793 1.93V8.915H73.7793V1.93H72.7793ZM72.7793 8.915C72.7793 9.13121 72.6988 9.33846 72.4858 9.55144L73.1929 10.2586C73.5666 9.88487 73.7793 9.43212 73.7793 8.915H72.7793ZM72.4858 9.55144C72.2832 9.754 72.0609 9.845 71.7943 9.845V10.845C72.3345 10.845 72.8088 10.6427 73.1929 10.2586L72.4858 9.55144ZM71.7943 9.845H55.4593V10.845H71.7943V9.845ZM54.9593 10.345V16.395H55.9593V10.345H54.9593ZM55.4593 16.895H70.6943V15.895H55.4593V16.895ZM70.6943 16.895C70.9609 16.895 71.1832 16.986 71.3858 17.1886L72.0929 16.4814C71.7088 16.0973 71.2345 15.895 70.6943 15.895V16.895ZM71.4101 17.2113C71.5907 17.3693 71.6793 17.5601 71.6793 17.825H72.6793C72.6793 17.2832 72.4747 16.814 72.0686 16.4587L71.4101 17.2113ZM71.6793 17.825V24.755H72.6793V17.825H71.6793ZM71.6793 24.755C71.6793 25.0216 71.5883 25.2439 71.3858 25.4464L72.0929 26.1536C72.477 25.7694 72.6793 25.2951 72.6793 24.755H71.6793ZM71.4101 25.4237C71.2113 25.5976 70.9812 25.685 70.6943 25.685V26.685C71.2142 26.685 71.6807 26.5157 72.0686 26.1763L71.4101 25.4237ZM70.6943 25.685H55.4593V26.685H70.6943V25.685ZM54.9593 26.185V37.57H55.9593V26.185H54.9593ZM54.9593 37.57C54.9593 37.8366 54.8683 38.0589 54.6658 38.2614L55.3729 38.9686C55.757 38.5844 55.9593 38.1101 55.9593 37.57H54.9593ZM54.6658 38.2614C54.5137 38.4135 54.3162 38.5 54.0293 38.5V39.5C54.5491 39.5 55.0116 39.3298 55.3729 38.9686L54.6658 38.2614ZM54.0293 38.5H45.2843V39.5H54.0293V38.5ZM87.5153 38.615L87.139 38.9443L87.161 38.9693L87.1861 38.9913L87.5153 38.615ZM87.1303 10.73H87.6303V10.23H87.1303V10.73ZM76.6253 10.345L76.249 10.6743L76.271 10.6993L76.2961 10.7213L76.6253 10.345ZM76.6253 0.939998L76.9789 1.29355L76.9789 1.29355L76.6253 0.939998ZM109.57 0.939998L109.194 1.26925L109.216 1.29434L109.241 1.31629L109.57 0.939998ZM109.57 10.345L109.217 9.99145L109.217 9.99145L109.57 10.345ZM99.1203 10.73V10.23H98.6203V10.73H99.1203ZM98.6803 38.615L98.3268 38.2614L98.3268 38.2614L98.6803 38.615ZM88.5603 38.5C88.2735 38.5 88.0433 38.4126 87.8446 38.2387L87.1861 38.9913C87.574 39.3307 88.0405 39.5 88.5603 39.5V38.5ZM87.8916 38.2857C87.7177 38.087 87.6303 37.8568 87.6303 37.57H86.6303C86.6303 38.0898 86.7996 38.5564 87.139 38.9443L87.8916 38.2857ZM87.6303 37.57V10.73H86.6303V37.57H87.6303ZM87.1303 10.23H77.6703V11.23H87.1303V10.23ZM77.6703 10.23C77.3835 10.23 77.1533 10.1426 76.9546 9.96871L76.2961 10.7213C76.684 11.0607 77.1505 11.23 77.6703 11.23V10.23ZM77.0016 10.0157C76.8277 9.81697 76.7403 9.58683 76.7403 9.3H75.7403C75.7403 9.81983 75.9096 10.2864 76.249 10.6743L77.0016 10.0157ZM76.7403 9.3V1.93H75.7403V9.3H76.7403ZM76.7403 1.93C76.7403 1.64312 76.8268 1.44562 76.9789 1.29355L76.2718 0.586444C75.9105 0.947712 75.7403 1.41021 75.7403 1.93H76.7403ZM76.9789 1.29355C77.1814 1.09099 77.4038 0.999997 77.6703 0.999997V-2.6226e-06C77.1302 -2.6226e-06 76.6559 0.202335 76.2718 0.586445L76.9789 1.29355ZM77.6703 0.999997H108.58V-2.6226e-06H77.6703V0.999997ZM108.58 0.999997C108.845 0.999997 109.036 1.08866 109.194 1.26925L109.947 0.610747C109.591 0.204667 109.122 -2.6226e-06 108.58 -2.6226e-06V0.999997ZM109.241 1.31629C109.422 1.4743 109.51 1.66512 109.51 1.93H110.51C110.51 1.38821 110.306 0.919027 109.9 0.563709L109.241 1.31629ZM109.51 1.93V9.3H110.51V1.93H109.51ZM109.51 9.3C109.51 9.56655 109.419 9.78889 109.217 9.99145L109.924 10.6986C110.308 10.3144 110.51 9.84011 110.51 9.3H109.51ZM109.217 9.99145C109.065 10.1435 108.867 10.23 108.58 10.23V11.23C109.1 11.23 109.563 11.0598 109.924 10.6986L109.217 9.99145ZM108.58 10.23H99.1203V11.23H108.58V10.23ZM98.6203 10.73V37.57H99.6203V10.73H98.6203ZM98.6203 37.57C98.6203 37.8366 98.5293 38.0589 98.3268 38.2614L99.0339 38.9686C99.418 38.5844 99.6203 38.1101 99.6203 37.57H98.6203ZM98.3268 38.2614C98.1747 38.4135 97.9772 38.5 97.6903 38.5V39.5C98.2101 39.5 98.6726 39.3298 99.0339 38.9686L98.3268 38.2614ZM97.6903 38.5H88.5603V39.5H97.6903V38.5ZM114.924 38.615L114.571 38.9686L114.582 38.9803L114.595 38.9913L114.924 38.615ZM114.924 0.939998L115.253 1.31629L115.266 1.30532L115.278 1.29355L114.924 0.939998ZM143.909 0.939998L143.556 1.29355L143.567 1.30532L143.58 1.31629L143.909 0.939998ZM143.909 9.41L143.556 9.05644L143.556 9.05645L143.909 9.41ZM125.869 9.85V9.35H125.369V9.85H125.869ZM125.869 15.295H125.369V15.795H125.869V15.295ZM142.699 15.735L142.346 16.0886L142.357 16.1003L142.37 16.1113L142.699 15.735ZM142.699 23.71L143.028 24.0863L143.041 24.0753L143.053 24.0636L142.699 23.71ZM125.869 24.095V23.595H125.369V24.095H125.869ZM125.869 29.65H125.369V30.15H125.869V29.65ZM144.349 30.09L143.996 30.4436L143.996 30.4436L144.349 30.09ZM144.349 38.615L144.678 38.9913L144.691 38.9803L144.703 38.9686L144.349 38.615ZM115.914 38.5C115.677 38.5 115.462 38.4211 115.253 38.2387L114.595 38.9913C114.973 39.3222 115.418 39.5 115.914 39.5V38.5ZM115.278 38.2614C115.075 38.0589 114.984 37.8366 114.984 37.57H113.984C113.984 38.1101 114.187 38.5844 114.571 38.9686L115.278 38.2614ZM114.984 37.57V1.93H113.984V37.57H114.984ZM114.984 1.93C114.984 1.66512 115.073 1.4743 115.253 1.31629L114.595 0.563709C114.189 0.919028 113.984 1.38821 113.984 1.93H114.984ZM115.278 1.29355C115.491 1.08056 115.698 0.999997 115.914 0.999997V-2.6226e-06C115.397 -2.6226e-06 114.944 0.212767 114.571 0.586445L115.278 1.29355ZM115.914 0.999997H142.864V-2.6226e-06H115.914V0.999997ZM142.864 0.999997C143.131 0.999997 143.353 1.09099 143.556 1.29355L144.263 0.586446C143.879 0.202335 143.404 -2.6226e-06 142.864 -2.6226e-06V0.999997ZM143.58 1.31629C143.761 1.4743 143.849 1.66512 143.849 1.93H144.849C144.849 1.38821 144.645 0.919027 144.238 0.563709L143.58 1.31629ZM143.849 1.93V8.42H144.849V1.93H143.849ZM143.849 8.42C143.849 8.63621 143.769 8.84346 143.556 9.05644L144.263 9.76355C144.636 9.38988 144.849 8.93712 144.849 8.42H143.849ZM143.556 9.05645C143.353 9.259 143.131 9.35 142.864 9.35V10.35C143.404 10.35 143.879 10.1477 144.263 9.76355L143.556 9.05645ZM142.864 9.35H125.869V10.35H142.864V9.35ZM125.369 9.85V15.295H126.369V9.85H125.369ZM125.869 15.795H141.654V14.795H125.869V15.795ZM141.654 15.795C141.921 15.795 142.143 15.886 142.346 16.0886L143.053 15.3814C142.669 14.9973 142.194 14.795 141.654 14.795V15.795ZM142.37 16.1113C142.551 16.2693 142.639 16.4601 142.639 16.725H143.639C143.639 16.1832 143.435 15.714 143.028 15.3587L142.37 16.1113ZM142.639 16.725V22.665H143.639V16.725H142.639ZM142.639 22.665C142.639 22.9316 142.548 23.1539 142.346 23.3564L143.053 24.0636C143.437 23.6794 143.639 23.2051 143.639 22.665H142.639ZM142.37 23.3337C142.171 23.5076 141.941 23.595 141.654 23.595V24.595C142.174 24.595 142.641 24.4257 143.028 24.0863L142.37 23.3337ZM141.654 23.595H125.869V24.595H141.654V23.595ZM125.369 24.095V29.65H126.369V24.095H125.369ZM125.869 30.15H143.304V29.15H125.869V30.15ZM143.304 30.15C143.571 30.15 143.793 30.241 143.996 30.4436L144.703 29.7364C144.319 29.3523 143.844 29.15 143.304 29.15V30.15ZM143.996 30.4436C144.198 30.6461 144.289 30.8684 144.289 31.135H145.289C145.289 30.5949 145.087 30.1206 144.703 29.7364L143.996 30.4436ZM144.289 31.135V37.57H145.289V31.135H144.289ZM144.289 37.57C144.289 37.8366 144.198 38.0589 143.996 38.2614L144.703 38.9686C145.087 38.5844 145.289 38.1101 145.289 37.57H144.289ZM144.02 38.2387C143.821 38.4126 143.591 38.5 143.304 38.5V39.5C143.824 39.5 144.291 39.3307 144.678 38.9913L144.02 38.2387ZM143.304 38.5H115.914V39.5H143.304V38.5ZM150.857 38.615L150.503 38.9686L150.515 38.9803L150.528 38.9913L150.857 38.615ZM150.857 0.939998L151.186 1.31629L151.199 1.30532L151.21 1.29355L150.857 0.939998ZM179.237 3.91L178.923 4.29945L178.926 4.30141L179.237 3.91ZM177.147 24.205L176.91 23.7648L176.465 24.0041L176.709 24.4462L177.147 24.205ZM184.297 37.185L184.744 36.9614L184.74 36.9525L184.735 36.9438L184.297 37.185ZM184.132 38.67L184.485 39.0236L184.499 39.01L184.511 38.9954L184.132 38.67ZM172.417 38.505L172.063 38.8586L172.073 38.8679L172.082 38.8766L172.417 38.505ZM171.702 37.515L172.17 37.3394L172.162 37.3176L172.152 37.2966L171.702 37.515ZM166.202 26.185L166.652 25.9666L166.515 25.685H166.202V26.185ZM162.242 26.185V25.685H161.742V26.185H162.242ZM161.802 38.615L162.155 38.9686L162.155 38.9686L161.802 38.615ZM162.242 17.11H161.742V17.61H162.242V17.11ZM170.327 16.065L170.7 16.3985L170.708 16.3888L170.327 16.065ZM170.327 10.565L169.929 10.868L169.934 10.8739L169.938 10.8796L170.327 10.565ZM162.242 9.41V8.91H161.742V9.41H162.242ZM151.847 38.5C151.609 38.5 151.395 38.4211 151.186 38.2387L150.528 38.9913C150.906 39.3222 151.351 39.5 151.847 39.5V38.5ZM151.21 38.2614C151.008 38.0589 150.917 37.8366 150.917 37.57H149.917C149.917 38.1101 150.119 38.5844 150.503 38.9686L151.21 38.2614ZM150.917 37.57V1.93H149.917V37.57H150.917ZM150.917 1.93C150.917 1.66512 151.006 1.4743 151.186 1.31629L150.528 0.563709C150.122 0.919028 149.917 1.38821 149.917 1.93H150.917ZM151.21 1.29355C151.423 1.08056 151.631 0.999997 151.847 0.999997V-2.6226e-06C151.33 -2.6226e-06 150.877 0.212767 150.503 0.586445L151.21 1.29355ZM151.847 0.999997H167.522V-2.6226e-06H151.847V0.999997ZM167.522 0.999997C172.437 0.999997 176.217 2.12038 178.923 4.29944L179.55 3.52055C176.61 1.15294 172.58 -2.6226e-06 167.522 -2.6226e-06V0.999997ZM178.926 4.30141C181.652 6.46823 183.027 9.48766 183.027 13.425H184.027C184.027 9.22233 182.542 5.89844 179.548 3.51859L178.926 4.30141ZM183.027 13.425C183.027 15.9139 182.459 17.996 181.348 19.6966L182.185 20.2434C183.422 18.3506 184.027 16.0695 184.027 13.425H183.027ZM181.348 19.6966C180.221 21.4227 178.744 22.7773 176.91 23.7648L177.384 24.6452C179.363 23.5794 180.966 22.1106 182.185 20.2434L181.348 19.6966ZM176.709 24.4462L183.859 37.4262L184.735 36.9438L177.585 23.9638L176.709 24.4462ZM183.85 37.4086C183.936 37.5818 183.962 37.7061 183.962 37.79H184.962C184.962 37.5072 184.877 37.2282 184.744 36.9614L183.85 37.4086ZM183.962 37.79C183.962 37.9975 183.897 38.1761 183.752 38.3446L184.511 38.9954C184.807 38.6505 184.962 38.2425 184.962 37.79H183.962ZM183.778 38.3164C183.658 38.4365 183.513 38.5 183.307 38.5V39.5C183.761 39.5 184.165 39.3435 184.485 39.0236L183.778 38.3164ZM183.307 38.5H174.012V39.5H183.307V38.5ZM174.012 38.5C173.388 38.5 172.994 38.3521 172.751 38.1334L172.082 38.8766C172.573 39.3179 173.242 39.5 174.012 39.5V38.5ZM172.77 38.1514C172.425 37.8063 172.244 37.5361 172.17 37.3394L171.234 37.6906C171.38 38.0806 171.675 38.4703 172.063 38.8586L172.77 38.1514ZM172.152 37.2966L166.652 25.9666L165.752 26.4034L171.252 37.7334L172.152 37.2966ZM166.202 25.685H162.242V26.685H166.202V25.685ZM161.742 26.185V37.57H162.742V26.185H161.742ZM161.742 37.57C161.742 37.8366 161.651 38.0589 161.448 38.2614L162.155 38.9686C162.539 38.5844 162.742 38.1101 162.742 37.57H161.742ZM161.448 38.2614C161.296 38.4135 161.099 38.5 160.812 38.5V39.5C161.332 39.5 161.794 39.3298 162.155 38.9686L161.448 38.2614ZM160.812 38.5H151.847V39.5H160.812V38.5ZM162.242 17.61H167.467V16.61H162.242V17.61ZM167.467 17.61C168.837 17.61 169.95 17.2362 170.699 16.3984L169.954 15.7316C169.457 16.2871 168.663 16.61 167.467 16.61V17.61ZM170.708 16.3888C171.416 15.5554 171.762 14.5387 171.762 13.37H170.762C170.762 14.328 170.484 15.1079 169.946 15.7412L170.708 16.3888ZM171.762 13.37C171.762 12.1689 171.419 11.1193 170.715 10.2504L169.938 10.8796C170.481 11.5507 170.762 12.3711 170.762 13.37H171.762ZM170.725 10.262C170.012 9.32635 168.882 8.91 167.467 8.91V9.91C168.692 9.91 169.469 10.2636 169.929 10.868L170.725 10.262ZM167.467 8.91H162.242V9.91H167.467V8.91ZM161.742 9.41V17.11H162.742V9.41H161.742ZM200.754 38.615L200.401 38.9686L200.413 38.9803L200.425 38.9913L200.754 38.615ZM200.754 0.939998L201.084 1.31629L201.096 1.30532L201.108 1.29355L200.754 0.939998ZM226.109 1.93L225.921 2.39324L225.924 2.39424L226.109 1.93ZM231.664 20.85L232.073 21.1384L232.075 21.1346L231.664 20.85ZM226.109 24.975L225.936 24.5059L225.934 24.5068L226.109 24.975ZM212.579 26.295V25.795H212.079V26.295H212.579ZM212.139 38.615L211.786 38.2614L211.786 38.2614L212.139 38.615ZM212.359 17.44H211.859V17.94H212.359V17.44ZM220.224 16.505L220.548 16.886L220.55 16.8846L220.224 16.505ZM220.499 10.675L220.089 10.9606L220.095 10.9691L220.499 10.675ZM212.359 9.41V8.91H211.859V9.41H212.359ZM201.744 38.5C201.507 38.5 201.292 38.4211 201.084 38.2387L200.425 38.9913C200.803 39.3222 201.248 39.5 201.744 39.5V38.5ZM201.108 38.2614C200.905 38.0589 200.814 37.8366 200.814 37.57H199.814C199.814 38.1101 200.017 38.5844 200.401 38.9686L201.108 38.2614ZM200.814 37.57V1.93H199.814V37.57H200.814ZM200.814 1.93C200.814 1.66512 200.903 1.4743 201.084 1.31629L200.425 0.563709C200.019 0.919028 199.814 1.38821 199.814 1.93H200.814ZM201.108 1.29355C201.321 1.08056 201.528 0.999997 201.744 0.999997V-2.6226e-06C201.227 -2.6226e-06 200.774 0.212767 200.401 0.586445L201.108 1.29355ZM201.744 0.999997H217.804V-2.6226e-06H201.744V0.999997ZM217.804 0.999997C220.946 0.999997 223.648 1.46958 225.921 2.39323L226.297 1.46677C223.878 0.483745 221.043 -2.6226e-06 217.804 -2.6226e-06V0.999997ZM225.924 2.39424C228.223 3.31414 229.992 4.70269 231.251 6.55594L232.078 5.99406C230.697 3.96064 228.762 2.45253 226.295 1.46576L225.924 2.39424ZM231.251 6.55594C232.502 8.39787 233.144 10.7318 233.144 13.59H234.144C234.144 10.5815 233.467 8.03879 232.078 5.99406L231.251 6.55594ZM233.144 13.59C233.144 16.4486 232.502 18.7621 231.253 20.5654L232.075 21.1346C233.467 19.1246 234.144 16.598 234.144 13.59H233.144ZM231.256 20.5617C230.001 22.34 228.235 23.657 225.936 24.506L226.282 25.444C228.75 24.533 230.688 23.1 232.073 21.1383L231.256 20.5617ZM225.934 24.5068C223.656 25.3609 220.95 25.795 217.804 25.795V26.795C221.039 26.795 223.869 26.3491 226.285 25.4432L225.934 24.5068ZM217.804 25.795H212.579V26.795H217.804V25.795ZM212.079 26.295V37.57H213.079V26.295H212.079ZM212.079 37.57C212.079 37.8366 211.988 38.0589 211.786 38.2614L212.493 38.9686C212.877 38.5844 213.079 38.1101 213.079 37.57H212.079ZM211.786 38.2614C211.634 38.4135 211.436 38.5 211.149 38.5V39.5C211.669 39.5 212.132 39.3298 212.493 38.9686L211.786 38.2614ZM211.149 38.5H201.744V39.5H211.149V38.5ZM212.359 17.94H217.529V16.94H212.359V17.94ZM217.529 17.94C218.698 17.94 219.715 17.5944 220.548 16.886L219.9 16.124C219.267 16.6623 218.487 16.94 217.529 16.94V17.94ZM220.55 16.8846C221.465 16.1003 221.879 14.9305 221.879 13.48H220.879C220.879 14.7429 220.524 15.5897 219.899 16.1254L220.55 16.8846ZM221.879 13.48C221.879 12.3184 221.557 11.2788 220.904 10.3809L220.095 10.9691C220.615 11.6845 220.879 12.5149 220.879 13.48H221.879ZM220.91 10.3895C220.198 9.36681 219.023 8.91 217.529 8.91V9.91C218.823 9.91 219.627 10.2965 220.089 10.9605L220.91 10.3895ZM217.529 8.91H212.359V9.91H217.529V8.91ZM211.859 9.41V17.44H212.859V9.41H211.859ZM232.69 38.67L232.31 38.9954L232.323 39.01L232.336 39.0236L232.69 38.67ZM232.415 37.405L231.944 37.2372L231.941 37.2469L232.415 37.405ZM244.955 2.205L244.485 2.03412L244.484 2.0372L244.955 2.205ZM245.725 1.05L245.371 0.696443L245.371 0.696444L245.725 1.05ZM258.925 1.05L259.279 0.696445L259.279 0.696443L258.925 1.05ZM259.64 2.205L259.158 2.33656L259.163 2.35523L259.169 2.37345L259.64 2.205ZM272.235 37.405L272.709 37.2469L272.706 37.2366L272.235 37.405ZM271.905 38.67L272.259 39.0236L272.259 39.0236L271.905 38.67ZM260.63 37.735L260.161 37.9081L260.165 37.9202L260.17 37.932L260.63 37.735ZM258.925 33.115L259.394 32.9419L259.273 32.615H258.925V33.115ZM245.67 33.115V32.615H245.322L245.201 32.9419L245.67 33.115ZM243.965 37.735L244.425 37.932L244.43 37.9202L244.434 37.9081L243.965 37.735ZM243.36 38.56L243.006 38.2064L242.995 38.2182L242.984 38.2307L243.36 38.56ZM248.2 23.82L247.725 23.6638L247.509 24.32H248.2V23.82ZM256.395 23.82V24.32H257.089L256.869 23.6619L256.395 23.82ZM252.27 11.445L252.744 11.2869L252.267 9.8543L251.795 11.2888L252.27 11.445ZM233.515 38.5C233.309 38.5 233.164 38.4365 233.044 38.3164L232.336 39.0236C232.656 39.3435 233.061 39.5 233.515 39.5V38.5ZM233.07 38.3446C232.925 38.1761 232.86 37.9975 232.86 37.79H231.86C231.86 38.2425 232.015 38.6505 232.31 38.9954L233.07 38.3446ZM232.86 37.79C232.86 37.6835 232.873 37.6107 232.889 37.5631L231.941 37.2469C231.883 37.4193 231.86 37.6032 231.86 37.79H232.86ZM232.886 37.5728L245.426 2.37279L244.484 2.0372L231.944 37.2372L232.886 37.5728ZM245.425 2.37587C245.542 2.05399 245.753 1.72913 246.079 1.40355L245.371 0.696444C244.964 1.1042 244.661 1.54934 244.485 2.03413L245.425 2.37587ZM246.079 1.40355C246.328 1.15447 246.7 0.999997 247.265 0.999997V-2.6226e-06C246.51 -2.6226e-06 245.856 0.212192 245.371 0.696443L246.079 1.40355ZM247.265 0.999997H257.33V-2.6226e-06H247.265V0.999997ZM257.33 0.999997C257.941 0.999997 258.327 1.15931 258.571 1.40355L259.279 0.696443C258.789 0.207351 258.112 -2.6226e-06 257.33 -2.6226e-06V0.999997ZM258.571 1.40355C258.891 1.72333 259.075 2.03511 259.158 2.33656L260.122 2.07344C259.985 1.56822 259.692 1.11001 259.279 0.696445L258.571 1.40355ZM259.169 2.37345L271.764 37.5734L272.706 37.2366L260.111 2.03655L259.169 2.37345ZM271.761 37.5631C271.776 37.6107 271.79 37.6835 271.79 37.79H272.79C272.79 37.6032 272.767 37.4193 272.709 37.2469L271.761 37.5631ZM271.79 37.79C271.79 37.9735 271.725 38.1433 271.551 38.3164L272.259 39.0236C272.599 38.6834 272.79 38.2665 272.79 37.79H271.79ZM271.551 38.3164C271.431 38.4365 271.286 38.5 271.08 38.5V39.5C271.534 39.5 271.939 39.3435 272.259 39.0236L271.551 38.3164ZM271.08 38.5H262.61V39.5H271.08V38.5ZM262.61 38.5C262.053 38.5 261.75 38.368 261.589 38.2064L260.881 38.9136C261.307 39.3387 261.92 39.5 262.61 39.5V38.5ZM261.589 38.2064C261.32 37.9383 261.165 37.7151 261.09 37.538L260.17 37.932C260.315 38.2683 260.563 38.5951 260.881 38.9136L261.589 38.2064ZM261.099 37.5619L259.394 32.9419L258.456 33.2881L260.161 37.9081L261.099 37.5619ZM258.925 32.615H245.67V33.615H258.925V32.615ZM245.201 32.9419L243.496 37.5619L244.434 37.9081L246.139 33.2881L245.201 32.9419ZM243.505 37.538C243.43 37.7151 243.275 37.9383 243.006 38.2064L243.714 38.9136C244.032 38.5951 244.28 38.2683 244.425 37.932L243.505 37.538ZM242.984 38.2307C242.871 38.3599 242.597 38.5 241.985 38.5V39.5C242.693 39.5 243.336 39.3468 243.736 38.8893L242.984 38.2307ZM241.985 38.5H233.515V39.5H241.985V38.5ZM248.2 24.32H256.395V23.32H248.2V24.32ZM256.869 23.6619L252.744 11.2869L251.796 11.6031L255.921 23.9781L256.869 23.6619ZM251.795 11.2888L247.725 23.6638L248.675 23.9762L252.745 11.6012L251.795 11.2888ZM276.379 38.615L276.026 38.9686L276.038 38.9803L276.05 38.9913L276.379 38.615ZM276.379 0.939998L276.709 1.31629L276.721 1.30532L276.733 1.29355L276.379 0.939998ZM304.759 3.91L304.446 4.29945L304.448 4.30141L304.759 3.91ZM302.669 24.205L302.432 23.7648L301.988 24.0041L302.231 24.4462L302.669 24.205ZM309.819 37.185L310.267 36.9614L310.262 36.9525L310.257 36.9438L309.819 37.185ZM309.654 38.67L310.008 39.0236L310.021 39.01L310.034 38.9954L309.654 38.67ZM297.939 38.505L297.586 38.8586L297.595 38.8679L297.605 38.8766L297.939 38.505ZM297.224 37.515L297.692 37.3394L297.684 37.3176L297.674 37.2966L297.224 37.515ZM291.724 26.185L292.174 25.9666L292.037 25.685H291.724V26.185ZM287.764 26.185V25.685H287.264V26.185H287.764ZM287.324 38.615L287.678 38.9686L287.678 38.9686L287.324 38.615ZM287.764 17.11H287.264V17.61H287.764V17.11ZM295.849 16.065L296.222 16.3985L296.23 16.3888L295.849 16.065ZM295.849 10.565L295.452 10.868L295.456 10.8739L295.461 10.8796L295.849 10.565ZM287.764 9.41V8.91H287.264V9.41H287.764ZM277.369 38.5C277.132 38.5 276.917 38.4211 276.709 38.2387L276.05 38.9913C276.428 39.3222 276.873 39.5 277.369 39.5V38.5ZM276.733 38.2614C276.53 38.0589 276.439 37.8366 276.439 37.57H275.439C275.439 38.1101 275.642 38.5844 276.026 38.9686L276.733 38.2614ZM276.439 37.57V1.93H275.439V37.57H276.439ZM276.439 1.93C276.439 1.66512 276.528 1.4743 276.709 1.31629L276.05 0.563709C275.644 0.919028 275.439 1.38821 275.439 1.93H276.439ZM276.733 1.29355C276.946 1.08056 277.153 0.999997 277.369 0.999997V-2.6226e-06C276.852 -2.6226e-06 276.399 0.212767 276.026 0.586445L276.733 1.29355ZM277.369 0.999997H293.044V-2.6226e-06H277.369V0.999997ZM293.044 0.999997C297.959 0.999997 301.739 2.12038 304.446 4.29944L305.073 3.52055C302.132 1.15294 298.103 -2.6226e-06 293.044 -2.6226e-06V0.999997ZM304.448 4.30141C307.174 6.46823 308.549 9.48766 308.549 13.425H309.549C309.549 9.22233 308.064 5.89844 305.07 3.51859L304.448 4.30141ZM308.549 13.425C308.549 15.9139 307.981 17.996 306.871 19.6966L307.708 20.2434C308.944 18.3506 309.549 16.0695 309.549 13.425H308.549ZM306.871 19.6966C305.743 21.4227 304.266 22.7773 302.432 23.7648L302.906 24.6452C304.886 23.5794 306.489 22.1106 307.708 20.2434L306.871 19.6966ZM302.231 24.4462L309.381 37.4262L310.257 36.9438L303.107 23.9638L302.231 24.4462ZM309.372 37.4086C309.459 37.5818 309.484 37.7061 309.484 37.79H310.484C310.484 37.5072 310.4 37.2282 310.267 36.9614L309.372 37.4086ZM309.484 37.79C309.484 37.9975 309.419 38.1761 309.275 38.3446L310.034 38.9954C310.33 38.6505 310.484 38.2425 310.484 37.79H309.484ZM309.301 38.3164C309.181 38.4365 309.036 38.5 308.829 38.5V39.5C309.283 39.5 309.688 39.3435 310.008 39.0236L309.301 38.3164ZM308.829 38.5H299.534V39.5H308.829V38.5ZM299.534 38.5C298.91 38.5 298.517 38.3521 298.274 38.1334L297.605 38.8766C298.095 39.3179 298.765 39.5 299.534 39.5V38.5ZM298.293 38.1514C297.948 37.8063 297.766 37.5361 297.692 37.3394L296.756 37.6906C296.902 38.0806 297.198 38.4703 297.586 38.8586L298.293 38.1514ZM297.674 37.2966L292.174 25.9666L291.274 26.4034L296.774 37.7334L297.674 37.2966ZM291.724 25.685H287.764V26.685H291.724V25.685ZM287.264 26.185V37.57H288.264V26.185H287.264ZM287.264 37.57C287.264 37.8366 287.173 38.0589 286.971 38.2614L287.678 38.9686C288.062 38.5844 288.264 38.1101 288.264 37.57H287.264ZM286.971 38.2614C286.819 38.4135 286.621 38.5 286.334 38.5V39.5C286.854 39.5 287.317 39.3298 287.678 38.9686L286.971 38.2614ZM286.334 38.5H277.369V39.5H286.334V38.5ZM287.764 17.61H292.989V16.61H287.764V17.61ZM292.989 17.61C294.36 17.61 295.472 17.2362 296.222 16.3984L295.477 15.7316C294.98 16.2871 294.186 16.61 292.989 16.61V17.61ZM296.23 16.3888C296.939 15.5554 297.284 14.5387 297.284 13.37H296.284C296.284 14.328 296.007 15.1079 295.468 15.7412L296.23 16.3888ZM297.284 13.37C297.284 12.1689 296.941 11.1193 296.238 10.2504L295.461 10.8796C296.004 11.5507 296.284 12.3711 296.284 13.37H297.284ZM296.247 10.262C295.534 9.32635 294.404 8.91 292.989 8.91V9.91C294.214 9.91 294.991 10.2636 295.452 10.868L296.247 10.262ZM292.989 8.91H287.764V9.91H292.989V8.91ZM287.264 9.41V17.11H288.264V9.41H287.264ZM323.36 38.615L322.984 38.9443L323.006 38.9693L323.031 38.9913L323.36 38.615ZM322.975 10.73H323.475V10.23H322.975V10.73ZM312.47 10.345L312.094 10.6743L312.116 10.6993L312.141 10.7213L312.47 10.345ZM312.47 0.939998L312.824 1.29355L312.824 1.29355L312.47 0.939998ZM345.415 0.939998L345.039 1.26925L345.061 1.29434L345.086 1.31629L345.415 0.939998ZM345.415 10.345L345.061 9.99145L345.061 9.99145L345.415 10.345ZM334.965 10.73V10.23H334.465V10.73H334.965ZM334.525 38.615L334.171 38.2614L334.171 38.2614L334.525 38.615ZM324.405 38.5C324.118 38.5 323.888 38.4126 323.689 38.2387L323.031 38.9913C323.419 39.3307 323.885 39.5 324.405 39.5V38.5ZM323.736 38.2857C323.562 38.087 323.475 37.8568 323.475 37.57H322.475C322.475 38.0898 322.644 38.5564 322.984 38.9443L323.736 38.2857ZM323.475 37.57V10.73H322.475V37.57H323.475ZM322.975 10.23H313.515V11.23H322.975V10.23ZM313.515 10.23C313.228 10.23 312.998 10.1426 312.799 9.96871L312.141 10.7213C312.529 11.0607 312.995 11.23 313.515 11.23V10.23ZM312.846 10.0157C312.672 9.81697 312.585 9.58683 312.585 9.3H311.585C311.585 9.81983 311.754 10.2864 312.094 10.6743L312.846 10.0157ZM312.585 9.3V1.93H311.585V9.3H312.585ZM312.585 1.93C312.585 1.64312 312.672 1.44562 312.824 1.29355L312.116 0.586444C311.755 0.947712 311.585 1.41021 311.585 1.93H312.585ZM312.824 1.29355C313.026 1.09099 313.248 0.999997 313.515 0.999997V-2.6226e-06C312.975 -2.6226e-06 312.501 0.202335 312.116 0.586445L312.824 1.29355ZM313.515 0.999997H344.425V-2.6226e-06H313.515V0.999997ZM344.425 0.999997C344.69 0.999997 344.881 1.08866 345.039 1.26925L345.791 0.610747C345.436 0.204667 344.967 -2.6226e-06 344.425 -2.6226e-06V0.999997ZM345.086 1.31629C345.266 1.4743 345.355 1.66512 345.355 1.93H346.355C346.355 1.38821 346.15 0.919027 345.744 0.563709L345.086 1.31629ZM345.355 1.93V9.3H346.355V1.93H345.355ZM345.355 9.3C345.355 9.56655 345.264 9.78889 345.061 9.99145L345.769 10.6986C346.153 10.3144 346.355 9.84011 346.355 9.3H345.355ZM345.061 9.99145C344.909 10.1435 344.712 10.23 344.425 10.23V11.23C344.945 11.23 345.407 11.0598 345.769 10.6986L345.061 9.99145ZM344.425 10.23H334.965V11.23H344.425V10.23ZM334.465 10.73V37.57H335.465V10.73H334.465ZM334.465 37.57C334.465 37.8366 334.374 38.0589 334.171 38.2614L334.879 38.9686C335.263 38.5844 335.465 38.1101 335.465 37.57H334.465ZM334.171 38.2614C334.019 38.4135 333.822 38.5 333.535 38.5V39.5C334.055 39.5 334.517 39.3298 334.879 38.9686L334.171 38.2614ZM333.535 38.5H324.405V39.5H333.535V38.5ZM360.504 38.615L360.128 38.9443L360.15 38.9693L360.175 38.9913L360.504 38.615ZM360.119 26.24H360.619V26.1174L360.562 26.0087L360.119 26.24ZM347.579 2.205L347.132 2.42864L347.136 2.43628L347.579 2.205ZM347.469 1.985L346.995 2.14311L347.006 2.17682L347.022 2.2086L347.469 1.985ZM347.744 0.884999L348.097 1.23855L348.097 1.23855L347.744 0.884999ZM358.689 0.994998L359.042 0.641444L359.042 0.641444L358.689 0.994998ZM359.349 1.765L359.791 1.5307L359.784 1.51905L359.778 1.50775L359.349 1.765ZM366.059 14.415L365.617 14.6493L366.059 15.482L366.501 14.6493L366.059 14.415ZM372.769 1.765L373.211 1.99929L373.223 1.9756L373.233 1.95069L372.769 1.765ZM373.374 0.994998L373.039 0.623351L373.03 0.632147L373.02 0.641444L373.374 0.994998ZM384.264 0.884999L383.884 1.21039L383.909 1.2396L383.939 1.26463L384.264 0.884999ZM384.594 1.985L384.12 1.82689L384.094 1.90386V1.985H384.594ZM384.539 2.205L384.982 2.43712L384.986 2.42862L384.539 2.205ZM371.944 26.24L371.501 26.0079L371.444 26.1169V26.24H371.944ZM371.504 38.615L371.858 38.9686L371.858 38.9686L371.504 38.615ZM361.549 38.5C361.262 38.5 361.032 38.4126 360.833 38.2387L360.175 38.9913C360.563 39.3307 361.029 39.5 361.549 39.5V38.5ZM360.88 38.2857C360.706 38.087 360.619 37.8568 360.619 37.57H359.619C359.619 38.0898 359.788 38.5564 360.128 38.9443L360.88 38.2857ZM360.619 37.57V26.24H359.619V37.57H360.619ZM360.562 26.0087L348.022 1.97372L347.136 2.43628L359.676 26.4713L360.562 26.0087ZM348.026 1.98139C347.989 1.90806 347.953 1.83473 347.916 1.76139L347.022 2.2086C347.058 2.28194 347.095 2.35527 347.132 2.42861L348.026 1.98139ZM347.943 1.82689C347.93 1.78709 347.922 1.75705 347.918 1.73569C347.914 1.71381 347.914 1.70621 347.914 1.71H346.914C346.914 1.85896 346.95 2.00816 346.995 2.14311L347.943 1.82689ZM347.914 1.71C347.914 1.50368 347.977 1.35865 348.097 1.23855L347.39 0.531445C347.07 0.851342 346.914 1.25632 346.914 1.71H347.914ZM348.097 1.23855C348.271 1.06536 348.44 0.999997 348.624 0.999997V-2.6226e-06C348.147 -2.6226e-06 347.731 0.191306 347.39 0.531446L348.097 1.23855ZM348.624 0.999997H357.204V-2.6226e-06H348.624V0.999997ZM357.204 0.999997C357.787 0.999997 358.132 1.14539 358.335 1.34855L359.042 0.641444C358.586 0.184604 357.941 -2.6226e-06 357.204 -2.6226e-06V0.999997ZM358.335 1.34855C358.662 1.67538 358.844 1.8954 358.92 2.02225L359.778 1.50775C359.634 1.26793 359.376 0.974614 359.042 0.641444L358.335 1.34855ZM358.907 1.99929L365.617 14.6493L366.501 14.1807L359.791 1.5307L358.907 1.99929ZM366.501 14.6493L373.211 1.99929L372.327 1.5307L365.617 14.1807L366.501 14.6493ZM373.233 1.95069C373.265 1.87203 373.397 1.67865 373.728 1.34855L373.02 0.641444C372.69 0.971346 372.42 1.2913 372.305 1.5793L373.233 1.95069ZM373.708 1.36664C373.961 1.13936 374.325 0.999997 374.859 0.999997V-2.6226e-06C374.146 -2.6226e-06 373.52 0.190635 373.039 0.623351L373.708 1.36664ZM374.859 0.999997H383.494V-2.6226e-06H374.859V0.999997ZM383.494 0.999997C383.618 0.999997 383.743 1.04577 383.884 1.21039L384.644 0.559605C384.345 0.210894 383.956 -2.6226e-06 383.494 -2.6226e-06V0.999997ZM383.939 1.26463C384.088 1.3923 384.149 1.53 384.149 1.71H385.149C385.149 1.22999 384.954 0.817697 384.589 0.50537L383.939 1.26463ZM384.149 1.71C384.149 1.70621 384.149 1.71381 384.145 1.73569C384.141 1.75705 384.133 1.7871 384.12 1.82689L385.068 2.14311C385.113 2.00815 385.149 1.85896 385.149 1.71H384.149ZM384.094 1.985C384.094 1.97954 384.095 1.9755 384.095 1.97373C384.096 1.97216 384.095 1.97462 384.092 1.98138L384.986 2.42862C385.053 2.29414 385.094 2.14472 385.094 1.985H384.094ZM384.096 1.97292L371.501 26.0079L372.387 26.4721L384.982 2.43708L384.096 1.97292ZM371.444 26.24V37.57H372.444V26.24H371.444ZM371.444 37.57C371.444 37.8366 371.353 38.0589 371.15 38.2614L371.858 38.9686C372.242 38.5844 372.444 38.1101 372.444 37.57H371.444ZM371.15 38.2614C370.998 38.4135 370.801 38.5 370.514 38.5V39.5C371.034 39.5 371.496 39.3298 371.858 38.9686L371.15 38.2614ZM370.514 38.5H361.549V39.5H370.514V38.5Z" fill="white"/>
</svg>
