<svg width="259" height="41" viewBox="0 0 259 41" fill="none" xmlns="http://www.w3.org/2000/svg">
<path d="M1.32217 39.615L0.791838 40.1453L0.809496 40.163L0.82829 40.1794L1.32217 39.615ZM1.32217 1.94L1.81605 2.50443L1.83484 2.48799L1.8525 2.47033L1.32217 1.94ZM12.4872 1.94L11.9568 2.47033L11.9745 2.48799L11.9933 2.50443L12.4872 1.94ZM12.9272 30.21H12.1772V30.96H12.9272V30.21ZM29.8672 30.65L29.3368 31.1803L29.3545 31.198L29.3733 31.2144L29.8672 30.65ZM29.8672 39.615L30.361 40.1794L30.3798 40.163L30.3975 40.1453L29.8672 39.615ZM2.31217 39.25C2.13924 39.25 1.98203 39.1958 1.81605 39.0506L0.82829 40.1794C1.24897 40.5475 1.75176 40.75 2.31217 40.75V39.25ZM1.8525 39.0847C1.69533 38.9275 1.63217 38.7682 1.63217 38.57H0.132168C0.132168 39.1785 0.362341 39.7158 0.791838 40.1453L1.8525 39.0847ZM1.63217 38.57V2.93H0.132168V38.57H1.63217ZM1.63217 2.93C1.63217 2.73434 1.69183 2.61312 1.81605 2.50443L0.828291 1.37556C0.365837 1.78021 0.132168 2.31899 0.132168 2.93H1.63217ZM1.8525 2.47033C2.02532 2.29751 2.17119 2.25 2.31217 2.25V0.749997C1.71981 0.749997 1.20569 0.995818 0.791837 1.40967L1.8525 2.47033ZM2.31217 2.25H11.4422V0.749997H2.31217V2.25ZM11.4422 2.25C11.6403 2.25 11.7997 2.31316 11.9568 2.47033L13.0175 1.40967C12.588 0.980171 12.0507 0.749997 11.4422 0.749997V2.25ZM11.9933 2.50443C12.1175 2.61312 12.1772 2.73434 12.1772 2.93H13.6772C13.6772 2.31899 13.4435 1.78021 12.981 1.37556L11.9933 2.50443ZM12.1772 2.93V30.21H13.6772V2.93H12.1772ZM12.9272 30.96H28.8222V29.46H12.9272V30.96ZM28.8222 30.96C29.0203 30.96 29.1797 31.0232 29.3368 31.1803L30.3975 30.1197C29.968 29.6902 29.4307 29.46 28.8222 29.46V30.96ZM29.3733 31.2144C29.4975 31.3231 29.5572 31.4443 29.5572 31.64H31.0572C31.0572 31.029 30.8235 30.4902 30.3611 30.0856L29.3733 31.2144ZM29.5572 31.64V38.57H31.0572V31.64H29.5572ZM29.5572 38.57C29.5572 38.7682 29.494 38.9275 29.3368 39.0847L30.3975 40.1453C30.827 39.7158 31.0572 39.1785 31.0572 38.57H29.5572ZM29.3733 39.0506C29.2218 39.1831 29.0508 39.25 28.8222 39.25V40.75C29.4002 40.75 29.9259 40.5602 30.361 40.1794L29.3733 39.0506ZM28.8222 39.25H2.31217V40.75H28.8222V39.25ZM31.7002 39.67L31.1308 40.1581L31.1495 40.18L31.1699 40.2003L31.7002 39.67ZM31.4252 38.405L30.7187 38.1533L30.7161 38.1605L30.7137 38.1678L31.4252 38.405ZM43.9652 3.205L43.2604 2.94869L43.2587 2.95331L43.9652 3.205ZM44.7352 2.05L44.2049 1.51967L44.2049 1.51967L44.7352 2.05ZM57.9352 2.05L58.4655 1.51967L58.4655 1.51967L57.9352 2.05ZM58.6502 3.205L57.9266 3.40234L57.9343 3.43034L57.9441 3.45767L58.6502 3.205ZM71.2452 38.405L71.9567 38.1678L71.9541 38.1601L71.9514 38.1523L71.2452 38.405ZM70.9152 39.67L71.4455 40.2003L71.4455 40.2003L70.9152 39.67ZM59.6402 38.735L58.9366 38.9947L58.9433 39.0127L58.9509 39.0304L59.6402 38.735ZM57.9352 34.115L58.6388 33.8553L58.4579 33.365H57.9352V34.115ZM44.6802 34.115V33.365H44.1576L43.9766 33.8553L44.6802 34.115ZM42.9752 38.735L43.6646 39.0304L43.6722 39.0127L43.6788 38.9947L42.9752 38.735ZM42.3702 39.56L41.8399 39.0297L41.8222 39.0473L41.8058 39.0661L42.3702 39.56ZM47.2102 24.82L46.4978 24.5857L46.174 25.57H47.2102V24.82ZM55.4052 24.82V25.57H56.4458L56.1167 24.5828L55.4052 24.82ZM51.2802 12.445L51.9917 12.2078L51.2754 10.059L50.5678 12.2107L51.2802 12.445ZM32.5252 39.25C32.3807 39.25 32.3007 39.2098 32.2305 39.1397L31.1699 40.2003C31.5397 40.5702 32.0097 40.75 32.5252 40.75V39.25ZM32.2697 39.1819C32.1631 39.0575 32.1202 38.9362 32.1202 38.79H30.6202C30.6202 39.3038 30.7974 39.7691 31.1308 40.1581L32.2697 39.1819ZM32.1202 38.79C32.1202 38.7036 32.1313 38.6585 32.1367 38.6422L30.7137 38.1678C30.6458 38.3715 30.6202 38.5831 30.6202 38.79H32.1202ZM32.1317 38.6567L44.6717 3.45669L43.2587 2.95331L30.7187 38.1533L32.1317 38.6567ZM44.6701 3.46131C44.7723 3.18015 44.9605 2.88537 45.2655 2.58033L44.2049 1.51967C43.7766 1.94797 43.4515 2.42318 43.2604 2.94869L44.6701 3.46131ZM45.2655 2.58033C45.4558 2.39004 45.7572 2.25 46.2752 2.25V0.749997C45.4733 0.749997 44.7479 0.976623 44.2049 1.51967L45.2655 2.58033ZM46.2752 2.25H56.3402V0.749997H46.2752V2.25ZM56.3402 2.25C56.9084 2.25 57.2219 2.3973 57.4049 2.58033L58.4655 1.51967C57.9152 0.969361 57.1654 0.749997 56.3402 0.749997V2.25ZM57.4049 2.58033C57.7012 2.87666 57.8583 3.15183 57.9266 3.40234L59.3738 3.00766C59.2221 2.4515 58.9026 1.95667 58.4655 1.51967L57.4049 2.58033ZM57.9441 3.45767L70.5391 38.6577L71.9514 38.1523L59.3564 2.95233L57.9441 3.45767ZM70.5337 38.6422C70.5392 38.6585 70.5502 38.7036 70.5502 38.79H72.0502C72.0502 38.5831 72.0246 38.3715 71.9567 38.1678L70.5337 38.6422ZM70.5502 38.79C70.5502 38.9003 70.5163 39.0082 70.3849 39.1397L71.4455 40.2003C71.8274 39.8185 72.0502 39.3397 72.0502 38.79H70.5502ZM70.3849 39.1397C70.3147 39.2098 70.2347 39.25 70.0902 39.25V40.75C70.6057 40.75 71.0757 40.5702 71.4455 40.2003L70.3849 39.1397ZM70.0902 39.25H61.6202V40.75H70.0902V39.25ZM61.6202 39.25C61.0971 39.25 60.8711 39.1253 60.7755 39.0297L59.7149 40.0903C60.206 40.5814 60.8967 40.75 61.6202 40.75V39.25ZM60.7755 39.0297C60.52 38.7741 60.3884 38.5768 60.3296 38.4396L58.9509 39.0304C59.1121 39.4066 59.3838 39.7592 59.7149 40.0903L60.7755 39.0297ZM60.3438 38.4753L58.6388 33.8553L57.2316 34.3747L58.9366 38.9947L60.3438 38.4753ZM57.9352 33.365H44.6802V34.865H57.9352V33.365ZM43.9766 33.8553L42.2716 38.4753L43.6788 38.9947L45.3838 34.3747L43.9766 33.8553ZM42.2859 38.4396C42.2271 38.5768 42.0955 38.7741 41.8399 39.0297L42.9005 40.0903C43.2316 39.7592 43.5034 39.4066 43.6646 39.0304L42.2859 38.4396ZM41.8058 39.0661C41.7647 39.1131 41.5827 39.25 40.9952 39.25V40.75C41.7277 40.75 42.4624 40.5936 42.9346 40.0539L41.8058 39.0661ZM40.9952 39.25H32.5252V40.75H40.9952V39.25ZM47.2102 25.57H55.4052V24.07H47.2102V25.57ZM56.1167 24.5828L51.9917 12.2078L50.5687 12.6822L54.6937 25.0572L56.1167 24.5828ZM50.5678 12.2107L46.4978 24.5857L47.9227 25.0543L51.9927 12.6793L50.5678 12.2107ZM75.3896 39.615L74.8592 40.1453L74.8769 40.163L74.8957 40.1794L75.3896 39.615ZM75.3896 1.94L75.8834 2.50443L75.9022 2.48799L75.9199 2.47033L75.3896 1.94ZM103.77 4.91L103.299 5.49418L103.303 5.49712L103.77 4.91ZM101.68 25.205L101.324 24.5446L100.657 24.9036L101.023 25.5669L101.68 25.205ZM108.83 38.185L109.5 37.8496L109.494 37.8362L109.486 37.8231L108.83 38.185ZM108.665 39.67L109.195 40.2003L109.215 40.18L109.234 40.1581L108.665 39.67ZM96.9496 39.505L96.4192 40.0353L96.4332 40.0493L96.4478 40.0625L96.9496 39.505ZM96.2346 38.515L96.9368 38.2517L96.9245 38.2189L96.9093 38.1875L96.2346 38.515ZM90.7346 27.185L91.4093 26.8575L91.2042 26.435H90.7346V27.185ZM86.7746 27.185V26.435H86.0246V27.185H86.7746ZM86.3346 39.615L86.8649 40.1453L86.8649 40.1453L86.3346 39.615ZM86.7746 18.11H86.0246V18.86H86.7746V18.11ZM94.8596 17.065L95.4185 17.5651L95.4248 17.558L95.431 17.5507L94.8596 17.065ZM94.8596 11.565L94.263 12.0195L94.2697 12.0283L94.2766 12.0369L94.8596 11.565ZM86.7746 10.41V9.66H86.0246V10.41H86.7746ZM76.3796 39.25C76.2066 39.25 76.0494 39.1958 75.8834 39.0506L74.8957 40.1794C75.3164 40.5475 75.8191 40.75 76.3796 40.75V39.25ZM75.9199 39.0847C75.7627 38.9275 75.6996 38.7682 75.6996 38.57H74.1996C74.1996 39.1785 74.4297 39.7158 74.8592 40.1453L75.9199 39.0847ZM75.6996 38.57V2.93H74.1996V38.57H75.6996ZM75.6996 2.93C75.6996 2.73434 75.7592 2.61312 75.8834 2.50443L74.8957 1.37556C74.4332 1.78021 74.1996 2.31899 74.1996 2.93H75.6996ZM75.9199 2.47033C76.0927 2.29751 76.2386 2.25 76.3796 2.25V0.749997C75.7872 0.749997 75.2731 0.995818 74.8592 1.40967L75.9199 2.47033ZM76.3796 2.25H92.0546V0.749997H76.3796V2.25ZM92.0546 2.25C96.9338 2.25 100.651 3.36224 103.299 5.49417L104.24 4.32583C101.241 1.91108 97.1486 0.749997 92.0546 0.749997V2.25ZM103.303 5.49712C105.962 7.61067 107.31 10.554 107.31 14.425H108.81C108.81 10.156 107.297 6.75599 104.236 4.32288L103.303 5.49712ZM107.31 14.425C107.31 16.875 106.751 18.9074 105.672 20.5599L106.928 21.3801C108.195 19.4393 108.81 17.1084 108.81 14.425H107.31ZM105.672 20.5599C104.567 22.2507 103.121 23.5768 101.324 24.5446L102.035 25.8654C104.051 24.7799 105.685 23.2826 106.928 21.3801L105.672 20.5599ZM101.023 25.5669L108.173 38.5469L109.486 37.8231L102.336 24.8431L101.023 25.5669ZM108.159 38.5204C108.234 38.6702 108.245 38.7559 108.245 38.79H109.745C109.745 38.4574 109.645 38.1398 109.5 37.8496L108.159 38.5204ZM108.245 38.79C108.245 38.9362 108.202 39.0575 108.095 39.1819L109.234 40.1581C109.567 39.7691 109.745 39.3038 109.745 38.79H108.245ZM108.134 39.1397C108.064 39.2098 107.984 39.25 107.84 39.25V40.75C108.355 40.75 108.825 40.5702 109.195 40.2003L108.134 39.1397ZM107.84 39.25H98.5446V40.75H107.84V39.25ZM98.5446 39.25C97.9571 39.25 97.6326 39.1107 97.4513 38.9475L96.4478 40.0625C96.9999 40.5593 97.7387 40.75 98.5446 40.75V39.25ZM97.4799 38.9747C97.1455 38.6403 96.9924 38.3999 96.9368 38.2517L95.5323 38.7783C95.6967 39.2168 96.0202 39.6363 96.4192 40.0353L97.4799 38.9747ZM96.9093 38.1875L91.4093 26.8575L90.0598 27.5125L95.5598 38.8425L96.9093 38.1875ZM90.7346 26.435H86.7746V27.935H90.7346V26.435ZM86.0246 27.185V38.57H87.5246V27.185H86.0246ZM86.0246 38.57C86.0246 38.7682 85.9614 38.9275 85.8042 39.0847L86.8649 40.1453C87.2944 39.7158 87.5246 39.1785 87.5246 38.57H86.0246ZM85.8042 39.0847C85.7045 39.1844 85.5732 39.25 85.3446 39.25V40.75C85.9226 40.75 86.4513 40.5589 86.8649 40.1453L85.8042 39.0847ZM85.3446 39.25H76.3796V40.75H85.3446V39.25ZM86.7746 18.86H91.9996V17.36H86.7746V18.86ZM91.9996 18.86C93.4135 18.86 94.6057 18.4735 95.4185 17.5651L94.3006 16.5649C93.8667 17.0498 93.1523 17.36 91.9996 17.36V18.86ZM95.431 17.5507C96.1819 16.6673 96.5446 15.5913 96.5446 14.37H95.0446C95.0446 15.2753 94.7839 15.996 94.2881 16.5793L95.431 17.5507ZM96.5446 14.37C96.5446 13.1184 96.1859 12.0115 95.4425 11.0931L94.2766 12.0369C94.7798 12.6585 95.0446 13.4216 95.0446 14.37H96.5446ZM95.4561 11.1105C94.6802 10.092 93.4623 9.66 91.9996 9.66V11.16C93.1768 11.16 93.8656 11.498 94.263 12.0195L95.4561 11.1105ZM91.9996 9.66H86.7746V11.16H91.9996V9.66ZM86.0246 10.41V18.11H87.5246V10.41H86.0246ZM121.046 38.9L120.746 39.5874L120.755 39.5909L121.046 38.9ZM114.941 33.84L114.314 34.2513L114.314 34.2513L114.941 33.84ZM112.576 25.535L111.827 25.5529L111.827 25.56L112.576 25.535ZM112.576 15.525L111.827 15.4992L111.827 15.5076L112.576 15.525ZM114.941 7.495L114.325 7.06698L114.321 7.07413L114.941 7.495ZM121.156 2.6L121.445 3.29231L121.445 3.29231L121.156 2.6ZM137.931 1.94L137.716 2.65837L137.716 2.65837L137.931 1.94ZM143.541 4.635L143.096 5.23847L143.103 5.24338L143.541 4.635ZM147.116 8.485L146.463 8.85349L146.469 8.86351L146.475 8.87335L147.116 8.485ZM148.436 12.83H149.186V12.8209L149.186 12.8117L148.436 12.83ZM148.051 13.655L147.563 13.0856L147.541 13.1043L147.521 13.1247L148.051 13.655ZM136.226 13.82L135.891 14.4908L135.891 14.4908L136.226 13.82ZM135.621 13.325L134.951 13.6604L134.99 13.7383L135.045 13.8051L135.621 13.325ZM134.741 12.06L134.147 12.5173L134.158 12.5311L134.169 12.5445L134.741 12.06ZM133.146 10.85L132.797 11.5137L132.811 11.521L132.825 11.5278L133.146 10.85ZM126.381 11.62L125.873 11.0689L125.873 11.0689L126.381 11.62ZM124.841 15.8L124.092 15.7712L124.092 15.7732L124.841 15.8ZM124.841 25.26L124.092 25.2856L124.092 25.2863L124.841 25.26ZM126.436 29.825L125.916 30.3652L125.926 30.375L125.937 30.3845L126.436 29.825ZM133.586 30.65L133.308 29.9536L133.298 29.9577L133.586 30.65ZM135.731 28.945L136.355 29.361L136.36 29.3544L136.364 29.3477L135.731 28.945ZM136.501 25.315H137.251V24.565H136.501V25.315ZM131.551 24.875L130.987 25.3689L131.003 25.3877L131.021 25.4053L131.551 24.875ZM148.106 17.78L147.576 18.3103L147.594 18.328L147.613 18.3444L148.106 17.78ZM146.236 33.675L146.854 34.1003L146.854 34.1003L146.236 33.675ZM139.856 38.79L139.559 38.1016L139.559 38.1016L139.856 38.79ZM130.396 39.8C126.839 39.8 123.827 39.2607 121.338 38.2091L120.755 39.5909C123.472 40.7393 126.693 41.3 130.396 41.3V39.8ZM121.347 38.2127C118.868 37.1305 116.95 35.5359 115.569 33.4287L114.314 34.2513C115.866 36.6175 118.018 38.3962 120.746 39.5873L121.347 38.2127ZM115.569 33.4287C114.193 31.3314 113.432 28.7046 113.326 25.51L111.827 25.56C111.94 28.9654 112.756 31.8753 114.314 34.2513L115.569 33.4287ZM113.326 25.5171C113.29 23.9839 113.271 22.3399 113.271 20.585H111.771C111.771 22.3501 111.79 24.0061 111.827 25.5529L113.326 25.5171ZM113.271 20.585C113.271 18.7934 113.29 17.1126 113.326 15.5424L111.827 15.5076C111.79 17.0908 111.771 18.7833 111.771 20.585H113.271ZM113.326 15.5508C113.432 12.4707 114.191 9.93879 115.562 7.91587L114.321 7.07413C112.759 9.37788 111.941 12.1993 111.827 15.4992L113.326 15.5508ZM115.557 7.92299C116.972 5.88726 118.925 4.34216 121.445 3.29231L120.868 1.90769C118.108 3.05784 115.918 4.77607 114.326 7.06701L115.557 7.92299ZM121.445 3.29231C123.975 2.23808 126.953 1.7 130.396 1.7V0.199998C126.8 0.199998 123.618 0.761913 120.868 1.90769L121.445 3.29231ZM130.396 1.7C133.163 1.7 135.6 2.0235 137.716 2.65837L138.147 1.22163C135.863 0.536497 133.277 0.199998 130.396 0.199998V1.7ZM137.716 2.65837C139.849 3.29839 141.638 4.16211 143.096 5.23843L143.987 4.03157C142.365 2.83455 140.414 1.90161 138.147 1.22163L137.716 2.65837ZM143.103 5.24338C144.607 6.3281 145.719 7.53384 146.463 8.85349L147.77 8.11651C146.901 6.57615 145.629 5.21523 143.98 4.02662L143.103 5.24338ZM146.475 8.87335C147.256 10.1644 147.653 11.4864 147.687 12.8483L149.186 12.8117C149.146 11.167 148.663 9.59223 147.758 8.09665L146.475 8.87335ZM147.686 12.83C147.686 12.935 147.658 13.004 147.563 13.0856L148.54 14.2244C148.958 13.866 149.186 13.385 149.186 12.83H147.686ZM147.521 13.1247C147.451 13.1948 147.371 13.235 147.226 13.235V14.735C147.742 14.735 148.212 14.5552 148.582 14.1853L147.521 13.1247ZM147.226 13.235H137.106V14.735H147.226V13.235ZM137.106 13.235C136.804 13.235 136.639 13.1879 136.562 13.1492L135.891 14.4908C136.254 14.6721 136.676 14.735 137.106 14.735V13.235ZM136.562 13.1492C136.448 13.0924 136.325 12.9983 136.198 12.8449L135.045 13.8051C135.284 14.0917 135.565 14.3276 135.891 14.4908L136.562 13.1492ZM136.292 12.9896C136.072 12.5494 135.738 12.0767 135.314 11.5755L134.169 12.5445C134.551 12.9966 134.804 13.3672 134.951 13.6604L136.292 12.9896ZM135.336 11.6027C134.879 11.0092 134.242 10.5391 133.467 10.1722L132.825 11.5278C133.444 11.8209 133.87 12.1575 134.147 12.5173L135.336 11.6027ZM133.496 10.1863C132.654 9.7434 131.604 9.55 130.396 9.55V11.05C131.462 11.05 132.245 11.2233 132.797 11.5137L133.496 10.1863ZM130.396 9.55C128.548 9.55 127.005 10.0237 125.873 11.0689L126.89 12.1711C127.665 11.4563 128.798 11.05 130.396 11.05V9.55ZM125.873 11.0689C124.716 12.1365 124.169 13.7588 124.092 15.7712L125.591 15.8288C125.66 14.0279 126.14 12.8635 126.89 12.1711L125.873 11.0689ZM124.092 15.7732C123.981 18.8715 123.981 22.0423 124.092 25.2856L125.591 25.2344C125.482 22.0244 125.482 18.8885 125.591 15.8268L124.092 15.7732ZM124.092 25.2863C124.169 27.4716 124.728 29.2209 125.916 30.3652L126.957 29.2848C126.165 28.5225 125.661 27.2284 125.591 25.2337L124.092 25.2863ZM125.937 30.3845C127.133 31.4525 128.702 31.95 130.561 31.95V30.45C128.974 30.45 127.793 30.0308 126.936 29.2655L125.937 30.3845ZM130.561 31.95C131.778 31.95 132.888 31.7536 133.875 31.3423L133.298 29.9577C132.525 30.2797 131.618 30.45 130.561 30.45V31.95ZM133.865 31.3464C134.913 30.9273 135.752 30.2659 136.355 29.361L135.107 28.529C134.684 29.1641 134.094 29.6394 133.308 29.9536L133.865 31.3464ZM136.364 29.3477C136.974 28.3892 137.251 27.2117 137.251 25.865H135.751C135.751 27.0116 135.515 27.8875 135.099 28.5423L136.364 29.3477ZM137.251 25.865V25.315H135.751V25.865H137.251ZM136.501 24.565H132.596V26.065H136.501V24.565ZM132.596 24.565C132.398 24.565 132.239 24.5018 132.082 24.3447L131.021 25.4053C131.451 25.8348 131.988 26.065 132.596 26.065V24.565ZM132.116 24.3811C131.971 24.2151 131.916 24.0579 131.916 23.885H130.416C130.416 24.4454 130.619 24.9482 130.987 25.3689L132.116 24.3811ZM131.916 23.885V18.77H130.416V23.885H131.916ZM131.916 18.77C131.916 18.5414 131.982 18.4101 132.082 18.3103L131.021 17.2497C130.608 17.6632 130.416 18.192 130.416 18.77H131.916ZM132.082 18.3103C132.239 18.1532 132.398 18.09 132.596 18.09V16.59C131.988 16.59 131.451 16.8202 131.021 17.2497L132.082 18.3103ZM132.596 18.09H147.061V16.59H132.596V18.09ZM147.061 18.09C147.26 18.09 147.419 18.1532 147.576 18.3103L148.637 17.2497C148.207 16.8202 147.67 16.59 147.061 16.59V18.09ZM147.613 18.3444C147.737 18.4531 147.796 18.5743 147.796 18.77H149.296C149.296 18.159 149.063 17.6202 148.6 17.2156L147.613 18.3444ZM147.796 18.77V25.48H149.296V18.77H147.796ZM147.796 25.48C147.796 28.584 147.057 31.1602 145.619 33.2497L146.854 34.1003C148.496 31.7165 149.296 28.8294 149.296 25.48H147.796ZM145.619 33.2497C144.166 35.3601 142.155 36.979 139.559 38.1016L140.154 39.4784C142.985 38.2543 145.227 36.4632 146.854 34.1003L145.619 33.2497ZM139.559 38.1016C136.957 39.2265 133.909 39.8 130.396 39.8V41.3C134.071 41.3 137.329 40.7001 140.154 39.4784L139.559 38.1016ZM154.559 39.615L154.029 40.1453L154.047 40.163L154.066 40.1794L154.559 39.615ZM154.559 1.94L155.053 2.50443L155.072 2.48799L155.09 2.47033L154.559 1.94ZM183.544 1.94L183.014 2.47033L183.032 2.48799L183.051 2.50443L183.544 1.94ZM183.544 10.41L183.014 9.87967L183.014 9.87967L183.544 10.41ZM165.504 10.85V10.1H164.754V10.85H165.504ZM165.504 16.295H164.754V17.045H165.504V16.295ZM182.334 16.735L181.804 17.2653L181.822 17.283L181.841 17.2994L182.334 16.735ZM182.334 24.71L182.828 25.2744L182.847 25.258L182.865 25.2403L182.334 24.71ZM165.504 25.095V24.345H164.754V25.095H165.504ZM165.504 30.65H164.754V31.4H165.504V30.65ZM183.984 31.09L183.454 31.6203L183.454 31.6203L183.984 31.09ZM183.984 39.615L184.478 40.1794L184.497 40.163L184.515 40.1453L183.984 39.615ZM155.549 39.25C155.377 39.25 155.219 39.1958 155.053 39.0506L154.066 40.1794C154.486 40.5475 154.989 40.75 155.549 40.75V39.25ZM155.09 39.0847C154.933 38.9275 154.869 38.7682 154.869 38.57H153.369C153.369 39.1785 153.6 39.7158 154.029 40.1453L155.09 39.0847ZM154.869 38.57V2.93H153.369V38.57H154.869ZM154.869 2.93C154.869 2.73434 154.929 2.61312 155.053 2.50443L154.066 1.37556C153.603 1.78021 153.369 2.31899 153.369 2.93H154.869ZM155.09 2.47033C155.263 2.29751 155.408 2.25 155.549 2.25V0.749997C154.957 0.749997 154.443 0.995818 154.029 1.40967L155.09 2.47033ZM155.549 2.25H182.499V0.749997H155.549V2.25ZM182.499 2.25C182.698 2.25 182.857 2.31316 183.014 2.47033L184.075 1.40967C183.645 0.98017 183.108 0.749997 182.499 0.749997V2.25ZM183.051 2.50443C183.175 2.61312 183.234 2.73434 183.234 2.93H184.734C184.734 2.31899 184.501 1.78021 184.038 1.37556L183.051 2.50443ZM183.234 2.93V9.42H184.734V2.93H183.234ZM183.234 9.42C183.234 9.56098 183.187 9.70685 183.014 9.87967L184.075 10.9403C184.489 10.5265 184.734 10.0124 184.734 9.42H183.234ZM183.014 9.87967C182.857 10.0368 182.698 10.1 182.499 10.1V11.6C183.108 11.6 183.645 11.3698 184.075 10.9403L183.014 9.87967ZM182.499 10.1H165.504V11.6H182.499V10.1ZM164.754 10.85V16.295H166.254V10.85H164.754ZM165.504 17.045H181.289V15.545H165.504V17.045ZM181.289 17.045C181.488 17.045 181.647 17.1082 181.804 17.2653L182.865 16.2047C182.435 15.7752 181.898 15.545 181.289 15.545V17.045ZM181.841 17.2994C181.965 17.4081 182.024 17.5293 182.024 17.725H183.524C183.524 17.114 183.291 16.5752 182.828 16.1706L181.841 17.2994ZM182.024 17.725V23.665H183.524V17.725H182.024ZM182.024 23.665C182.024 23.8632 181.961 24.0225 181.804 24.1797L182.865 25.2403C183.294 24.8108 183.524 24.2735 183.524 23.665H182.024ZM181.841 24.1456C181.689 24.2781 181.518 24.345 181.289 24.345V25.845C181.868 25.845 182.393 25.6552 182.828 25.2744L181.841 24.1456ZM181.289 24.345H165.504V25.845H181.289V24.345ZM164.754 25.095V30.65H166.254V25.095H164.754ZM165.504 31.4H182.939V29.9H165.504V31.4ZM182.939 31.4C183.138 31.4 183.297 31.4632 183.454 31.6203L184.515 30.5597C184.085 30.1302 183.548 29.9 182.939 29.9V31.4ZM183.454 31.6203C183.611 31.7775 183.674 31.9368 183.674 32.135H185.174C185.174 31.5265 184.944 30.9892 184.515 30.5597L183.454 31.6203ZM183.674 32.135V38.57H185.174V32.135H183.674ZM183.674 38.57C183.674 38.7682 183.611 38.9275 183.454 39.0847L184.515 40.1453C184.944 39.7158 185.174 39.1785 185.174 38.57H183.674ZM183.491 39.0506C183.339 39.1831 183.168 39.25 182.939 39.25V40.75C183.518 40.75 184.043 40.5602 184.478 40.1794L183.491 39.0506ZM182.939 39.25H155.549V40.75H182.939V39.25ZM195.662 38.955L195.363 39.6429L195.375 39.6479L195.662 38.955ZM189.942 34.72L189.33 35.1535L189.335 35.1608L189.341 35.1679L189.942 34.72ZM187.962 29.165H187.212V29.1791L187.213 29.1933L187.962 29.165ZM199.072 28.285L198.675 28.921L198.705 28.9399L198.737 28.9558L199.072 28.285ZM200.007 28.945L200.588 28.4701L200.55 28.424L200.505 28.3844L200.007 28.945ZM201.162 30.1L200.682 30.6762L200.697 30.6885L200.712 30.7L201.162 30.1ZM202.867 30.925L202.641 31.6402L202.659 31.6457L202.676 31.6503L202.867 30.925ZM209.192 30.54L209.517 31.2161L209.527 31.2109L209.538 31.2054L209.192 30.54ZM209.797 27.075L209.313 27.6475L209.323 27.6563L209.334 27.6647L209.797 27.075ZM207.322 25.975L207.525 25.253L207.525 25.253L207.322 25.975ZM202.537 24.93L202.671 24.192L202.662 24.1905L202.537 24.93ZM195.222 22.84L194.906 23.5203L194.916 23.5249L195.222 22.84ZM190.492 19.045L189.866 19.4577L189.871 19.466L189.877 19.4741L190.492 19.045ZM190.877 6.78L190.274 6.33383L190.268 6.34177L190.877 6.78ZM196.487 2.49L196.194 1.79955L196.19 1.80119L196.487 2.49ZM211.887 1.995L211.642 2.7039L211.646 2.70523L211.887 1.995ZM217.057 4.745L216.583 5.32622L216.592 5.33366L217.057 4.745ZM220.247 8.32L219.596 8.6921L219.596 8.6921L220.247 8.32ZM221.402 12.005H222.152V11.9933L222.152 11.9816L221.402 12.005ZM221.017 12.885L220.487 12.3547L220.487 12.3547L221.017 12.885ZM209.962 12.995L210.298 12.3242L210.298 12.3242L209.962 12.995ZM209.082 12.28L208.376 12.5323L208.425 12.6694L208.522 12.7783L209.082 12.28ZM207.707 10.905L208.069 10.2478L208.069 10.2478L207.707 10.905ZM202.042 10.96L202.433 11.6L202.446 11.5922L202.458 11.584L202.042 10.96ZM201.657 14.205L201.127 14.7353L201.127 14.7353L201.657 14.205ZM203.802 15.305L203.573 16.019L203.584 16.0228L203.596 16.0261L203.802 15.305ZM208.092 16.295L207.945 17.0304L207.964 17.0342L207.983 17.037L208.092 16.295ZM216.507 18.495L216.2 19.1794L216.205 19.1813L216.507 18.495ZM221.237 22.235L220.606 22.6406L220.606 22.6406L221.237 22.235ZM214.252 39.065L214.519 39.766L214.524 39.764L214.252 39.065ZM205.287 39.8C201.5 39.8 198.397 39.2762 195.949 38.2621L195.375 39.6479C198.061 40.7605 201.374 41.3 205.287 41.3V39.8ZM195.961 38.2672C193.518 37.2049 191.73 35.8646 190.544 34.2721L189.341 35.1679C190.721 37.022 192.746 38.5051 195.363 39.6428L195.961 38.2672ZM190.554 34.2865C189.382 32.6319 188.779 30.9189 188.712 29.1367L187.213 29.1933C187.292 31.2978 188.009 33.2881 189.33 35.1535L190.554 34.2865ZM188.712 29.165C188.712 29.0205 188.752 28.9405 188.822 28.8703L187.762 27.8097C187.392 28.1795 187.212 28.6495 187.212 29.165H188.712ZM188.822 28.8703C188.893 28.8002 188.973 28.76 189.117 28.76V27.26C188.602 27.26 188.132 27.4398 187.762 27.8097L188.822 28.8703ZM189.117 28.76H197.862V27.26H189.117V28.76ZM197.862 28.76C198.299 28.76 198.545 28.8399 198.675 28.921L199.47 27.649C199.013 27.3634 198.452 27.26 197.862 27.26V28.76ZM198.737 28.9558C198.955 29.0649 199.212 29.2419 199.509 29.5056L200.505 28.3844C200.142 28.0614 199.776 27.7984 199.408 27.6142L198.737 28.9558ZM199.427 29.4199C199.79 29.8635 200.209 30.282 200.682 30.6762L201.642 29.5238C201.235 29.1847 200.885 28.8331 200.588 28.4701L199.427 29.4199ZM200.712 30.7C201.238 31.0944 201.889 31.4026 202.641 31.6402L203.093 30.2098C202.452 30.0074 201.966 29.7656 201.612 29.5L200.712 30.7ZM202.676 31.6503C203.449 31.8538 204.323 31.95 205.287 31.95V30.45C204.418 30.45 203.678 30.3629 203.058 30.1997L202.676 31.6503ZM205.287 31.95C207.021 31.95 208.453 31.7267 209.517 31.2161L208.868 29.8639C208.098 30.2333 206.926 30.45 205.287 30.45V31.95ZM209.538 31.2054C210.621 30.6424 211.317 29.7833 211.317 28.615H209.817C209.817 29.06 209.597 29.4843 208.846 29.8746L209.538 31.2054ZM211.317 28.615C211.317 27.7492 210.945 27.023 210.26 26.4853L209.334 27.6647C209.676 27.9337 209.817 28.2342 209.817 28.615H211.317ZM210.282 26.5025C209.677 25.9909 208.722 25.5896 207.525 25.253L207.119 26.697C208.269 27.0204 208.964 27.3524 209.313 27.6475L210.282 26.5025ZM207.525 25.253C206.319 24.9138 204.698 24.5606 202.671 24.1921L202.403 25.6679C204.41 26.0328 205.978 26.3762 207.119 26.697L207.525 25.253ZM202.662 24.1905C199.885 23.7216 197.51 23.0401 195.528 22.1551L194.916 23.5249C197.041 24.4732 199.543 25.1851 202.412 25.6695L202.662 24.1905ZM195.538 22.1597C193.583 21.2522 192.119 20.0659 191.107 18.6159L189.877 19.4741C191.065 21.1774 192.754 22.5211 194.906 23.5203L195.538 22.1597ZM191.118 18.6323C190.152 17.1655 189.647 15.3367 189.647 13.105H188.147C188.147 15.5666 188.706 17.6978 189.866 19.4577L191.118 18.6323ZM189.647 13.105C189.647 10.8698 190.263 8.91666 191.486 7.21823L190.268 6.34177C188.851 8.31001 188.147 10.5736 188.147 13.105H189.647ZM191.48 7.22613C192.747 5.51333 194.505 4.1604 196.784 3.17881L196.19 1.80119C193.702 2.87292 191.72 4.38 190.274 6.33387L191.48 7.22613ZM196.78 3.18043C199.09 2.20051 201.792 1.7 204.902 1.7V0.199998C201.632 0.199998 198.724 0.72615 196.194 1.79956L196.78 3.18043ZM204.902 1.7C207.478 1.7 209.72 2.04002 211.642 2.70389L212.132 1.2861C210.02 0.556642 207.606 0.199998 204.902 0.199998V1.7ZM211.646 2.70523C213.632 3.37889 215.272 4.25639 216.583 5.32615L217.531 4.16385C216.056 2.96027 214.249 2.00444 212.128 1.28476L211.646 2.70523ZM216.592 5.33366C217.925 6.38579 218.919 7.5072 219.596 8.6921L220.898 7.94789C220.109 6.56614 218.976 5.30421 217.522 4.15634L216.592 5.33366ZM219.596 8.6921C220.284 9.896 220.62 11.0053 220.652 12.0284L222.152 11.9816C222.11 10.658 221.677 9.31066 220.898 7.94789L219.596 8.6921ZM220.652 12.005C220.652 12.1153 220.618 12.2232 220.487 12.3547L221.547 13.4153C221.929 13.0335 222.152 12.5547 222.152 12.005H220.652ZM220.487 12.3547C220.398 12.4435 220.329 12.465 220.247 12.465V13.965C220.752 13.965 221.196 13.7665 221.547 13.4153L220.487 12.3547ZM220.247 12.465H211.062V13.965H220.247V12.465ZM211.062 12.465C210.701 12.465 210.457 12.4041 210.298 12.3242L209.627 13.6658C210.053 13.8792 210.544 13.965 211.062 13.965V12.465ZM210.298 12.3242C210.113 12.2322 209.893 12.0636 209.643 11.7817L208.522 12.7783C208.858 13.1564 209.224 13.4645 209.627 13.6658L210.298 12.3242ZM209.788 12.0277C209.518 11.2699 208.88 10.694 208.069 10.2478L207.346 11.5622C208.001 11.9227 208.28 12.2634 208.376 12.5323L209.788 12.0277ZM208.069 10.2478C207.192 9.76568 206.122 9.55 204.902 9.55V11.05C205.956 11.05 206.756 11.2377 207.346 11.5622L208.069 10.2478ZM204.902 9.55C203.585 9.55 202.461 9.77923 201.626 10.336L202.458 11.584C202.943 11.2608 203.726 11.05 204.902 11.05V9.55ZM201.651 10.32C200.757 10.8666 200.302 11.7207 200.302 12.775H201.802C201.802 12.216 202.008 11.8601 202.433 11.6L201.651 10.32ZM200.302 12.775C200.302 13.532 200.589 14.1972 201.127 14.7353L202.187 13.6747C201.919 13.4062 201.802 13.118 201.802 12.775H200.302ZM201.127 14.7353C201.66 15.2686 202.516 15.6795 203.573 16.019L204.032 14.591C203.034 14.2705 202.461 13.948 202.187 13.6747L201.127 14.7353ZM203.596 16.0261C204.651 16.3277 206.104 16.6623 207.945 17.0304L208.239 15.5596C206.413 15.1944 205.006 14.869 204.008 14.5839L203.596 16.0261ZM207.983 17.037C211.429 17.5448 214.16 18.2647 216.2 19.1794L216.814 17.8106C214.601 16.8187 211.722 16.0718 208.201 15.553L207.983 17.037ZM216.205 19.1813C218.272 20.0924 219.716 21.2558 220.606 22.6406L221.868 21.8294C220.778 20.1342 219.069 18.8042 216.81 17.8087L216.205 19.1813ZM220.606 22.6406C221.5 24.0315 221.972 25.8064 221.972 28.01H223.472C223.472 25.5936 222.954 23.5185 221.868 21.8294L220.606 22.6406ZM221.972 28.01C221.972 30.4579 221.269 32.5249 219.883 34.2501L221.052 35.1899C222.671 33.1751 223.472 30.7687 223.472 28.01H221.972ZM219.883 34.2501C218.475 36.0005 216.52 37.3783 213.98 38.366L214.524 39.764C217.264 38.6983 219.452 37.1795 221.052 35.1899L219.883 34.2501ZM213.986 38.364C211.483 39.3156 208.588 39.8 205.287 39.8V41.3C208.733 41.3 211.814 40.7944 214.519 39.766L213.986 38.364ZM235.969 39.615L235.404 40.1089L235.437 40.1465L235.475 40.1794L235.969 39.615ZM235.584 11.73H236.334V10.98H235.584V11.73ZM225.079 11.345L224.514 11.8389L224.547 11.8765L224.585 11.9094L225.079 11.345ZM225.079 1.94L225.609 2.47033L225.609 2.47033L225.079 1.94ZM258.024 1.94L257.459 2.43387L257.492 2.47151L257.53 2.50443L258.024 1.94ZM258.024 11.345L257.494 10.8147L257.494 10.8147L258.024 11.345ZM247.574 11.73V10.98H246.824V11.73H247.574ZM247.134 39.615L246.604 39.0847L246.604 39.0847L247.134 39.615ZM237.014 39.25C236.785 39.25 236.614 39.1831 236.463 39.0506L235.475 40.1794C235.91 40.5602 236.436 40.75 237.014 40.75V39.25ZM236.533 39.1211C236.401 38.9696 236.334 38.7986 236.334 38.57H234.834C234.834 39.1481 235.024 39.6737 235.404 40.1089L236.533 39.1211ZM236.334 38.57V11.73H234.834V38.57H236.334ZM235.584 10.98H226.124V12.48H235.584V10.98ZM226.124 10.98C225.895 10.98 225.724 10.9131 225.573 10.7806L224.585 11.9094C225.02 12.2902 225.546 12.48 226.124 12.48V10.98ZM225.643 10.8511C225.511 10.6996 225.444 10.5286 225.444 10.3H223.944C223.944 10.8781 224.134 11.4037 224.514 11.8389L225.643 10.8511ZM225.444 10.3V2.93H223.944V10.3H225.444ZM225.444 2.93C225.444 2.70135 225.509 2.57009 225.609 2.47033L224.549 1.40967C224.135 1.82324 223.944 2.35198 223.944 2.93H225.444ZM225.609 2.47033C225.766 2.31316 225.926 2.25 226.124 2.25V0.749997C225.515 0.749997 224.978 0.980171 224.549 1.40967L225.609 2.47033ZM226.124 2.25H257.034V0.749997H226.124V2.25ZM257.034 2.25C257.23 2.25 257.351 2.30966 257.459 2.43387L258.588 1.44612C258.184 0.983668 257.645 0.749997 257.034 0.749997V2.25ZM257.53 2.50443C257.654 2.61312 257.714 2.73434 257.714 2.93H259.214C259.214 2.31899 258.98 1.78021 258.518 1.37556L257.53 2.50443ZM257.714 2.93V10.3H259.214V2.93H257.714ZM257.714 10.3C257.714 10.4982 257.651 10.6575 257.494 10.8147L258.554 11.8753C258.984 11.4458 259.214 10.9085 259.214 10.3H257.714ZM257.494 10.8147C257.394 10.9144 257.263 10.98 257.034 10.98V12.48C257.612 12.48 258.141 12.2889 258.554 11.8753L257.494 10.8147ZM257.034 10.98H247.574V12.48H257.034V10.98ZM246.824 11.73V38.57H248.324V11.73H246.824ZM246.824 38.57C246.824 38.7682 246.761 38.9275 246.604 39.0847L247.664 40.1453C248.094 39.7158 248.324 39.1785 248.324 38.57H246.824ZM246.604 39.0847C246.504 39.1844 246.373 39.25 246.144 39.25V40.75C246.722 40.75 247.251 40.5589 247.664 40.1453L246.604 39.0847ZM246.144 39.25H237.014V40.75H246.144V39.25Z" fill="white"/>
</svg>
