<svg width="185" height="41" viewBox="0 0 185 41" fill="none" xmlns="http://www.w3.org/2000/svg">
<path d="M8.65916 38.955L8.36007 39.6429L8.37211 39.6479L8.65916 38.955ZM2.93916 34.72L2.32714 35.1535L2.3323 35.1608L2.33763 35.1679L2.93916 34.72ZM0.95916 29.165H0.20916V29.1791L0.209694 29.1933L0.95916 29.165ZM12.0692 28.285L11.6717 28.921L11.7019 28.9399L11.7338 28.9558L12.0692 28.285ZM13.0042 28.945L13.5846 28.4701L13.5469 28.424L13.5024 28.3844L13.0042 28.945ZM14.1592 30.1L13.679 30.6762L13.6938 30.6885L13.7092 30.7L14.1592 30.1ZM15.8642 30.925L15.6383 31.6402L15.6557 31.6457L15.6733 31.6503L15.8642 30.925ZM22.1892 30.54L22.5137 31.2161L22.5245 31.2109L22.5352 31.2054L22.1892 30.54ZM22.7942 27.075L22.3097 27.6475L22.3201 27.6563L22.3308 27.6647L22.7942 27.075ZM20.3192 25.975L20.5222 25.253L20.5222 25.253L20.3192 25.975ZM15.5342 24.93L15.6683 24.192L15.659 24.1905L15.5342 24.93ZM8.21916 22.84L7.90329 23.5203L7.91342 23.5249L8.21916 22.84ZM3.48916 19.045L2.86294 19.4577L2.86839 19.466L2.87407 19.4741L3.48916 19.045ZM3.87416 6.78L3.27123 6.33383L3.26551 6.34177L3.87416 6.78ZM9.48416 2.49L9.19124 1.79955L9.18744 1.80119L9.48416 2.49ZM24.8842 1.995L24.6393 2.7039L24.6432 2.70523L24.8842 1.995ZM30.0542 4.745L29.58 5.32622L29.5894 5.33366L30.0542 4.745ZM33.2442 8.32L32.593 8.6921L32.593 8.6921L33.2442 8.32ZM34.3992 12.005H35.1492V11.9933L35.1488 11.9816L34.3992 12.005ZM34.0142 12.885L33.4838 12.3547L33.4838 12.3547L34.0142 12.885ZM22.9592 12.995L23.2946 12.3242L23.2946 12.3242L22.9592 12.995ZM22.0792 12.28L21.3729 12.5323L21.4218 12.6694L21.5186 12.7783L22.0792 12.28ZM20.7042 10.905L21.0656 10.2478L21.0656 10.2478L20.7042 10.905ZM15.0392 10.96L15.4302 11.6L15.4429 11.5922L15.4552 11.584L15.0392 10.96ZM14.6542 14.205L14.1238 14.7353L14.1238 14.7353L14.6542 14.205ZM16.7992 15.305L16.5697 16.019L16.5813 16.0228L16.5931 16.0261L16.7992 15.305ZM21.0892 16.295L20.9421 17.0304L20.9609 17.0342L20.9798 17.037L21.0892 16.295ZM29.5042 18.495L29.1974 19.1794L29.2017 19.1813L29.5042 18.495ZM34.2342 22.235L33.6033 22.6406L33.6033 22.6406L34.2342 22.235ZM27.2492 39.065L27.5158 39.766L27.521 39.764L27.2492 39.065ZM18.2842 39.8C14.4972 39.8 11.394 39.2762 8.94622 38.2621L8.37211 39.6479C11.0576 40.7605 14.3711 41.3 18.2842 41.3V39.8ZM8.95821 38.2672C6.51488 37.2049 4.72667 35.8646 3.54069 34.2721L2.33763 35.1679C3.71832 37.022 5.74344 38.5051 8.36012 39.6428L8.95821 38.2672ZM3.55118 34.2865C2.37919 32.6319 1.77588 30.9189 1.70863 29.1367L0.209694 29.1933C0.28911 31.2978 1.0058 33.2881 2.32714 35.1535L3.55118 34.2865ZM1.70916 29.165C1.70916 29.0205 1.74934 28.9405 1.81949 28.8703L0.75883 27.8097C0.388983 28.1795 0.20916 28.6495 0.20916 29.165H1.70916ZM1.81949 28.8703C1.88964 28.8002 1.96968 28.76 2.11416 28.76V27.26C1.59864 27.26 1.12868 27.4398 0.75883 27.8097L1.81949 28.8703ZM2.11416 28.76H10.8592V27.26H2.11416V28.76ZM10.8592 28.76C11.2956 28.76 11.542 28.8399 11.6717 28.921L12.4667 27.649C12.0097 27.3634 11.4494 27.26 10.8592 27.26V28.76ZM11.7338 28.9558C11.9519 29.0649 12.2093 29.2419 12.5059 29.5056L13.5024 28.3844C13.139 28.0614 12.7731 27.7984 12.4046 27.6142L11.7338 28.9558ZM12.4237 29.4199C12.7866 29.8635 13.206 30.282 13.679 30.6762L14.6393 29.5238C14.2323 29.1847 13.8817 28.8331 13.5846 28.4701L12.4237 29.4199ZM13.7092 30.7C14.235 31.0944 14.8858 31.4026 15.6383 31.6402L16.09 30.2098C15.4491 30.0074 14.9634 29.7656 14.6092 29.5L13.7092 30.7ZM15.6733 31.6503C16.4465 31.8538 17.3197 31.95 18.2842 31.95V30.45C17.4153 30.45 16.6752 30.3629 16.055 30.1997L15.6733 31.6503ZM18.2842 31.95C20.0183 31.95 21.4501 31.7267 22.5137 31.2161L21.8646 29.8639C21.0948 30.2333 19.9234 30.45 18.2842 30.45V31.95ZM22.5352 31.2054C23.618 30.6424 24.3142 29.7833 24.3142 28.615H22.8142C22.8142 29.06 22.5937 29.4843 21.8431 29.8746L22.5352 31.2054ZM24.3142 28.615C24.3142 27.7492 23.9419 27.023 23.2575 26.4853L22.3308 27.6647C22.6731 27.9337 22.8142 28.2342 22.8142 28.615H24.3142ZM23.2786 26.5025C22.6741 25.9909 21.719 25.5896 20.5222 25.253L20.1161 26.697C21.266 27.0204 21.9609 27.3524 22.3097 27.6475L23.2786 26.5025ZM20.5222 25.253C19.3161 24.9138 17.6949 24.5606 15.6683 24.1921L15.4 25.6679C17.4068 26.0328 18.9756 26.3762 20.1161 26.697L20.5222 25.253ZM15.659 24.1905C12.882 23.7216 10.5073 23.0401 8.5249 22.1551L7.91342 23.5249C10.0377 24.4732 12.5397 25.1851 15.4093 25.6695L15.659 24.1905ZM8.53499 22.1597C6.58034 21.2522 5.11593 20.0659 4.10426 18.6159L2.87407 19.4741C4.06239 21.1774 5.75131 22.5211 7.90333 23.5203L8.53499 22.1597ZM4.11538 18.6323C3.14866 17.1655 2.64416 15.3367 2.64416 13.105H1.14416C1.14416 15.5666 1.70299 17.6978 2.86294 19.4577L4.11538 18.6323ZM2.64416 13.105C2.64416 10.8698 3.25994 8.91666 4.48281 7.21823L3.26551 6.34177C1.84838 8.31001 1.14416 10.5736 1.14416 13.105H2.64416ZM4.47704 7.22613C5.74452 5.51333 7.50217 4.1604 9.78088 3.17881L9.18744 1.80119C6.69948 2.87292 4.71714 4.38 3.27128 6.33387L4.47704 7.22613ZM9.77707 3.18043C12.0869 2.20051 14.7888 1.7 17.8992 1.7V0.199998C14.6295 0.199998 11.7214 0.72615 9.19125 1.79956L9.77707 3.18043ZM17.8992 1.7C20.4748 1.7 22.7175 2.04002 24.6393 2.70389L25.1291 1.2861C23.0174 0.556642 20.6035 0.199998 17.8992 0.199998V1.7ZM24.6432 2.70523C26.6287 3.37889 28.2688 4.25639 29.5801 5.32615L30.5283 4.16385C29.0529 2.96027 27.2463 2.00444 25.1251 1.28476L24.6432 2.70523ZM29.5894 5.33366C30.9221 6.38579 31.9159 7.5072 32.593 8.6921L33.8953 7.94789C33.1058 6.56614 31.9729 5.30421 30.5189 4.15634L29.5894 5.33366ZM32.593 8.6921C33.2809 9.896 33.6176 11.0053 33.6495 12.0284L35.1488 11.9816C35.1074 10.658 34.6741 9.31066 33.8953 7.94789L32.593 8.6921ZM33.6492 12.005C33.6492 12.1153 33.6153 12.2232 33.4838 12.3547L34.5445 13.4153C34.9264 13.0335 35.1492 12.5547 35.1492 12.005H33.6492ZM33.4838 12.3547C33.395 12.4435 33.3256 12.465 33.2442 12.465V13.965C33.7494 13.965 34.1933 13.7665 34.5445 13.4153L33.4838 12.3547ZM33.2442 12.465H24.0592V13.965H33.2442V12.465ZM24.0592 12.465C23.6976 12.465 23.4544 12.4041 23.2946 12.3242L22.6238 13.6658C23.0506 13.8792 23.5407 13.965 24.0592 13.965V12.465ZM23.2946 12.3242C23.1105 12.2322 22.8903 12.0636 22.6397 11.7817L21.5186 12.7783C21.8547 13.1564 22.2211 13.4645 22.6238 13.6658L23.2946 12.3242ZM22.7855 12.0277C22.5148 11.2699 21.8768 10.694 21.0656 10.2478L20.3427 11.5622C20.9982 11.9227 21.2768 12.2634 21.3729 12.5323L22.7855 12.0277ZM21.0656 10.2478C20.1889 9.76568 19.1189 9.55 17.8992 9.55V11.05C18.9528 11.05 19.7527 11.2377 20.3427 11.5622L21.0656 10.2478ZM17.8992 9.55C16.5824 9.55 15.4582 9.77923 14.6231 10.336L15.4552 11.584C15.9401 11.2608 16.7226 11.05 17.8992 11.05V9.55ZM14.6481 10.32C13.7537 10.8666 13.2992 11.7207 13.2992 12.775H14.7992C14.7992 12.216 15.0046 11.8601 15.4302 11.6L14.6481 10.32ZM13.2992 12.775C13.2992 13.532 13.5857 14.1972 14.1238 14.7353L15.1845 13.6747C14.916 13.4062 14.7992 13.118 14.7992 12.775H13.2992ZM14.1238 14.7353C14.6571 15.2686 15.5135 15.6795 16.5697 16.019L17.0287 14.591C16.0315 14.2705 15.4578 13.948 15.1845 13.6747L14.1238 14.7353ZM16.5931 16.0261C17.6484 16.3277 19.1012 16.6623 20.9421 17.0304L21.2362 15.5596C19.4104 15.1944 18.0032 14.869 17.0052 14.5839L16.5931 16.0261ZM20.9798 17.037C24.426 17.5448 27.1569 18.2647 29.1974 19.1794L29.811 17.8106C27.5981 16.8187 24.719 16.0718 21.1985 15.553L20.9798 17.037ZM29.2017 19.1813C31.2692 20.0924 32.7131 21.2558 33.6033 22.6406L34.865 21.8294C33.7753 20.1342 32.0658 18.8042 29.8066 17.8087L29.2017 19.1813ZM33.6033 22.6406C34.4975 24.0315 34.9692 25.8064 34.9692 28.01H36.4692C36.4692 25.5936 35.9509 23.5185 34.865 21.8294L33.6033 22.6406ZM34.9692 28.01C34.9692 30.4579 34.2665 32.5249 32.8796 34.2501L34.0487 35.1899C35.6685 33.1751 36.4692 30.7687 36.4692 28.01H34.9692ZM32.8796 34.2501C31.4724 36.0005 29.5171 37.3783 26.9773 38.366L27.521 39.764C30.2613 38.6983 32.4492 37.1795 34.0487 35.1899L32.8796 34.2501ZM26.9826 38.364C24.4803 39.3156 21.5851 39.8 18.2842 39.8V41.3C21.7299 41.3 24.8114 40.7944 27.5157 39.766L26.9826 38.364ZM48.966 39.615L48.4016 40.1089L48.4345 40.1465L48.4721 40.1794L48.966 39.615ZM48.581 11.73H49.331V10.98H48.581V11.73ZM38.076 11.345L37.5116 11.8389L37.5445 11.8765L37.5821 11.9094L38.076 11.345ZM38.076 1.94L38.6063 2.47033L38.6063 2.47033L38.076 1.94ZM71.021 1.94L70.4566 2.43387L70.4895 2.47151L70.5271 2.50443L71.021 1.94ZM71.021 11.345L70.4907 10.8147L70.4907 10.8147L71.021 11.345ZM60.571 11.73V10.98H59.821V11.73H60.571ZM60.131 39.615L59.6007 39.0847L59.6007 39.0847L60.131 39.615ZM50.011 39.25C49.7824 39.25 49.6114 39.1831 49.4599 39.0506L48.4721 40.1794C48.9073 40.5602 49.4329 40.75 50.011 40.75V39.25ZM49.5304 39.1211C49.3979 38.9696 49.331 38.7986 49.331 38.57H47.831C47.831 39.1481 48.0208 39.6737 48.4016 40.1089L49.5304 39.1211ZM49.331 38.57V11.73H47.831V38.57H49.331ZM48.581 10.98H39.121V12.48H48.581V10.98ZM39.121 10.98C38.8924 10.98 38.7214 10.9131 38.5699 10.7806L37.5821 11.9094C38.0173 12.2902 38.5429 12.48 39.121 12.48V10.98ZM38.6404 10.8511C38.5079 10.6996 38.441 10.5286 38.441 10.3H36.941C36.941 10.8781 37.1308 11.4037 37.5116 11.8389L38.6404 10.8511ZM38.441 10.3V2.93H36.941V10.3H38.441ZM38.441 2.93C38.441 2.70135 38.5066 2.57009 38.6063 2.47033L37.5457 1.40967C37.1321 1.82324 36.941 2.35198 36.941 2.93H38.441ZM38.6063 2.47033C38.7635 2.31316 38.9228 2.25 39.121 2.25V0.749997C38.5125 0.749997 37.9752 0.980171 37.5457 1.40967L38.6063 2.47033ZM39.121 2.25H70.031V0.749997H39.121V2.25ZM70.031 2.25C70.2267 2.25 70.3479 2.30966 70.4566 2.43387L71.5854 1.44612C71.1808 0.983668 70.642 0.749997 70.031 0.749997V2.25ZM70.5271 2.50443C70.6513 2.61312 70.711 2.73434 70.711 2.93H72.211C72.211 2.31899 71.9773 1.78021 71.5149 1.37556L70.5271 2.50443ZM70.711 2.93V10.3H72.211V2.93H70.711ZM70.711 10.3C70.711 10.4982 70.6478 10.6575 70.4907 10.8147L71.5513 11.8753C71.9808 11.4458 72.211 10.9085 72.211 10.3H70.711ZM70.4907 10.8147C70.3909 10.9144 70.2596 10.98 70.031 10.98V12.48C70.609 12.48 71.1378 12.2889 71.5513 11.8753L70.4907 10.8147ZM70.031 10.98H60.571V12.48H70.031V10.98ZM59.821 11.73V38.57H61.321V11.73H59.821ZM59.821 38.57C59.821 38.7682 59.7578 38.9275 59.6007 39.0847L60.6613 40.1453C61.0908 39.7158 61.321 39.1785 61.321 38.57H59.821ZM59.6007 39.0847C59.5009 39.1844 59.3696 39.25 59.141 39.25V40.75C59.719 40.75 60.2478 40.5589 60.6613 40.1453L59.6007 39.0847ZM59.141 39.25H50.011V40.75H59.141V39.25ZM69.2627 39.67L68.6933 40.1581L68.712 40.18L68.7324 40.2003L69.2627 39.67ZM68.9877 38.405L68.2812 38.1533L68.2786 38.1605L68.2762 38.1678L68.9877 38.405ZM81.5277 3.205L80.8229 2.94869L80.8212 2.95331L81.5277 3.205ZM82.2977 2.05L81.7674 1.51967L81.7674 1.51967L82.2977 2.05ZM95.4977 2.05L96.028 1.51967L96.028 1.51967L95.4977 2.05ZM96.2127 3.205L95.4891 3.40234L95.4968 3.43034L95.5066 3.45767L96.2127 3.205ZM108.808 38.405L109.519 38.1678L109.517 38.1601L109.514 38.1523L108.808 38.405ZM108.478 39.67L109.008 40.2003L109.008 40.2003L108.478 39.67ZM97.2027 38.735L96.4991 38.9947L96.5058 39.0127L96.5134 39.0304L97.2027 38.735ZM95.4977 34.115L96.2013 33.8553L96.0204 33.365H95.4977V34.115ZM82.2427 34.115V33.365H81.7201L81.5391 33.8553L82.2427 34.115ZM80.5377 38.735L81.2271 39.0304L81.2347 39.0127L81.2413 38.9947L80.5377 38.735ZM79.9327 39.56L79.4024 39.0297L79.3847 39.0473L79.3683 39.0661L79.9327 39.56ZM84.7727 24.82L84.0603 24.5857L83.7365 25.57H84.7727V24.82ZM92.9677 24.82V25.57H94.0083L93.6792 24.5828L92.9677 24.82ZM88.8427 12.445L89.5542 12.2078L88.8379 10.059L88.1303 12.2107L88.8427 12.445ZM70.0877 39.25C69.9432 39.25 69.8632 39.2098 69.793 39.1397L68.7324 40.2003C69.1022 40.5702 69.5722 40.75 70.0877 40.75V39.25ZM69.8322 39.1819C69.7256 39.0575 69.6827 38.9362 69.6827 38.79H68.1827C68.1827 39.3038 68.3599 39.7691 68.6933 40.1581L69.8322 39.1819ZM69.6827 38.79C69.6827 38.7036 69.6938 38.6585 69.6992 38.6422L68.2762 38.1678C68.2083 38.3715 68.1827 38.5831 68.1827 38.79H69.6827ZM69.6942 38.6567L82.2342 3.45669L80.8212 2.95331L68.2812 38.1533L69.6942 38.6567ZM82.2326 3.46131C82.3348 3.18015 82.523 2.88537 82.828 2.58033L81.7674 1.51967C81.3391 1.94797 81.014 2.42318 80.8229 2.94869L82.2326 3.46131ZM82.828 2.58033C83.0183 2.39004 83.3197 2.25 83.8377 2.25V0.749997C83.0358 0.749997 82.3104 0.976623 81.7674 1.51967L82.828 2.58033ZM83.8377 2.25H93.9027V0.749997H83.8377V2.25ZM93.9027 2.25C94.4709 2.25 94.7844 2.3973 94.9674 2.58033L96.028 1.51967C95.4777 0.969361 94.7279 0.749997 93.9027 0.749997V2.25ZM94.9674 2.58033C95.2637 2.87666 95.4208 3.15183 95.4891 3.40234L96.9363 3.00766C96.7846 2.4515 96.4651 1.95667 96.028 1.51967L94.9674 2.58033ZM95.5066 3.45767L108.102 38.6577L109.514 38.1523L96.9189 2.95233L95.5066 3.45767ZM108.096 38.6422C108.102 38.6585 108.113 38.7036 108.113 38.79H109.613C109.613 38.5831 109.587 38.3715 109.519 38.1678L108.096 38.6422ZM108.113 38.79C108.113 38.9003 108.079 39.0082 107.947 39.1397L109.008 40.2003C109.39 39.8185 109.613 39.3397 109.613 38.79H108.113ZM107.947 39.1397C107.877 39.2098 107.797 39.25 107.653 39.25V40.75C108.168 40.75 108.638 40.5702 109.008 40.2003L107.947 39.1397ZM107.653 39.25H99.1827V40.75H107.653V39.25ZM99.1827 39.25C98.6596 39.25 98.4336 39.1253 98.338 39.0297L97.2774 40.0903C97.7685 40.5814 98.4592 40.75 99.1827 40.75V39.25ZM98.338 39.0297C98.0825 38.7741 97.9509 38.5768 97.8921 38.4396L96.5134 39.0304C96.6746 39.4066 96.9463 39.7592 97.2774 40.0903L98.338 39.0297ZM97.9063 38.4753L96.2013 33.8553L94.7941 34.3747L96.4991 38.9947L97.9063 38.4753ZM95.4977 33.365H82.2427V34.865H95.4977V33.365ZM81.5391 33.8553L79.8341 38.4753L81.2413 38.9947L82.9463 34.3747L81.5391 33.8553ZM79.8484 38.4396C79.7896 38.5768 79.658 38.7741 79.4024 39.0297L80.463 40.0903C80.7941 39.7592 81.0659 39.4066 81.2271 39.0304L79.8484 38.4396ZM79.3683 39.0661C79.3272 39.1131 79.1452 39.25 78.5577 39.25V40.75C79.2902 40.75 80.0249 40.5936 80.4971 40.0539L79.3683 39.0661ZM78.5577 39.25H70.0877V40.75H78.5577V39.25ZM84.7727 25.57H92.9677V24.07H84.7727V25.57ZM93.6792 24.5828L89.5542 12.2078L88.1312 12.6822L92.2562 25.0572L93.6792 24.5828ZM88.1303 12.2107L84.0603 24.5857L85.4852 25.0543L89.5552 12.6793L88.1303 12.2107ZM112.952 39.615L112.422 40.1453L112.439 40.163L112.458 40.1794L112.952 39.615ZM112.952 1.94L113.446 2.50443L113.465 2.48799L113.482 2.47033L112.952 1.94ZM141.332 4.91L140.862 5.49418L140.865 5.49712L141.332 4.91ZM139.242 25.205L138.886 24.5446L138.22 24.9036L138.585 25.5669L139.242 25.205ZM146.392 38.185L147.063 37.8496L147.056 37.8362L147.049 37.8231L146.392 38.185ZM146.227 39.67L146.757 40.2003L146.778 40.18L146.796 40.1581L146.227 39.67ZM134.512 39.505L133.982 40.0353L133.996 40.0493L134.01 40.0625L134.512 39.505ZM133.797 38.515L134.499 38.2517L134.487 38.2189L134.472 38.1875L133.797 38.515ZM128.297 27.185L128.972 26.8575L128.767 26.435H128.297V27.185ZM124.337 27.185V26.435H123.587V27.185H124.337ZM123.897 39.615L124.427 40.1453L124.427 40.1453L123.897 39.615ZM124.337 18.11H123.587V18.86H124.337V18.11ZM132.422 17.065L132.981 17.5651L132.987 17.558L132.994 17.5507L132.422 17.065ZM132.422 11.565L131.825 12.0195L131.832 12.0283L131.839 12.0369L132.422 11.565ZM124.337 10.41V9.66H123.587V10.41H124.337ZM113.942 39.25C113.769 39.25 113.612 39.1958 113.446 39.0506L112.458 40.1794C112.879 40.5475 113.382 40.75 113.942 40.75V39.25ZM113.482 39.0847C113.325 38.9275 113.262 38.7682 113.262 38.57H111.762C111.762 39.1785 111.992 39.7158 112.422 40.1453L113.482 39.0847ZM113.262 38.57V2.93H111.762V38.57H113.262ZM113.262 2.93C113.262 2.73434 113.322 2.61312 113.446 2.50443L112.458 1.37556C111.996 1.78021 111.762 2.31899 111.762 2.93H113.262ZM113.482 2.47033C113.655 2.29751 113.801 2.25 113.942 2.25V0.749997C113.35 0.749997 112.836 0.995818 112.422 1.40967L113.482 2.47033ZM113.942 2.25H129.617V0.749997H113.942V2.25ZM129.617 2.25C134.496 2.25 138.214 3.36224 140.862 5.49417L141.802 4.32583C138.803 1.91108 134.711 0.749997 129.617 0.749997V2.25ZM140.865 5.49712C143.524 7.61067 144.872 10.554 144.872 14.425H146.372C146.372 10.156 144.86 6.75599 141.799 4.32288L140.865 5.49712ZM144.872 14.425C144.872 16.875 144.313 18.9074 143.234 20.5599L144.49 21.3801C145.757 19.4393 146.372 17.1084 146.372 14.425H144.872ZM143.234 20.5599C142.13 22.2507 140.684 23.5768 138.886 24.5446L139.598 25.8654C141.614 24.7799 143.248 23.2826 144.49 21.3801L143.234 20.5599ZM138.585 25.5669L145.735 38.5469L147.049 37.8231L139.899 24.8431L138.585 25.5669ZM145.721 38.5204C145.796 38.6702 145.807 38.7559 145.807 38.79H147.307C147.307 38.4574 147.208 38.1398 147.063 37.8496L145.721 38.5204ZM145.807 38.79C145.807 38.9362 145.764 39.0575 145.658 39.1819L146.796 40.1581C147.13 39.7691 147.307 39.3038 147.307 38.79H145.807ZM145.697 39.1397C145.627 39.2098 145.547 39.25 145.402 39.25V40.75C145.918 40.75 146.388 40.5702 146.757 40.2003L145.697 39.1397ZM145.402 39.25H136.107V40.75H145.402V39.25ZM136.107 39.25C135.52 39.25 135.195 39.1107 135.014 38.9475L134.01 40.0625C134.562 40.5593 135.301 40.75 136.107 40.75V39.25ZM135.042 38.9747C134.708 38.6403 134.555 38.3999 134.499 38.2517L133.095 38.7783C133.259 39.2168 133.583 39.6363 133.982 40.0353L135.042 38.9747ZM134.472 38.1875L128.972 26.8575L127.622 27.5125L133.122 38.8425L134.472 38.1875ZM128.297 26.435H124.337V27.935H128.297V26.435ZM123.587 27.185V38.57H125.087V27.185H123.587ZM123.587 38.57C123.587 38.7682 123.524 38.9275 123.367 39.0847L124.427 40.1453C124.857 39.7158 125.087 39.1785 125.087 38.57H123.587ZM123.367 39.0847C123.267 39.1844 123.136 39.25 122.907 39.25V40.75C123.485 40.75 124.014 40.5589 124.427 40.1453L123.367 39.0847ZM122.907 39.25H113.942V40.75H122.907V39.25ZM124.337 18.86H129.562V17.36H124.337V18.86ZM129.562 18.86C130.976 18.86 132.168 18.4735 132.981 17.5651L131.863 16.5649C131.429 17.0498 130.715 17.36 129.562 17.36V18.86ZM132.994 17.5507C133.744 16.6673 134.107 15.5913 134.107 14.37H132.607C132.607 15.2753 132.346 15.996 131.851 16.5793L132.994 17.5507ZM134.107 14.37C134.107 13.1184 133.748 12.0115 133.005 11.0931L131.839 12.0369C132.342 12.6585 132.607 13.4216 132.607 14.37H134.107ZM133.019 11.1105C132.243 10.092 131.025 9.66 129.562 9.66V11.16C130.739 11.16 131.428 11.498 131.825 12.0195L133.019 11.1105ZM129.562 9.66H124.337V11.16H129.562V9.66ZM123.587 10.41V18.11H125.087V10.41H123.587ZM157.009 38.955L156.71 39.6429L156.722 39.6479L157.009 38.955ZM151.289 34.72L150.677 35.1535L150.682 35.1608L150.687 35.1679L151.289 34.72ZM149.309 29.165H148.559V29.1791L148.559 29.1933L149.309 29.165ZM160.419 28.285L160.021 28.921L160.051 28.9399L160.083 28.9558L160.419 28.285ZM161.354 28.945L161.934 28.4701L161.897 28.424L161.852 28.3844L161.354 28.945ZM162.509 30.1L162.029 30.6762L162.043 30.6885L162.059 30.7L162.509 30.1ZM164.214 30.925L163.988 31.6402L164.005 31.6457L164.023 31.6503L164.214 30.925ZM170.539 30.54L170.863 31.2161L170.874 31.2109L170.885 31.2054L170.539 30.54ZM171.144 27.075L170.659 27.6475L170.67 27.6563L170.68 27.6647L171.144 27.075ZM168.669 25.975L168.872 25.253L168.872 25.253L168.669 25.975ZM163.884 24.93L164.018 24.192L164.009 24.1905L163.884 24.93ZM156.569 22.84L156.253 23.5203L156.263 23.5249L156.569 22.84ZM151.839 19.045L151.213 19.4577L151.218 19.466L151.224 19.4741L151.839 19.045ZM152.224 6.78L151.621 6.33383L151.615 6.34177L152.224 6.78ZM157.834 2.49L157.541 1.79955L157.537 1.80119L157.834 2.49ZM173.234 1.995L172.989 2.7039L172.993 2.70523L173.234 1.995ZM178.404 4.745L177.93 5.32622L177.939 5.33366L178.404 4.745ZM181.594 8.32L180.943 8.6921L180.943 8.6921L181.594 8.32ZM182.749 12.005H183.499V11.9933L183.498 11.9816L182.749 12.005ZM182.364 12.885L181.833 12.3547L181.833 12.3547L182.364 12.885ZM171.309 12.995L171.644 12.3242L171.644 12.3242L171.309 12.995ZM170.429 12.28L169.722 12.5323L169.771 12.6694L169.868 12.7783L170.429 12.28ZM169.054 10.905L169.415 10.2478L169.415 10.2478L169.054 10.905ZM163.389 10.96L163.78 11.6L163.792 11.5922L163.805 11.584L163.389 10.96ZM163.004 14.205L162.473 14.7353L162.473 14.7353L163.004 14.205ZM165.149 15.305L164.919 16.019L164.931 16.0228L164.943 16.0261L165.149 15.305ZM169.439 16.295L169.292 17.0304L169.31 17.0342L169.329 17.037L169.439 16.295ZM177.854 18.495L177.547 19.1794L177.551 19.1813L177.854 18.495ZM182.584 22.235L181.953 22.6406L181.953 22.6406L182.584 22.235ZM175.599 39.065L175.865 39.766L175.871 39.764L175.599 39.065ZM166.634 39.8C162.847 39.8 159.744 39.2762 157.296 38.2621L156.722 39.6479C159.407 40.7605 162.721 41.3 166.634 41.3V39.8ZM157.308 38.2672C154.864 37.2049 153.076 35.8646 151.89 34.2721L150.687 35.1679C152.068 37.022 154.093 38.5051 156.71 39.6428L157.308 38.2672ZM151.901 34.2865C150.729 32.6319 150.125 30.9189 150.058 29.1367L148.559 29.1933C148.639 31.2978 149.355 33.2881 150.677 35.1535L151.901 34.2865ZM150.059 29.165C150.059 29.0205 150.099 28.9405 150.169 28.8703L149.108 27.8097C148.739 28.1795 148.559 28.6495 148.559 29.165H150.059ZM150.169 28.8703C150.239 28.8002 150.319 28.76 150.464 28.76V27.26C149.948 27.26 149.478 27.4398 149.108 27.8097L150.169 28.8703ZM150.464 28.76H159.209V27.26H150.464V28.76ZM159.209 28.76C159.645 28.76 159.892 28.8399 160.021 28.921L160.816 27.649C160.359 27.3634 159.799 27.26 159.209 27.26V28.76ZM160.083 28.9558C160.301 29.0649 160.559 29.2419 160.855 29.5056L161.852 28.3844C161.489 28.0614 161.123 27.7984 160.754 27.6142L160.083 28.9558ZM160.773 29.4199C161.136 29.8635 161.556 30.282 162.029 30.6762L162.989 29.5238C162.582 29.1847 162.231 28.8331 161.934 28.4701L160.773 29.4199ZM162.059 30.7C162.585 31.0944 163.235 31.4026 163.988 31.6402L164.44 30.2098C163.799 30.0074 163.313 29.7656 162.959 29.5L162.059 30.7ZM164.023 31.6503C164.796 31.8538 165.669 31.95 166.634 31.95V30.45C165.765 30.45 165.025 30.3629 164.405 30.1997L164.023 31.6503ZM166.634 31.95C168.368 31.95 169.8 31.7267 170.863 31.2161L170.214 29.8639C169.444 30.2333 168.273 30.45 166.634 30.45V31.95ZM170.885 31.2054C171.968 30.6424 172.664 29.7833 172.664 28.615H171.164C171.164 29.06 170.943 29.4843 170.193 29.8746L170.885 31.2054ZM172.664 28.615C172.664 27.7492 172.292 27.023 171.607 26.4853L170.68 27.6647C171.023 27.9337 171.164 28.2342 171.164 28.615H172.664ZM171.628 26.5025C171.024 25.9909 170.069 25.5896 168.872 25.253L168.466 26.697C169.616 27.0204 170.31 27.3524 170.659 27.6475L171.628 26.5025ZM168.872 25.253C167.666 24.9138 166.044 24.5606 164.018 24.1921L163.75 25.6679C165.756 26.0328 167.325 26.3762 168.466 26.697L168.872 25.253ZM164.009 24.1905C161.232 23.7216 158.857 23.0401 156.875 22.1551L156.263 23.5249C158.387 24.4732 160.889 25.1851 163.759 25.6695L164.009 24.1905ZM156.885 22.1597C154.93 21.2522 153.466 20.0659 152.454 18.6159L151.224 19.4741C152.412 21.1774 154.101 22.5211 156.253 23.5203L156.885 22.1597ZM152.465 18.6323C151.498 17.1655 150.994 15.3367 150.994 13.105H149.494C149.494 15.5666 150.053 17.6978 151.213 19.4577L152.465 18.6323ZM150.994 13.105C150.994 10.8698 151.61 8.91666 152.832 7.21823L151.615 6.34177C150.198 8.31001 149.494 10.5736 149.494 13.105H150.994ZM152.827 7.22613C154.094 5.51333 155.852 4.1604 158.13 3.17881L157.537 1.80119C155.049 2.87292 153.067 4.38 151.621 6.33387L152.827 7.22613ZM158.127 3.18043C160.436 2.20051 163.138 1.7 166.249 1.7V0.199998C162.979 0.199998 160.071 0.72615 157.541 1.79956L158.127 3.18043ZM166.249 1.7C168.824 1.7 171.067 2.04002 172.989 2.70389L173.479 1.2861C171.367 0.556642 168.953 0.199998 166.249 0.199998V1.7ZM172.993 2.70523C174.978 3.37889 176.618 4.25639 177.93 5.32615L178.878 4.16385C177.403 2.96027 175.596 2.00444 173.475 1.28476L172.993 2.70523ZM177.939 5.33366C179.272 6.38579 180.265 7.5072 180.943 8.6921L182.245 7.94789C181.455 6.56614 180.322 5.30421 178.869 4.15634L177.939 5.33366ZM180.943 8.6921C181.631 9.896 181.967 11.0053 181.999 12.0284L183.498 11.9816C183.457 10.658 183.024 9.31066 182.245 7.94789L180.943 8.6921ZM181.999 12.005C181.999 12.1153 181.965 12.2232 181.833 12.3547L182.894 13.4153C183.276 13.0335 183.499 12.5547 183.499 12.005H181.999ZM181.833 12.3547C181.745 12.4435 181.675 12.465 181.594 12.465V13.965C182.099 13.965 182.543 13.7665 182.894 13.4153L181.833 12.3547ZM181.594 12.465H172.409V13.965H181.594V12.465ZM172.409 12.465C172.047 12.465 171.804 12.4041 171.644 12.3242L170.973 13.6658C171.4 13.8792 171.89 13.965 172.409 13.965V12.465ZM171.644 12.3242C171.46 12.2322 171.24 12.0636 170.989 11.7817L169.868 12.7783C170.204 13.1564 170.571 13.4645 170.973 13.6658L171.644 12.3242ZM171.135 12.0277C170.864 11.2699 170.226 10.694 169.415 10.2478L168.692 11.5622C169.348 11.9227 169.626 12.2634 169.722 12.5323L171.135 12.0277ZM169.415 10.2478C168.539 9.76568 167.469 9.55 166.249 9.55V11.05C167.302 11.05 168.102 11.2377 168.692 11.5622L169.415 10.2478ZM166.249 9.55C164.932 9.55 163.808 9.77923 162.973 10.336L163.805 11.584C164.29 11.2608 165.072 11.05 166.249 11.05V9.55ZM162.998 10.32C162.103 10.8666 161.649 11.7207 161.649 12.775H163.149C163.149 12.216 163.354 11.8601 163.78 11.6L162.998 10.32ZM161.649 12.775C161.649 13.532 161.935 14.1972 162.473 14.7353L163.534 13.6747C163.266 13.4062 163.149 13.118 163.149 12.775H161.649ZM162.473 14.7353C163.007 15.2686 163.863 15.6795 164.919 16.019L165.378 14.591C164.381 14.2705 163.807 13.948 163.534 13.6747L162.473 14.7353ZM164.943 16.0261C165.998 16.3277 167.451 16.6623 169.292 17.0304L169.586 15.5596C167.76 15.1944 166.353 14.869 165.355 14.5839L164.943 16.0261ZM169.329 17.037C172.776 17.5448 175.506 18.2647 177.547 19.1794L178.161 17.8106C175.948 16.8187 173.069 16.0718 169.548 15.553L169.329 17.037ZM177.551 19.1813C179.619 20.0924 181.063 21.2558 181.953 22.6406L183.215 21.8294C182.125 20.1342 180.415 18.8042 178.156 17.8087L177.551 19.1813ZM181.953 22.6406C182.847 24.0315 183.319 25.8064 183.319 28.01H184.819C184.819 25.5936 184.3 23.5185 183.215 21.8294L181.953 22.6406ZM183.319 28.01C183.319 30.4579 182.616 32.5249 181.229 34.2501L182.398 35.1899C184.018 33.1751 184.819 30.7687 184.819 28.01H183.319ZM181.229 34.2501C179.822 36.0005 177.867 37.3783 175.327 38.366L175.871 39.764C178.611 38.6983 180.799 37.1795 182.398 35.1899L181.229 34.2501ZM175.332 38.364C172.83 39.3156 169.935 39.8 166.634 39.8V41.3C170.08 41.3 173.161 40.7944 175.865 39.766L175.332 38.364Z" fill="white"/>
</svg>
