<?xml version="1.0" encoding="iso-8859-1"?>
<!-- Generator: Adobe Illustrator 20.1.0, SVG Export Plug-In . SVG Version: 6.00 Build 0)  -->
<svg version="1.1" id="&#x421;&#x43B;&#x43E;&#x439;_1"
	 xmlns="http://www.w3.org/2000/svg" xmlns:xlink="http://www.w3.org/1999/xlink" x="0px" y="0px" viewBox="0 0 24 24"
	 style="enable-background:new 0 0 24 24;" xml:space="preserve">
<g>
	<g>
		<path d="M16.166,13.341l-3.007-1.847c-0.037-0.023-0.079-0.038-0.121-0.045l-0.941-0.166c-0.174-0.031-0.345,0.089-0.376,0.263
			c-0.031,0.174,0.089,0.345,0.263,0.376l0.888,0.157l2.954,1.815c0.144,0.089,0.342,0.046,0.438-0.094
			C16.366,13.651,16.32,13.436,16.166,13.341L16.166,13.341z M16.166,13.341"/>
		<path d="M23.016,13.445c-0.122-0.131-0.328-0.138-0.458-0.016l-1.315,1.229l-6.026-5.946l7.785-7.296
			c0.131-0.123,0.137-0.328,0.015-0.459c-0.122-0.131-0.328-0.137-0.459-0.015L14.526,8.47c-0.132,0.124-0.135,0.34-0.006,0.468
			l0.533,0.526l-0.17,0.15L11.32,9.307c-0.055-0.005-0.112,0.005-0.162,0.028l-2.823,1.286c-0.008-0.002-0.016-0.004-0.025-0.006
			l-1.624-0.287l0.131-0.336C6.882,9.827,6.801,9.64,6.636,9.574L1.445,7.497C1.279,7.43,1.09,7.512,1.023,7.678
			C0.957,7.844,1.038,8.033,1.204,8.1l4.892,1.957l-2.883,7.367l-1.78-0.631c-0.169-0.06-0.354,0.029-0.414,0.197
			c-0.06,0.169,0.029,0.354,0.197,0.414l2.076,0.735c0.163,0.058,0.347-0.027,0.41-0.187l0.482-1.231l1.262,0.707l-0.139,0.226
			c-0.394,0.639-0.195,1.481,0.444,1.875c0.338,0.209,0.758,0.258,1.136,0.136c0.061,0.394,0.292,0.745,0.631,0.955
			c0.338,0.209,0.758,0.258,1.136,0.136c0.061,0.394,0.292,0.745,0.631,0.954c0.339,0.209,0.757,0.258,1.136,0.136
			c0.061,0.394,0.292,0.745,0.631,0.954c0.493,0.304,1.145,0.259,1.59-0.114c0.112-0.094,0.208-0.206,0.285-0.33l0.221-0.359
			l0.182,0.112c0.494,0.303,1.146,0.257,1.59-0.117c0.112-0.094,0.208-0.206,0.284-0.331c0.152-0.247,0.215-0.525,0.198-0.795
			c0.103,0.025,0.209,0.038,0.315,0.038c0.471,0,0.917-0.248,1.164-0.65c0.148-0.242,0.216-0.517,0.199-0.795
			c0.103,0.025,0.208,0.038,0.314,0.038c0.471,0,0.917-0.248,1.163-0.65c0.149-0.242,0.216-0.518,0.199-0.796
			c0.104,0.025,0.209,0.038,0.314,0.038c0.458,0,0.906-0.231,1.163-0.649c0.393-0.64,0.193-1.481-0.448-1.874l-0.222-0.137
			l0.746-0.779l0.697,0.688c0.122,0.121,0.324,0.123,0.449,0.006l1.543-1.442C23.132,13.782,23.139,13.576,23.016,13.445
			L23.016,13.445z M7.075,18.744c-0.207,0.335-0.647,0.439-0.982,0.233c-0.335-0.207-0.439-0.647-0.233-0.982l1.817-2.945
			c0.203-0.329,0.638-0.436,0.97-0.24c0.344,0.203,0.439,0.675,0.232,1.009L7.075,18.744z M8.842,19.834
			c-0.207,0.335-0.647,0.439-0.982,0.233c-0.331-0.204-0.437-0.651-0.233-0.982l1.454-2.356c0.203-0.329,0.638-0.436,0.97-0.24
			c0.344,0.203,0.439,0.675,0.232,1.009L8.842,19.834z M10.609,20.925c-0.1,0.162-0.257,0.276-0.443,0.32
			c-0.186,0.044-0.377,0.013-0.539-0.087c-0.331-0.204-0.437-0.651-0.233-0.982l1.09-1.767c0.203-0.329,0.638-0.436,0.97-0.24
			c0.344,0.203,0.439,0.674,0.232,1.009L10.609,20.925z M13.09,20.857l-0.715,1.158c-0.204,0.331-0.651,0.437-0.982,0.233
			c-0.331-0.204-0.437-0.651-0.233-0.982l0.727-1.178c0.203-0.329,0.638-0.436,0.97-0.24C13.202,20.051,13.297,20.522,13.09,20.857
			L13.09,20.857z M19,15.083l-1.608-0.988c-0.149-0.091-0.355-0.042-0.446,0.107c-0.092,0.149-0.043,0.355,0.107,0.446l2.396,1.472
			c0.335,0.206,0.441,0.646,0.234,0.982c-0.206,0.335-0.646,0.441-0.982,0.234l-2.57-1.579c-0.152-0.094-0.352-0.046-0.446,0.107
			c-0.094,0.153-0.046,0.352,0.107,0.446l1.98,1.217c0.331,0.204,0.438,0.65,0.234,0.982c-0.204,0.331-0.65,0.438-0.982,0.234
			L15.23,17.64c-0.153-0.094-0.352-0.046-0.446,0.107c-0.094,0.152-0.046,0.352,0.106,0.446l1.205,0.74
			c0.331,0.204,0.438,0.65,0.234,0.982c-0.204,0.331-0.65,0.438-0.982,0.235c0,0-1.06-0.65-1.069-0.655
			c-0.148-0.072-0.329-0.021-0.417,0.122c-0.094,0.153-0.046,0.352,0.107,0.446l0.451,0.277c0.335,0.206,0.44,0.646,0.234,0.982
			c-0.204,0.331-0.65,0.438-0.982,0.234l-0.181-0.111l0.153-0.247c0.195-0.316,0.255-0.705,0.166-1.068
			c-0.089-0.358-0.309-0.656-0.62-0.841c-0.243-0.144-0.515-0.202-0.78-0.184c0.05-0.214,0.05-0.439-0.003-0.655
			c-0.088-0.358-0.309-0.656-0.62-0.841c-0.243-0.144-0.515-0.202-0.78-0.184c0.134-0.575-0.113-1.193-0.624-1.495
			c-0.243-0.144-0.515-0.202-0.78-0.184c0.134-0.575-0.113-1.193-0.624-1.495c-0.634-0.375-1.465-0.17-1.853,0.458l-1.337,2.167
			l-1.365-0.765l2.021-5.166l1.101,0.194c-0.313,0.389-0.401,0.936-0.181,1.421c0.228,0.501,0.724,0.798,1.242,0.798
			c0.189,0,0.38-0.039,0.563-0.122l1.9-0.865c0.161-0.073,0.234-0.269,0.161-0.43c-0.073-0.161-0.269-0.234-0.43-0.161l-1.9,0.865
			c-0.358,0.163-0.782,0.004-0.946-0.354c-0.163-0.358-0.004-0.782,0.354-0.946l3.04-1.384l3.616,0.311
			c0.009,0.001,0.019,0.001,0.028,0.001c0.079,0,0.155-0.029,0.215-0.081l0.308-0.272l4.333,4.275L19,15.083z M19,15.083"/>
	</g>
</g>
</svg>
