<?xml version="1.0" encoding="iso-8859-1"?>
<!-- Generator: Adobe Illustrator 20.1.0, SVG Export Plug-In . SVG Version: 6.00 Build 0)  -->
<svg version="1.1" id="&#x421;&#x43B;&#x43E;&#x439;_1"
	 xmlns="http://www.w3.org/2000/svg" xmlns:xlink="http://www.w3.org/1999/xlink" x="0px" y="0px" viewBox="0 0 24 24"
	 style="enable-background:new 0 0 24 24;" xml:space="preserve">
<g>
	<path d="M0.75,0.75v17.944h3.947v0.778l0.975,0.26c0.029,0.075,0.06,0.15,0.094,0.224L5.26,20.83l1.608,1.608l0.874-0.506
		c0.075,0.034,0.15,0.066,0.225,0.094L8.226,23H10.5l0.259-0.974c0.075-0.029,0.15-0.06,0.225-0.094l0.873,0.506l1.608-1.608
		l-0.506-0.873c0.034-0.075,0.065-0.15,0.094-0.224l0.974-0.261v-0.778h1.435v1.191l2.153,3.015l2.153-3.015v-1.191H23V0.75H0.75z
		 M13.31,18.92l-0.813,0.217l-0.06,0.186c-0.052,0.161-0.12,0.324-0.202,0.484l-0.089,0.174l0.423,0.73L11.74,21.54l-0.73-0.423
		l-0.174,0.089c-0.161,0.083-0.324,0.151-0.484,0.202l-0.187,0.06l-0.217,0.814H8.777L8.56,21.469l-0.187-0.06
		c-0.159-0.051-0.322-0.119-0.484-0.202l-0.175-0.089l-0.73,0.423l-0.829-0.828l0.423-0.73l-0.089-0.174
		c-0.082-0.16-0.15-0.323-0.202-0.484l-0.06-0.186L5.415,18.92v-1.171l0.813-0.217l0.06-0.186c0.053-0.161,0.12-0.324,0.202-0.484
		l0.089-0.174l-0.423-0.73l0.829-0.828l0.73,0.423l0.175-0.089c0.161-0.083,0.324-0.151,0.484-0.202l0.187-0.06l0.217-0.814h1.171
		l0.217,0.814l0.187,0.06c0.159,0.051,0.322,0.119,0.484,0.202l0.174,0.089l0.73-0.423l0.829,0.828l-0.423,0.73l0.089,0.174
		c0.082,0.16,0.15,0.323,0.202,0.484l0.06,0.186l0.813,0.217V18.92z M17.617,21.665l-1.097-1.535h2.194L17.617,21.665z
		 M19.052,19.411h-1.077v-7.545h-0.718v7.545h-1.077V10.44h1.077v0.709h0.718V10.44h1.077V19.411z M19.052,9.722h-2.871V9.004h2.871
		V9.722z M19.052,8.286h-2.871V7.21c0-0.792,0.644-1.435,1.436-1.435c0.792,0,1.435,0.644,1.435,1.435V8.286z M22.282,17.976H19.77
		V7.21c0-1.187-0.966-2.153-2.153-2.153c-1.188,0-2.153,0.966-2.153,2.153v10.766h-1.435v-0.778l-0.974-0.26
		c-0.029-0.075-0.06-0.15-0.094-0.224l0.506-0.874l-1.608-1.608l-0.874,0.506c-0.075-0.034-0.15-0.066-0.225-0.094L10.5,13.669
		H8.226l-0.26,0.974c-0.075,0.029-0.15,0.06-0.225,0.094l-0.874-0.506L5.26,15.839l0.506,0.874c-0.034,0.074-0.065,0.15-0.094,0.224
		l-0.974,0.26v0.778h-3.23V4.339h20.814V17.976z M22.282,3.621H1.468V1.468h20.814V3.621z M22.282,3.621"/>
	<path d="M3.621,6.133v6.46h10.766v-6.46H3.621z M13.669,11.875H4.339V6.851h9.331V11.875z M13.669,11.875"/>
	<rect x="5.056" y="7.569" width="7.895" height="0.718"/>
	<rect x="5.056" y="9.004" width="7.895" height="0.718"/>
	<path d="M9.363,15.823c-1.385,0-2.512,1.127-2.512,2.512c0,1.385,1.127,2.512,2.512,2.512c1.385,0,2.512-1.127,2.512-2.512
		C11.875,16.949,10.748,15.823,9.363,15.823L9.363,15.823z M9.363,20.129c-0.989,0-1.794-0.805-1.794-1.794
		c0-0.989,0.805-1.794,1.794-1.794c0.989,0,1.794,0.805,1.794,1.794C11.157,19.324,10.352,20.129,9.363,20.129L9.363,20.129z
		 M9.363,20.129"/>
	<rect x="2.186" y="2.186" width="0.718" height="0.718"/>
	<rect x="3.621" y="2.186" width="0.718" height="0.718"/>
	<rect x="5.056" y="2.186" width="0.718" height="0.718"/>
	<rect x="6.133" y="10.44" width="0.718" height="0.718"/>
	<rect x="8.645" y="10.44" width="0.718" height="0.718"/>
	<rect x="11.157" y="10.44" width="0.718" height="0.718"/>
</g>
</svg>
