<?xml version="1.0" encoding="iso-8859-1"?>
<!-- Generator: Adobe Illustrator 20.1.0, SVG Export Plug-In . SVG Version: 6.00 Build 0)  -->
<svg version="1.1" id="&#x421;&#x43B;&#x43E;&#x439;_1"
	 xmlns="http://www.w3.org/2000/svg" xmlns:xlink="http://www.w3.org/1999/xlink" x="0px" y="0px" viewBox="0 0 24 24"
	 style="enable-background:new 0 0 24 24;" xml:space="preserve">
<g>
	<path d="M21.812,8.007H17.21V1.989c0-0.586-0.476-1.062-1.062-1.062H1.989c-0.586,0-1.062,0.476-1.062,1.062v10.62
		c0,0.586,0.476,1.062,1.062,1.062h4.248v1.416H5.529v0.708h7.08v-0.708H11.9V13.67h1.77v8.142c0,0.586,0.477,1.062,1.062,1.062
		h7.08c0.586,0,1.062-0.476,1.062-1.062V9.069C22.874,8.483,22.398,8.007,21.812,8.007L21.812,8.007z M11.193,15.086H6.945V13.67
		h4.248V15.086z M13.67,9.069v1.77h-0.708v0.708h0.708v1.416H1.989c-0.195,0-0.354-0.159-0.354-0.354v-1.062h10.62v-0.708H1.635
		v-8.85c0-0.195,0.159-0.354,0.354-0.354h14.16c0.195,0,0.354,0.159,0.354,0.354v6.018h-1.77C14.147,8.007,13.67,8.483,13.67,9.069
		L13.67,9.069z M22.166,21.812c0,0.195-0.159,0.354-0.354,0.354h-7.08c-0.195,0-0.354-0.159-0.354-0.354v-1.77h7.788V21.812z
		 M22.166,19.334h-7.788v-8.496h7.788V19.334z M22.166,10.13h-7.788V9.069c0-0.195,0.159-0.354,0.354-0.354h7.08
		c0.195,0,0.354,0.159,0.354,0.354V10.13z M22.166,10.13"/>
	<rect x="17.21" y="20.75" width="2.124" height="0.708"/>
	<path d="M14.629,2.8l-0.501,0.501l0.458,0.458H8.36v0.708h6.225l-0.458,0.458l0.501,0.501l1.312-1.312L14.629,2.8z M14.629,2.8"/>
	<path d="M9.777,7.299H3.551l0.458-0.458L3.509,6.34L2.196,7.653l1.312,1.312l0.501-0.501L3.551,8.007h6.225V7.299z M9.777,7.299"/>
	<rect x="20.75" y="11.546" width="0.708" height="5.664"/>
	<rect x="6.945" y="3.759" width="0.708" height="0.708"/>
	<rect x="10.485" y="7.299" width="0.708" height="0.708"/>
	<rect x="20.75" y="17.918" width="0.708" height="0.708"/>
</g>
</svg>
