<?xml version="1.0" encoding="iso-8859-1"?>
<!-- Generator: Adobe Illustrator 20.1.0, SVG Export Plug-In . SVG Version: 6.00 Build 0)  -->
<svg version="1.1" id="&#x421;&#x43B;&#x43E;&#x439;_1"
	 xmlns="http://www.w3.org/2000/svg" xmlns:xlink="http://www.w3.org/1999/xlink" x="0px" y="0px" viewBox="0 0 24 24"
	 style="enable-background:new 0 0 24 24;" xml:space="preserve">
<g>
	<path d="M19.128,16.423h-2.67c-0.552-0.001-1.094,0.142-1.574,0.414c-0.409,0.232-0.762,0.549-1.036,0.931
		c-0.182-0.032-0.367-0.048-0.552-0.048h-2.672c-0.185,0-0.37,0.016-0.552,0.048c-0.274-0.382-0.627-0.699-1.036-0.931
		c-0.48-0.272-1.022-0.415-1.574-0.414h-2.67c-1.774,0.004-3.211,1.441-3.215,3.215v1.812c0.001,0.19,0.156,0.343,0.345,0.343h5.477
		v0.953c0,0.191,0.155,0.345,0.345,0.345h8.421c0.191,0,0.345-0.155,0.345-0.345v-0.953h5.477c0.191,0,0.345-0.154,0.345-0.345
		v-1.81C22.33,17.868,20.898,16.432,19.128,16.423L19.128,16.423z M7.435,20.626v0.477H2.267v-1.465
		c0.004-1.393,1.132-2.52,2.524-2.524h2.67c0.432,0,0.857,0.111,1.234,0.324c0.252,0.143,0.479,0.327,0.669,0.545
		C8.289,18.45,7.552,19.461,7.435,20.626L7.435,20.626z M15.813,20.936v1.467H8.099v-2.008l0.014-0.057l0.024-0.086l0.017-0.057
		c0.342-1.037,1.309-1.739,2.401-1.743l0.069-0.038h2.672c1.268,0.005,2.337,0.946,2.503,2.203c0,0.052,0,0.105,0.015,0.157V20.936z
		 M21.652,21.105h-5.144v-1l-0.017-0.059v-0.117l-0.033-0.093c-0.31-0.825-0.943-1.488-1.753-1.836
		c0.143-0.212,0.317-0.402,0.517-0.562c0.376-0.213,0.801-0.324,1.233-0.324h2.672c1.392,0.004,2.52,1.132,2.524,2.524V21.105z
		 M21.652,21.105"/>
	<path d="M12.365,5.064c0,0.216-0.175,0.39-0.391,0.39c-0.216,0-0.39-0.175-0.39-0.39c0-0.216,0.175-0.391,0.39-0.391
		C12.19,4.673,12.365,4.848,12.365,5.064L12.365,5.064z M12.365,5.064"/>
	<path d="M7.845,11.691c-0.455-0.458-1.074-0.715-1.719-0.715c-1.343-0.001-2.433,1.087-2.434,2.429
		c-0.001,1.343,1.086,2.432,2.429,2.433c1.343,0.001,2.432-1.086,2.433-2.429C8.555,12.766,8.3,12.148,7.845,11.691L7.845,11.691z
		 M7.356,14.637c-0.68,0.68-1.782,0.68-2.462,0c-0.68-0.68-0.68-1.782-0.001-2.462c0.68-0.68,1.782-0.68,2.462,0
		c0.326,0.326,0.51,0.769,0.51,1.231C7.867,13.868,7.683,14.311,7.356,14.637L7.356,14.637z M7.356,14.637"/>
	<path d="M14.889,5.064c0,0.216-0.175,0.39-0.39,0.39c-0.216,0-0.391-0.175-0.391-0.39c0-0.216,0.175-0.391,0.391-0.391
		C14.714,4.673,14.889,4.848,14.889,5.064L14.889,5.064z M14.889,5.064"/>
	<path d="M16.027,1.782c-1.165-0.896-2.598-1.372-4.068-1.353c-1.47-0.02-2.903,0.457-4.068,1.353
		C6.825,2.635,6.166,3.82,6.166,5.133c0.001,0.667,0.171,1.322,0.493,1.905c0.306,0.551,0.718,1.037,1.212,1.429l-0.274,1.822
		c-0.029,0.187,0.1,0.362,0.287,0.391c0.078,0.012,0.157-0.003,0.224-0.043L9.971,9.55c0.295,0.088,0.596,0.156,0.9,0.203
		c0.361,0.056,0.726,0.083,1.091,0.083c1.47,0.02,2.903-0.457,4.068-1.353c1.065-0.855,1.724-2.038,1.724-3.351
		S17.094,2.635,16.027,1.782L16.027,1.782z M15.599,7.95c-1.044,0.795-2.327,1.214-3.639,1.191
		c-0.329,0.001-0.658-0.024-0.983-0.074c-0.323-0.048-0.642-0.122-0.953-0.221C9.931,8.816,9.831,8.827,9.748,8.876l-1.36,0.803
		l0.198-1.31c0.019-0.128-0.035-0.255-0.14-0.331C7.956,7.685,7.55,7.23,7.254,6.704C6.989,6.223,6.85,5.682,6.849,5.133
		c0-1.095,0.56-2.091,1.465-2.815c1.044-0.795,2.327-1.214,3.639-1.191c1.312-0.024,2.595,0.396,3.639,1.191
		c0.905,0.715,1.465,1.719,1.465,2.815C17.056,6.228,16.504,7.224,15.599,7.95L15.599,7.95z M15.599,7.95"/>
	<path d="M17.796,10.974c-1.343-0.001-2.432,1.086-2.433,2.429c-0.001,0.644,0.255,1.263,0.71,1.719
		c0.455,0.458,1.074,0.715,1.719,0.714c1.343,0.001,2.433-1.086,2.434-2.429C20.227,12.065,19.139,10.976,17.796,10.974
		L17.796,10.974z M19.026,14.636c-0.68,0.68-1.782,0.68-2.462,0.001c-0.326-0.326-0.51-0.769-0.51-1.231
		c-0.001-0.462,0.183-0.905,0.51-1.231c0.68-0.68,1.782-0.68,2.462-0.001C19.705,12.854,19.705,13.956,19.026,14.636L19.026,14.636z
		 M19.026,14.636"/>
	<path d="M9.84,5.064c0,0.216-0.175,0.39-0.39,0.39c-0.216,0-0.391-0.175-0.391-0.39c0-0.216,0.175-0.391,0.391-0.391
		C9.666,4.673,9.84,4.848,9.84,5.064L9.84,5.064z M9.84,5.064"/>
	<path d="M13.676,12.981c-0.456-0.454-1.073-0.709-1.716-0.708c-0.645-0.001-1.264,0.257-1.719,0.714
		c-0.947,0.95-0.944,2.488,0.006,3.435c0.95,0.947,2.488,0.945,3.435-0.006C14.628,15.466,14.626,13.928,13.676,12.981
		L13.676,12.981z M11.959,16.447c-0.961,0-1.74-0.78-1.74-1.741c0-0.961,0.78-1.741,1.741-1.74c0.462,0,0.904,0.184,1.231,0.51
		c0.327,0.326,0.511,0.769,0.51,1.231C13.7,15.668,12.921,16.447,11.959,16.447L11.959,16.447z M11.959,16.447"/>
</g>
</svg>
