<?xml version="1.0" encoding="iso-8859-1"?>
<!-- Generator: Adobe Illustrator 20.1.0, SVG Export Plug-In . SVG Version: 6.00 Build 0)  -->
<svg version="1.1" id="&#x421;&#x43B;&#x43E;&#x439;_1"
	 xmlns="http://www.w3.org/2000/svg" xmlns:xlink="http://www.w3.org/1999/xlink" x="0px" y="0px" viewBox="0 0 24 24"
	 style="enable-background:new 0 0 24 24;" xml:space="preserve">
<g>
	<path d="M21.91,4.506h-6.56V3.247c0-0.588-0.458-1.065-1.024-1.066H9.674c-0.565,0-1.023,0.477-1.024,1.066v1.259H2.09
		C1.396,4.507,0.834,5.092,0.833,5.814v14.044c0.001,0.722,0.563,1.307,1.256,1.308H21.91c0.694-0.001,1.255-0.586,1.256-1.308
		V5.814C23.166,5.092,22.604,4.507,21.91,4.506L21.91,4.506z M9.394,3.247c0-0.16,0.125-0.29,0.279-0.291h4.653
		c0.154,0,0.279,0.13,0.279,0.291v1.259H9.394V3.247z M22.422,19.857c0,0.294-0.229,0.532-0.512,0.533H2.09
		c-0.283,0-0.511-0.239-0.512-0.533v-8.878c1.102,0.563,3.836,1.61,8.933,1.66v1.165c0,0.214,0.167,0.388,0.372,0.388h2.233
		c0.206,0,0.372-0.174,0.372-0.388v-1.165c5.097-0.05,7.831-1.097,8.933-1.66V19.857z M11.255,13.417v-2.712h1.489v2.712H11.255z
		 M22.422,10.1c-0.636,0.377-3.283,1.705-8.933,1.763v-1.546c0-0.214-0.167-0.388-0.372-0.388h-2.233
		c-0.206,0-0.372,0.174-0.372,0.388v1.546c-5.65-0.057-8.296-1.386-8.933-1.763V5.814c0-0.294,0.229-0.532,0.512-0.533H21.91
		c0.283,0,0.511,0.239,0.512,0.533V10.1z M22.422,10.1"/>
</g>
</svg>
