<?xml version="1.0" encoding="UTF-8" standalone="no"?>
<svg width="29px" height="29px" viewBox="0 0 29 29" version="1.1" xmlns="http://www.w3.org/2000/svg" xmlns:xlink="http://www.w3.org/1999/xlink">
    <!-- Generator: Sketch 42 (36781) - http://www.bohemiancoding.com/sketch -->
    <title>ic_29x29_close</title>
    <desc>Created with Sketch.</desc>
    <defs>
        <rect id="path-1" x="0" y="0" width="290" height="270" rx="2"></rect>
        <mask id="mask-2" maskContentUnits="userSpaceOnUse" maskUnits="objectBoundingBox" x="0" y="0" width="290" height="270" fill="white">
            <use xlink:href="#path-1"></use>
        </mask>
        <rect id="path-3" x="0" y="0" width="800" height="670" rx="2"></rect>
        <filter x="-50%" y="-50%" width="200%" height="200%" filterUnits="objectBoundingBox" id="filter-4">
            <feOffset dx="5" dy="5" in="SourceAlpha" result="shadowOffsetOuter1"></feOffset>
            <feGaussianBlur stdDeviation="25" in="shadowOffsetOuter1" result="shadowBlurOuter1"></feGaussianBlur>
            <feColorMatrix values="0 0 0 0 0   0 0 0 0 0   0 0 0 0 0  0 0 0 0.5 0" type="matrix" in="shadowBlurOuter1" result="shadowMatrixOuter1"></feColorMatrix>
            <feOffset dx="0" dy="0" in="SourceAlpha" result="shadowOffsetOuter2"></feOffset>
            <feGaussianBlur stdDeviation="10" in="shadowOffsetOuter2" result="shadowBlurOuter2"></feGaussianBlur>
            <feColorMatrix values="0 0 0 0 0   0 0 0 0 0   0 0 0 0 0  0 0 0 0.3 0" type="matrix" in="shadowBlurOuter2" result="shadowMatrixOuter2"></feColorMatrix>
            <feMerge>
                <feMergeNode in="shadowMatrixOuter1"></feMergeNode>
                <feMergeNode in="shadowMatrixOuter2"></feMergeNode>
            </feMerge>
        </filter>
    </defs>
    <g id="FIN" stroke="none" stroke-width="1" fill="none" fill-rule="evenodd">
        <g id="Main_UAHolding-FORM_v01" transform="translate(-945.000000, -1036.000000)">
            <g id="back">
                <g id="03_Business" transform="translate(120.000000, 790.000000)">
                    <g id="BiG-Products" transform="translate(670.000000, 120.000000)">
                        <use id="Border" stroke="#ECEFF1" mask="url(#mask-2)" stroke-width="2" xlink:href="#path-1"></use>
                        <text id="Own-mobile-apps-deve" opacity="0.900000036" font-family="SFUIDisplay-Light, SF UI Display" font-size="16" font-weight="300" line-spacing="30" fill="#263238">
                            <tspan x="30" y="164">Own mobile apps development </tspan>
                            <tspan x="30" y="194">and their promotion on the growth </tspan>
                            <tspan x="30" y="224">markets. Launched in 2013</tspan>
                        </text>
                    </g>
                </g>
            </g>
            <rect id="bg-dark" fill="#263238" opacity="0.9" x="0" y="0" width="1200" height="2690"></rect>
            <g id="form" transform="translate(200.000000, 1010.000000)">
                <g id="bg">
                    <use fill="black" fill-opacity="1" filter="url(#filter-4)" xlink:href="#path-3"></use>
                    <use fill="#FFFFFF" fill-rule="evenodd" xlink:href="#path-3"></use>
                </g>
                <path d="M760,40 L760,25.499492 C760,25.2317034 759.776142,25 759.5,25 C759.231934,25 759,25.2236302 759,25.499492 L759,40 L744.499492,40 C744.231703,40 744,40.2238576 744,40.5 C744,40.7680664 744.22363,41 744.499492,41 L759,41 L759,55.500508 C759,55.7682966 759.223858,56 759.5,56 C759.768066,56 760,55.7763698 760,55.500508 L760,41 L774.500508,41 C774.768297,41 775,40.7761424 775,40.5 C775,40.2319336 774.77637,40 774.500508,40 L760,40 Z" id="ic_close" fill="#90A4AE" opacity="0.5" transform="translate(759.500000, 40.500000) rotate(45.000000) translate(-759.500000, -40.500000) "></path>
            </g>
        </g>
    </g>
</svg>