<?xml version="1.0" encoding="UTF-8" standalone="no"?>
<svg width="80px" height="60px" viewBox="0 0 80 60" version="1.1" xmlns="http://www.w3.org/2000/svg" xmlns:xlink="http://www.w3.org/1999/xlink">
    <!-- Generator: Sketch 42 (36781) - http://www.bohemiancoding.com/sketch -->
    <title>ic_80x60_Customers</title>
    <desc>Created with Sketch.</desc>
    <defs>
        <path d="M59.1085833,39.4709897 C59.3763248,38.8559694 59.9780347,38.4751955 60.7477018,38.2826943 L62.6511246,37.8070694 L62.8773927,36.9015352 C62.3708292,36.4263722 62.0346594,35.729097 61.9797086,35.0364395 L61.9044398,35.0364395 C61.6717069,35.0364395 61.4749921,34.8628134 61.4463623,34.6319275 L61.3309194,33.7083842 C61.2962865,33.4327066 61.5114721,33.1893529 61.7889969,33.1893529 L61.8365594,33.1893529 C61.8365594,33.1893529 61.7275812,32.3244546 61.7275812,32.0349238 C61.7275812,31.2120467 61.9450757,30.4371938 63.8055537,30.418723 C64.4224806,29.9772693 65.0948202,29.9569513 65.4822466,29.9569513 C66.2146164,29.9569513 66.7378037,30.1906078 67.0379553,30.6496088 C67.3367215,31.1058392 67.3367215,31.4858773 67.0379553,31.8040379 L66.8070694,32.0349238 L66.7511951,33.1902764 C67.0259492,33.1935088 67.2383642,33.4345536 67.2041931,33.7083842 L67.0887502,34.6319275 C67.0596585,34.8628134 66.8634056,35.0364395 66.6080459,35.0364395 C66.551248,35.7484914 66.1970691,36.4637757 65.6669552,36.9394005 L65.8835261,37.8070694 L67.7869489,38.2826943 C68.5567817,38.4752369 69.1585848,38.855392 69.4262402,39.4707897 C70.4403635,38.2973437 71.0528033,36.7737753 71.0528033,35.1086506 C71.0528033,31.4000827 68.0148415,28.3936948 64.2673253,28.3936948 C60.5198092,28.3936948 57.4818474,31.4000827 57.4818474,35.1086506 C57.4818474,36.7738699 58.0943568,38.2975168 59.1085833,39.4709897 Z M63.6113075,59.5499809 C63.6113075,59.5499809 49,43.4529283 49,35.1086506 C49,26.7643728 55.835414,20 64.2673253,20 C72.6992367,20 79.5346507,26.7643728 79.5346507,35.1086506 C79.5346507,43.4529283 64.9331603,59.5387696 64.9331603,59.5387696 C64.572296,59.9484703 63.9736161,59.9585357 63.6113075,59.5499809 Z" id="path-1"></path>
        <mask id="mask-2" maskContentUnits="userSpaceOnUse" maskUnits="objectBoundingBox" x="0" y="0" width="30.5346507" height="40" fill="white">
            <use xlink:href="#path-1"></use>
        </mask>
        <path d="M10.1085833,39.4709897 C10.3763248,38.8559694 10.9780347,38.4751955 11.7477018,38.2826943 L13.6511246,37.8070694 L13.8773927,36.9015352 C13.3708292,36.4263722 13.0346594,35.729097 12.9797086,35.0364395 L12.9044398,35.0364395 C12.6717069,35.0364395 12.4749921,34.8628134 12.4463623,34.6319275 L12.3309194,33.7083842 C12.2962865,33.4327066 12.5114721,33.1893529 12.7889969,33.1893529 L12.8365594,33.1893529 C12.8365594,33.1893529 12.7275812,32.3244546 12.7275812,32.0349238 C12.7275812,31.2120467 12.9450757,30.4371938 14.8055537,30.418723 C15.4224806,29.9772693 16.0948202,29.9569513 16.4822466,29.9569513 C17.2146164,29.9569513 17.7378037,30.1906078 18.0379553,30.6496088 C18.3367215,31.1058392 18.3367215,31.4858773 18.0379553,31.8040379 L17.8070694,32.0349238 L17.7511951,33.1902764 C18.0259492,33.1935088 18.2383642,33.4345536 18.2041931,33.7083842 L18.0887502,34.6319275 C18.0596585,34.8628134 17.8634056,35.0364395 17.6080459,35.0364395 C17.551248,35.7484914 17.1970691,36.4637757 16.6669552,36.9394005 L16.8835261,37.8070694 L18.7869489,38.2826943 C19.5567817,38.4752369 20.1585848,38.855392 20.4262402,39.4707897 C21.4403635,38.2973437 22.0528033,36.7737753 22.0528033,35.1086506 C22.0528033,31.4000827 19.0148415,28.3936948 15.2673253,28.3936948 C11.5198092,28.3936948 8.48184741,31.4000827 8.48184741,35.1086506 C8.48184741,36.7738699 9.09435678,38.2975168 10.1085833,39.4709897 Z M14.6113075,59.5499809 C14.6113075,59.5499809 0,43.4529283 0,35.1086506 C0,26.7643728 6.83541397,20 15.2673253,20 C23.6992367,20 30.5346507,26.7643728 30.5346507,35.1086506 C30.5346507,43.4529283 15.9331603,59.5387696 15.9331603,59.5387696 C15.572296,59.9484703 14.9736161,59.9585357 14.6113075,59.5499809 Z" id="path-3"></path>
        <mask id="mask-4" maskContentUnits="userSpaceOnUse" maskUnits="objectBoundingBox" x="0" y="0" width="30.5346507" height="40" fill="white">
            <use xlink:href="#path-3"></use>
        </mask>
        <path d="M39.3364592,59.6928871 C39.7029226,60.1025251 40.299217,60.1022168 40.6635408,59.6928871 C40.6635408,59.6928871 63,35.1793924 63,22.6629758 C63,10.1465593 52.7025499,0 40,0 C27.2974501,0 17,10.1465593 17,22.6629758 C17,35.1793924 39.3364592,59.6928871 39.3364592,59.6928871 Z" id="path-5"></path>
        <mask id="mask-6" maskContentUnits="userSpaceOnUse" maskUnits="objectBoundingBox" x="0" y="0" width="46" height="60" fill="white">
            <use xlink:href="#path-5"></use>
        </mask>
        <path d="M42.4347826,26.075165 L42.1085217,24.7736616 C42.9071304,24.0602244 43.4406957,22.9872979 43.5262609,21.9192201 C43.9109565,21.9192201 44.2066087,21.6587809 44.2504348,21.3124521 L44.4243478,19.9271372 C44.4758261,19.5163913 44.1558261,19.1548241 43.741913,19.1499755 L43.826087,17.4169465 L44.173913,17.0706177 C44.624,16.5933767 44.624,16.0233196 44.173913,15.338974 C43.7217391,14.6504725 42.9335652,14.2999878 41.8302609,14.2999878 C41.2466087,14.2999878 40.2337391,14.3304647 39.3043478,14.9926453 C36.5015652,15.0203516 36.173913,16.1826308 36.173913,17.4169465 C36.173913,17.8512427 36.338087,19.1485902 36.338087,19.1485902 L36.2664348,19.1485902 C35.8483478,19.1485902 35.5241739,19.5136207 35.5763478,19.9271372 L35.7502609,21.3124521 C35.7933913,21.6587809 36.0897391,21.9192201 36.4403478,21.9192201 L36.5537391,21.9192201 C36.6365217,22.9582063 37.1429565,24.0041191 37.906087,24.7168637 L37.5652174,26.075165 L34.6977391,26.7886022 C33.1123478,27.183417 32,28.1062099 32,29.7332623 C32,29.7332623 34.6242676,33.10212 40,33.10212 C45.3757324,33.10212 48,29.7332623 48,29.7332623 C48,28.1041319 46.8876522,27.183417 45.3022609,26.7886022 L42.4347826,26.075165 Z" id="path-7"></path>
        <mask id="mask-8" maskContentUnits="userSpaceOnUse" maskUnits="objectBoundingBox" x="0" y="0" width="16" height="18.8021322" fill="white">
            <use xlink:href="#path-7"></use>
        </mask>
    </defs>
    <g id="FIN" stroke="none" stroke-width="1" fill="none" fill-rule="evenodd">
        <g id="Main_UAHolding_v01" transform="translate(-370.000000, -520.000000)" fill="#FFFFFF">
            <g id="02" transform="translate(120.000000, 519.000000)">
                <g id="ic_80x60_Customers" transform="translate(250.000000, 1.000000)">
                    <use id="Combined-Shape-Copy" stroke="#546E7A" mask="url(#mask-2)" stroke-width="2" xlink:href="#path-1"></use>
                    <use id="Combined-Shape-Copy-2" stroke="#546E7A" mask="url(#mask-4)" stroke-width="2" xlink:href="#path-3"></use>
                    <use id="Oval-64" stroke="#546E7A" mask="url(#mask-6)" stroke-width="2" xlink:href="#path-5"></use>
                    <ellipse id="Combined-Shape" stroke="#FFAB00" cx="40" cy="22.6629758" rx="10.2222222" ry="10.0724337"></ellipse>
                    <use id="Stroke-308" stroke="#FFAB00" mask="url(#mask-8)" stroke-width="2" xlink:href="#path-7"></use>
                </g>
            </g>
        </g>
    </g>
</svg>