<?xml version="1.0" encoding="UTF-8" standalone="no"?>
<svg width="80px" height="60px" viewBox="0 0 80 60" version="1.1" xmlns="http://www.w3.org/2000/svg" xmlns:xlink="http://www.w3.org/1999/xlink">
    <!-- Generator: Sketch 42 (36781) - http://www.bohemiancoding.com/sketch -->
    <title>ic_80x60_Case</title>
    <desc>Created with Sketch.</desc>
    <defs>
        <path d="M60.754878,60 L9.24512195,60 C4.13975221,59.9906885 0.00469674828,55.8945629 0,50.8419171 L0,17.1496344 C0.00939605119,12.1002877 4.14307913,8.009299 9.24512195,8 L60.754878,8 C65.8569209,8.009299 69.9906039,12.1002877 70,17.1496344 L70,50.8419171 C70.0000022,55.8964892 65.8621985,59.9953371 60.754878,60 Z" id="path-1"></path>
        <mask id="mask-2" maskContentUnits="userSpaceOnUse" maskUnits="objectBoundingBox" x="0" y="0" width="70" height="52" fill="white">
            <use xlink:href="#path-1"></use>
        </mask>
        <path d="M46.1638418,23.5408451 L23.8361582,23.5408451 C22.822076,23.5408451 22,23.2389665 22,22.8665804 L22,14.6742647 C22,14.3018786 22.822076,14 23.8361582,14 L46.1638418,14 C47.177924,14 48,14.3018786 48,14.6742647 L48,22.8665804 C48,23.2389665 47.177924,23.5408451 46.1638418,23.5408451 Z" id="path-3"></path>
        <mask id="mask-4" maskContentUnits="userSpaceOnUse" maskUnits="objectBoundingBox" x="0" y="0" width="26" height="9.54084507" fill="white">
            <use xlink:href="#path-3"></use>
        </mask>
        <rect id="path-5" x="0" y="8" width="74" height="52" rx="8"></rect>
        <mask id="mask-6" maskContentUnits="userSpaceOnUse" maskUnits="objectBoundingBox" x="0" y="0" width="74" height="52" fill="white">
            <use xlink:href="#path-5"></use>
        </mask>
        <path d="M24,1.9973917 C24,0.894262725 24.8949789,0 25.9970047,0 L48.0029953,0 C49.1059106,0 50,0.895857811 50,1.9973917 L50,9 L24,9 L24,1.9973917 Z" id="path-7"></path>
        <mask id="mask-8" maskContentUnits="userSpaceOnUse" maskUnits="objectBoundingBox" x="0" y="0" width="26" height="9" fill="white">
            <use xlink:href="#path-7"></use>
        </mask>
        <rect id="path-9" x="31" y="28" width="12" height="12" rx="2"></rect>
        <mask id="mask-10" maskContentUnits="userSpaceOnUse" maskUnits="objectBoundingBox" x="0" y="0" width="12" height="12" fill="white">
            <use xlink:href="#path-9"></use>
        </mask>
    </defs>
    <g id="FIN" stroke="none" stroke-width="1" fill="none" fill-rule="evenodd">
        <g id="Main_UAHolding_v01" transform="translate(-119.000000, -520.000000)">
            <g id="02" transform="translate(120.000000, 519.000000)">
                <g id="ic_80x60_CaseCase" transform="translate(0.000000, 1.000000)">
                    <use id="Path" stroke="#263238" mask="url(#mask-2)" stroke-width="2" fill="#FFFFFF" xlink:href="#path-1"></use>
                    <use id="Path-Copy" stroke="#263238" mask="url(#mask-4)" stroke-width="2" fill="#FFFFFF" xlink:href="#path-3"></use>
                    <use id="Rectangle-9-Copy" stroke="#546E7A" mask="url(#mask-6)" stroke-width="2" fill="#FFFFFF" xlink:href="#path-5"></use>
                    <use id="Rectangle-9" stroke="#546E7A" mask="url(#mask-8)" stroke-width="2" fill="#FFFFFF" xlink:href="#path-7"></use>
                    <rect id="Rectangle-9-Copy-2" fill="#546E7A" x="0" y="33" width="74" height="1"></rect>
                    <use id="Rectangle-9-Copy-3" stroke="#FFAB00" mask="url(#mask-10)" stroke-width="2" fill="#FFFFFF" xlink:href="#path-9"></use>
                </g>
            </g>
        </g>
    </g>
</svg>