<?xml version="1.0" encoding="iso-8859-1"?>
<!-- Generator: Adobe Illustrator 20.1.0, SVG Export Plug-In . SVG Version: 6.00 Build 0)  -->
<svg version="1.1" id="&#x421;&#x43B;&#x43E;&#x439;_1"
	 xmlns="http://www.w3.org/2000/svg" xmlns:xlink="http://www.w3.org/1999/xlink" x="0px" y="0px" viewBox="0 0 24 24"
	 style="enable-background:new 0 0 24 24;" xml:space="preserve">
<g>
	<path d="M17.312,1.248v0.712h1.276l-7.319,7.319L7.715,5.721l-4.516,4.517l0.499,0.503l4.018-4.013l3.553,3.553l7.823-7.818v1.271
		h0.712V1.248H17.312z M17.312,1.248"/>
	<path d="M22.289,21.865V6.224h-3.553v15.641h-0.712V8.359H14.47V21.87h-0.712v-8.534h-3.558v8.53H9.489V11.201H5.936v10.665H5.224
		v-4.976H1.671v4.976H0.959v0.712H23v-0.712H22.289z M4.517,21.865H2.382V17.6h2.135V21.865z M8.782,21.865H6.647v-9.953h2.135
		V21.865z M13.047,21.87h-2.135v-7.823h2.135V21.87z M17.312,21.87h-2.135V9.07h2.135V21.87z M21.581,21.865h-2.135V6.936h2.135
		V21.865z M21.581,21.865"/>
</g>
</svg>
