<?xml version="1.0" encoding="iso-8859-1"?>
<!-- Generator: Adobe Illustrator 20.1.0, SVG Export Plug-In . SVG Version: 6.00 Build 0)  -->
<svg version="1.1" id="&#x421;&#x43B;&#x43E;&#x439;_1"
	 xmlns="http://www.w3.org/2000/svg" xmlns:xlink="http://www.w3.org/1999/xlink" x="0px" y="0px" viewBox="0 0 24 24"
	 style="enable-background:new 0 0 24 24;" xml:space="preserve">
<g>
	<path d="M20.615,2.885v7.785h0.704V3.589h0.704v8.448h-0.704v-0.663h-0.704v0.663h-0.704V5.349h-2.112v6.688h-0.704V6.405h-2.112
		v5.632h-0.704V7.461h-2.112v4.576h-0.704v0.704h11.264V2.885H20.615z M13.575,12.037h-0.704V8.165h0.704V12.037z M16.391,12.037
		h-0.704V7.109h0.704V12.037z M19.207,12.037h-0.704V6.053h0.704V12.037z M19.207,12.037"/>
	<path d="M15.687,1.125v0.704h1.086c-1.71,2.391-4.118,4.129-6.852,4.998c-0.886-1.315-2.388-2.182-4.09-2.182
		c-2.718,0-4.928,2.211-4.928,4.928c0,2.354,1.661,4.326,3.872,4.811v1.525H4.071v5.28c0,0.97,0.79,1.76,1.76,1.76
		c0.97,0,1.76-0.79,1.76-1.76v-5.28H6.887v-1.525c2.211-0.485,3.872-2.457,3.872-4.811c0-0.761-0.178-1.479-0.487-2.123
		c2.874-0.947,5.399-2.805,7.176-5.355v1.494h0.704V1.125H15.687z M6.887,21.189c0,0.582-0.474,1.056-1.056,1.056
		c-0.582,0-1.056-0.474-1.056-1.056v-4.576h2.112V21.189z M5.479,15.909v-1.426c0.117,0.008,0.233,0.018,0.352,0.018
		c0.119,0,0.235-0.009,0.352-0.018v1.426H5.479z M5.831,13.797c-2.329,0-4.224-1.895-4.224-4.224c0-2.329,1.895-4.224,4.224-4.224
		c1.375,0,2.595,0.663,3.367,1.684c-0.254,0.065-0.51,0.122-0.769,0.173C7.785,6.5,6.86,6.053,5.831,6.053
		c-1.941,0-3.52,1.579-3.52,3.52c0,1.941,1.579,3.52,3.52,3.52c1.941,0,3.52-1.579,3.52-3.52c0-0.636-0.172-1.231-0.467-1.746
		c0.237-0.052,0.472-0.11,0.706-0.174c0.296,0.577,0.466,1.228,0.466,1.919C10.055,11.902,8.16,13.797,5.831,13.797L5.831,13.797z
		 M8.143,7.97C8.46,8.425,8.647,8.977,8.647,9.573c0,1.553-1.263,2.816-2.816,2.816c-1.553,0-2.816-1.263-2.816-2.816
		c0-1.553,1.264-2.816,2.816-2.816c0.649,0,1.245,0.223,1.722,0.593C6.986,7.423,6.411,7.461,5.831,7.461v0.704
		C6.614,8.165,7.385,8.095,8.143,7.97L8.143,7.97z M8.143,7.97"/>
	<rect x="13.575" y="14.501" width="7.744" height="0.704"/>
	<rect x="13.575" y="18.725" width="7.744" height="0.704"/>
	<rect x="13.575" y="16.613" width="3.52" height="0.704"/>
	<rect x="17.799" y="16.613" width="3.52" height="0.704"/>
	<rect x="13.575" y="20.837" width="3.52" height="0.704"/>
	<rect x="17.799" y="20.837" width="3.52" height="0.704"/>
	<rect x="12.167" y="14.501" width="0.704" height="0.704"/>
	<rect x="12.167" y="16.613" width="0.704" height="0.704"/>
	<rect x="12.167" y="18.725" width="0.704" height="0.704"/>
	<rect x="12.167" y="20.837" width="0.704" height="0.704"/>
</g>
</svg>
