<?xml version="1.0" encoding="iso-8859-1"?>
<!-- Generator: Adobe Illustrator 20.1.0, SVG Export Plug-In . SVG Version: 6.00 Build 0)  -->
<svg version="1.1" id="&#x421;&#x43B;&#x43E;&#x439;_1"
	 xmlns="http://www.w3.org/2000/svg" xmlns:xlink="http://www.w3.org/1999/xlink" x="0px" y="0px" viewBox="0 0 24 24"
	 style="enable-background:new 0 0 24 24;" xml:space="preserve">
<g>
	<path d="M12.559,9.476h-0.693c-0.191,0-0.347-0.156-0.347-0.347c0-0.191,0.155-0.347,0.347-0.347h0.693
		c0.191,0,0.347,0.155,0.347,0.347h0.694c0-0.574-0.467-1.041-1.04-1.041V7.395h-0.693v0.693c-0.574,0-1.04,0.467-1.04,1.041
		c0,0.573,0.467,1.04,1.04,1.04h0.693c0.191,0,0.347,0.156,0.347,0.347c0,0.191-0.155,0.347-0.347,0.347h-0.693
		c-0.191,0-0.347-0.155-0.347-0.347h-0.694c0,0.574,0.467,1.04,1.04,1.04v0.694h0.693v-0.694c0.574,0,1.04-0.467,1.04-1.04
		S13.132,9.476,12.559,9.476L12.559,9.476z M12.559,9.476"/>
	<path d="M21.898,19.946l-0.682-0.409c0.222-0.291,0.359-0.65,0.359-1.045v-0.693c0-0.928-0.735-1.683-1.653-1.726l-2.967-0.989
		c-0.231-0.654-0.778-1.16-1.454-1.329l-1.555-0.389v-0.198c1.035-0.601,1.734-1.718,1.734-2.999h1.798
		c0.144,0.403,0.525,0.694,0.977,0.694c0.574,0,1.04-0.467,1.04-1.041c0-0.574-0.467-1.04-1.04-1.04
		c-0.451,0-0.833,0.291-0.977,0.694H15.68c0-0.434-0.084-0.848-0.23-1.231l1.352-0.676l-0.145,0.867h6.367l-0.309-1.853
		c-0.083-0.502-0.382-0.94-0.818-1.202l-0.682-0.409c0.222-0.292,0.359-0.651,0.359-1.045V3.234c0-0.956-0.778-1.734-1.734-1.734
		c-0.956,0-1.734,0.778-1.734,1.734v0.694c0,0.394,0.137,0.753,0.359,1.044l-0.682,0.409c-0.436,0.262-0.734,0.7-0.818,1.202
		L16.942,6.73L15.14,7.625c-0.557-0.878-1.495-1.491-2.581-1.6V4.557c0.402-0.144,0.693-0.525,0.693-0.977
		c0-0.574-0.467-1.04-1.04-1.04c-0.574,0-1.04,0.467-1.04,1.04c0,0.451,0.291,0.833,0.694,0.977v1.468
		c-1.086,0.108-2.024,0.721-2.58,1.599l-1.78-0.89L7.481,6.724L7.458,6.583C7.374,6.081,7.076,5.643,6.64,5.381L5.958,4.972
		C6.18,4.681,6.317,4.321,6.317,3.927V3.234c0-0.956-0.778-1.734-1.734-1.734c-0.956,0-1.734,0.778-1.734,1.734v0.694
		c0,0.394,0.137,0.753,0.359,1.044L2.526,5.381c-0.436,0.262-0.734,0.7-0.818,1.202L1.399,8.435h6.367L7.622,7.573l1.351,0.672
		C8.828,8.628,8.744,9.042,8.744,9.476H6.946C6.803,9.073,6.421,8.782,5.97,8.782c-0.574,0-1.04,0.467-1.04,1.04
		c0,0.574,0.467,1.041,1.04,1.041c0.451,0,0.833-0.291,0.976-0.694h1.798c0,1.28,0.699,2.398,1.734,2.999v0.198l-1.555,0.389
		c-0.676,0.169-1.223,0.675-1.454,1.328l-2.967,0.989c-0.918,0.043-1.653,0.798-1.653,1.726v0.693c0,0.394,0.137,0.753,0.359,1.045
		l-0.682,0.409c-0.436,0.262-0.734,0.7-0.818,1.202L1.399,23h6.367l-0.309-1.853c-0.084-0.502-0.382-0.94-0.818-1.202l-0.682-0.409
		c0.222-0.292,0.359-0.651,0.359-1.045v-0.693c0-0.56-0.272-1.054-0.685-1.371l1.587-0.529l-0.674,2.247h5.321v1.798
		c-0.403,0.144-0.694,0.525-0.694,0.977c0,0.574,0.467,1.04,1.04,1.04c0.574,0,1.04-0.467,1.04-1.04
		c0-0.451-0.291-0.833-0.694-0.977v-1.798h5.321l-0.674-2.247l1.587,0.529c-0.413,0.317-0.685,0.811-0.685,1.371v0.693
		c0,0.394,0.137,0.753,0.359,1.045l-0.682,0.409c-0.436,0.262-0.734,0.7-0.818,1.202L16.657,23h6.367l-0.309-1.853
		C22.632,20.645,22.334,20.207,21.898,19.946L21.898,19.946z M18.454,9.476c0.191,0,0.347,0.156,0.347,0.347
		c0,0.191-0.156,0.347-0.347,0.347c-0.191,0-0.347-0.156-0.347-0.347C18.107,9.632,18.263,9.476,18.454,9.476L18.454,9.476z
		 M18.801,3.234c0-0.574,0.467-1.04,1.04-1.04s1.04,0.467,1.04,1.04v0.694c0,0.573-0.467,1.04-1.04,1.04s-1.04-0.467-1.04-1.04
		V3.234z M17.65,6.697c0.05-0.301,0.229-0.564,0.491-0.721l0.882-0.529c0.244,0.132,0.521,0.215,0.818,0.215
		c0.297,0,0.573-0.082,0.818-0.215l0.882,0.529c0.262,0.157,0.441,0.42,0.491,0.721l0.174,1.045h-4.729L17.65,6.697z M3.543,3.234
		c0-0.574,0.467-1.04,1.04-1.04c0.574,0,1.04,0.467,1.04,1.04v0.694c0,0.573-0.467,1.04-1.04,1.04c-0.574,0-1.04-0.467-1.04-1.04
		V3.234z M2.218,7.742l0.174-1.045c0.05-0.301,0.229-0.564,0.491-0.721l0.882-0.529c0.244,0.132,0.52,0.215,0.818,0.215
		c0.297,0,0.573-0.082,0.818-0.215l0.882,0.529c0.262,0.157,0.441,0.42,0.491,0.721l0.174,1.045H2.218z M5.97,10.169
		c-0.191,0-0.347-0.156-0.347-0.347c0-0.191,0.156-0.347,0.347-0.347c0.191,0,0.347,0.156,0.347,0.347
		C6.317,10.014,6.161,10.169,5.97,10.169L5.97,10.169z M3.543,17.798c0-0.574,0.467-1.041,1.04-1.041c0.574,0,1.04,0.467,1.04,1.041
		v0.693c0,0.574-0.467,1.041-1.04,1.041c-0.574,0-1.04-0.467-1.04-1.041V17.798z M6.282,20.54c0.262,0.157,0.441,0.42,0.491,0.721
		l0.174,1.045H2.218l0.174-1.045c0.05-0.301,0.229-0.564,0.491-0.721l0.882-0.529c0.244,0.132,0.52,0.215,0.818,0.215
		c0.297,0,0.573-0.082,0.818-0.215L6.282,20.54z M12.212,3.234c0.191,0,0.347,0.156,0.347,0.347c0,0.191-0.156,0.347-0.347,0.347
		c-0.191,0-0.347-0.156-0.347-0.347C11.865,3.389,12.021,3.234,12.212,3.234L12.212,3.234z M9.438,10.169V9.476
		c0-1.53,1.245-2.774,2.774-2.774c1.53,0,2.774,1.245,2.774,2.774v0.694c0,1.53-1.245,2.774-2.774,2.774
		C10.682,12.943,9.438,11.699,9.438,10.169L9.438,10.169z M13.252,13.477v0.16c0,0.574-0.467,1.04-1.04,1.04
		c-0.574,0-1.04-0.467-1.04-1.04v-0.16c0.329,0.104,0.678,0.16,1.04,0.16C12.574,13.637,12.923,13.581,13.252,13.477L13.252,13.477z
		 M12.212,21.266c-0.191,0-0.347-0.156-0.347-0.347c0-0.191,0.156-0.347,0.347-0.347c0.191,0,0.347,0.156,0.347,0.347
		C12.559,21.11,12.403,21.266,12.212,21.266L12.212,21.266z M7.476,17.451l0.623-2.077c0.14-0.466,0.52-0.829,0.992-0.947
		l1.447-0.362c0.193,0.748,0.867,1.305,1.674,1.305c0.807,0,1.481-0.557,1.674-1.305l1.447,0.362
		c0.472,0.118,0.852,0.481,0.992,0.947l0.623,2.077H7.476z M18.801,17.798c0-0.574,0.467-1.041,1.04-1.041s1.04,0.467,1.04,1.041
		v0.693c0,0.574-0.467,1.041-1.04,1.041s-1.04-0.467-1.04-1.041V17.798z M17.476,22.306l0.174-1.045
		c0.05-0.301,0.229-0.564,0.491-0.721l0.882-0.529c0.244,0.132,0.521,0.215,0.818,0.215c0.297,0,0.573-0.082,0.818-0.215
		l0.882,0.529c0.262,0.157,0.441,0.42,0.491,0.721l0.174,1.045H17.476z M17.476,22.306"/>
</g>
</svg>
