<?xml version="1.0" encoding="UTF-8" standalone="no"?>
<svg width="13px" height="10px" viewBox="0 0 13 10" version="1.1" xmlns="http://www.w3.org/2000/svg" xmlns:xlink="http://www.w3.org/1999/xlink">
    <!-- Generator: Sketch 42 (36781) - http://www.bohemiancoding.com/sketch -->
    <title>ic_13x10_Name</title>
    <desc>Created with Sketch.</desc>
    <defs>
        <rect id="path-1" x="0" y="0" width="800" height="670" rx="2"></rect>
        <filter x="-50%" y="-50%" width="200%" height="200%" filterUnits="objectBoundingBox" id="filter-2">
            <feOffset dx="5" dy="5" in="SourceAlpha" result="shadowOffsetOuter1"></feOffset>
            <feGaussianBlur stdDeviation="25" in="shadowOffsetOuter1" result="shadowBlurOuter1"></feGaussianBlur>
            <feColorMatrix values="0 0 0 0 0   0 0 0 0 0   0 0 0 0 0  0 0 0 0.5 0" type="matrix" in="shadowBlurOuter1" result="shadowMatrixOuter1"></feColorMatrix>
            <feOffset dx="0" dy="0" in="SourceAlpha" result="shadowOffsetOuter2"></feOffset>
            <feGaussianBlur stdDeviation="10" in="shadowOffsetOuter2" result="shadowBlurOuter2"></feGaussianBlur>
            <feColorMatrix values="0 0 0 0 0   0 0 0 0 0   0 0 0 0 0  0 0 0 0.3 0" type="matrix" in="shadowBlurOuter2" result="shadowMatrixOuter2"></feColorMatrix>
            <feMerge>
                <feMergeNode in="shadowMatrixOuter1"></feMergeNode>
                <feMergeNode in="shadowMatrixOuter2"></feMergeNode>
            </feMerge>
        </filter>
        <rect id="path-3" x="0" y="0" width="240" height="30" rx="2"></rect>
        <mask id="mask-4" maskContentUnits="userSpaceOnUse" maskUnits="objectBoundingBox" x="0" y="0" width="240" height="30" fill="white">
            <use xlink:href="#path-3"></use>
        </mask>
        <path d="M8,2.5 C8,3.880625 6.880625,5 5.5,5 C4.119375,5 3,3.880625 3,2.5 C3,1.119375 4.119375,0 5.5,0 C6.880625,0 8,1.119375 8,2.5 Z" id="path-5"></path>
        <mask id="mask-6" maskContentUnits="userSpaceOnUse" maskUnits="objectBoundingBox" x="0" y="0" width="5" height="5" fill="white">
            <use xlink:href="#path-5"></use>
        </mask>
        <path d="M5.5,5.5 C3.91117647,5.5 2.46647059,6.17757143 1.54235294,6.7375 C0.904117647,7.12514286 0.5,7.89657143 0.5,8.7445 L0.5,9.15592857 C0.5,9.62264286 0.819411765,10 1.21411765,10 L9.78588235,10 C10.18,10 10.5,9.62264286 10.5,9.15592857 L10.5,8.7445 C10.5,7.89657143 10.0958824,7.12514286 9.45764706,6.7375 C8.53352941,6.17757143 7.08882353,5.5 5.5,5.5 Z" id="path-7"></path>
        <mask id="mask-8" maskContentUnits="userSpaceOnUse" maskUnits="objectBoundingBox" x="0" y="0" width="10" height="4.5" fill="white">
            <use xlink:href="#path-7"></use>
        </mask>
    </defs>
    <g id="FIN" stroke="none" stroke-width="1" fill="none" fill-rule="evenodd">
        <g id="Main_UAHolding-FORM_v01" transform="translate(-491.000000, -1265.000000)">
            <g id="back"></g>
            <rect id="bg-dark" fill="#263238" opacity="0.9" x="0" y="0" width="1200" height="2690"></rect>
            <g id="form" transform="translate(200.000000, 1010.000000)">
                <g id="bg">
                    <use fill="black" fill-opacity="1" filter="url(#filter-2)" xlink:href="#path-1"></use>
                    <use fill="#FFFFFF" fill-rule="evenodd" xlink:href="#path-1"></use>
                </g>
                <g transform="translate(280.000000, 245.000000)" id="form/220x30">
                    <g>
                        <use id="Rectangle-4" stroke="#ECEFF1" mask="url(#mask-4)" stroke-width="2" xlink:href="#path-3"></use>
                        <text id="Name" opacity="0.600000024" font-family="SFUIDisplay-Light, SF UI Display" font-size="12" font-weight="300" line-spacing="30" letter-spacing="0.428571433" fill="#263238">
                            <tspan x="33" y="11">Name</tspan>
                        </text>
                        <g id="ic_13x10/Name" transform="translate(10.966184, 10.000000)" stroke="#FFAB00" fill-rule="evenodd" stroke-width="1" stroke-linecap="round" stroke-linejoin="round">
                            <g id="Group-2" transform="translate(1.000000, 0.000000)">
                                <use id="Stroke-293" mask="url(#mask-6)" stroke-width="2" xlink:href="#path-5"></use>
                                <use id="Stroke-295" mask="url(#mask-8)" stroke-width="2" xlink:href="#path-7"></use>
                            </g>
                        </g>
                    </g>
                </g>
            </g>
        </g>
    </g>
</svg>