<?xml version="1.0" encoding="UTF-8" standalone="no"?>
<svg width="80px" height="60px" viewBox="0 0 80 60" version="1.1" xmlns="http://www.w3.org/2000/svg" xmlns:xlink="http://www.w3.org/1999/xlink">
    <!-- Generator: Sketch 42 (36781) - http://www.bohemiancoding.com/sketch -->
    <title>ic_80x60_Growth</title>
    <desc>Created with Sketch.</desc>
    <defs>
        <path d="M6.2263816,2 L6.2263816,4.53475988 C5.53787751,4.61936309 4.91516497,4.78444432 4.35828778,5.03030292 C3.8014106,5.27626921 3.32357674,5.59428969 2.92869783,5.97861099 C2.54394758,6.3628246 2.24649472,6.81422247 2.03386775,7.33689878 C1.83136762,7.85946922 1.73083673,8.43566915 1.73083673,9.06595492 C1.73083673,9.7498866 1.84733728,10.3543296 2.08021426,10.8770059 C2.32321441,11.3995763 2.66501324,11.8605571 3.11051717,12.2602512 C3.56614429,12.6598376 4.11613275,13.0085562 4.75400998,13.3083783 C5.40201405,13.600357 6.12938999,13.8590384 6.93939416,14.0819985 C7.54689638,14.2817388 8.06137886,14.4870992 8.48663096,14.7023181 C8.92200989,14.9175388 9.27150971,15.154603 9.53475988,15.4082009 C9.80813688,15.6618007 10.0086255,15.9325164 10.1301256,16.224601 C10.2516257,16.5166838 10.3119431,16.8377672 10.3119431,17.1836018 C10.3119431,17.5986686 10.2356542,17.9720654 10.0837791,18.3101625 C9.93190399,18.6406243 9.70717339,18.9274448 9.4135482,19.1657776 C9.13004436,19.3962634 8.77641021,19.5769456 8.35115811,19.7076671 C7.93603285,19.8306494 7.46176199,19.8930495 6.925133,19.8930495 C6.54038275,19.8930495 6.15480564,19.8429757 5.77005356,19.7433173 C5.38529967,19.6434472 5.03579985,19.465722 4.72192465,19.2121241 C4.40804762,18.9584185 4.15494253,18.6157179 3.96256741,18.185386 C3.77019046,17.7549464 3.67379573,17.2130094 3.67379573,16.5597155 L1,16.5597155 C1,17.4282283 1.13660454,18.1724646 1.40998154,18.7950111 C1.68335671,19.4098182 2.04882801,19.9242258 2.50445513,20.3315533 C2.97020726,20.7388791 3.50066122,21.0468147 4.09803843,21.2620336 C4.69541746,21.4774661 5.31399385,21.6209283 5.95187108,21.6898411 L5.95187108,23.9037458 L8.06238826,23.9037458 L8.06238826,21.6898411 C8.82176739,21.6130831 9.50479738,21.4605418 10.1122996,21.2299483 C10.7198018,20.9993566 11.237851,20.690919 11.663103,20.3065977 C12.0883551,19.9223823 12.4177492,19.4674195 12.6506243,18.9447432 C12.8835013,18.4144335 13,17.8195734 13,17.1586479 C13,16.4823479 12.8876356,15.8874878 12.6648855,15.3725508 C12.4421335,14.8576138 12.1127395,14.4026511 11.6773624,14.0106963 C11.2419853,13.6187416 10.707397,13.2796077 10.0695198,12.9875231 C9.43164069,12.6878068 8.69656376,12.4165855 7.86630957,12.1782545 C7.21830916,11.9707749 6.67188371,11.7588927 6.2263816,11.5436738 C5.7910045,11.3208196 5.43736852,11.0873202 5.16399334,10.8413557 C4.89061634,10.5954971 4.69012771,10.3277348 4.56862763,10.035652 C4.45725438,9.73593392 4.40463429,9.39925144 4.40463429,9.03030292 C4.40463429,8.63061067 4.45725438,8.26629296 4.56862763,7.93582933 C4.69012771,7.60536751 4.8669457,7.3250671 5.09982085,7.09447542 C5.34282283,6.85624845 5.64384053,6.67250523 5.99821758,6.54188954 C6.35259281,6.41116799 6.77068056,6.34581086 7.25668452,6.34581086 C7.72243665,6.34581086 8.1399549,6.43278516 8.50445696,6.60962688 C8.86895719,6.7863609 9.17054439,7.03250425 9.4135482,7.34759511 C9.65654835,7.66268414 9.84106733,8.03658473 9.96256741,8.46702437 C10.0941925,8.897464 10.1586461,9.3710887 10.1586461,9.88591799 L12.8181825,9.88591799 C12.8181825,8.32584195 12.428471,7.09533697 11.6488419,6.19607868 C10.8793396,5.28918877 9.78292567,4.74112784 8.36541928,4.54901921 L8.36541928,2 L6.2263816,2 Z" id="path-1"></path>
        <mask id="mask-2" maskContentUnits="userSpaceOnUse" maskUnits="objectBoundingBox" x="-1" y="-1" width="14" height="23.9037458">
            <rect x="0" y="1" width="14" height="23.9037458" fill="white"></rect>
            <use xlink:href="#path-1" fill="black"></use>
        </mask>
        <rect id="path-3" x="0" y="41" width="14" height="20" rx="2"></rect>
        <mask id="mask-4" maskContentUnits="userSpaceOnUse" maskUnits="objectBoundingBox" x="0" y="0" width="14" height="20" fill="white">
            <use xlink:href="#path-3"></use>
        </mask>
        <rect id="path-5" x="40" y="21" width="14" height="40" rx="2"></rect>
        <mask id="mask-6" maskContentUnits="userSpaceOnUse" maskUnits="objectBoundingBox" x="0" y="0" width="14" height="40" fill="white">
            <use xlink:href="#path-5"></use>
        </mask>
        <rect id="path-7" x="20" y="31" width="14" height="30" rx="2"></rect>
        <mask id="mask-8" maskContentUnits="userSpaceOnUse" maskUnits="objectBoundingBox" x="0" y="0" width="14" height="30" fill="white">
            <use xlink:href="#path-7"></use>
        </mask>
        <path d="M74,14.3121185 L74,59.0089436 C74,60.1085737 73.1029399,61 71.9941413,61 L62.0058587,61 C60.8980535,61 60,60.1108722 60,59.0089436 L60,14.3121185 L54.8580285,14.3121185 C53.7533684,14.3121185 53.4929964,13.6769865 54.2655691,12.9044138 L65.5922953,1.57768765 C66.3697491,0.80023379 67.6351321,0.805114975 68.4077047,1.57768765 L79.7344309,12.9044138 C80.5118847,13.6818677 80.2489287,14.3121185 79.1419715,14.3121185 L74,14.3121185 Z" id="path-9"></path>
        <mask id="mask-10" maskContentUnits="userSpaceOnUse" maskUnits="objectBoundingBox" x="0" y="0" width="26.3591918" height="60.0035737" fill="white">
            <use xlink:href="#path-9"></use>
        </mask>
    </defs>
    <g id="FIN" stroke="none" stroke-width="1" fill="none" fill-rule="evenodd">
        <g id="Main_UAHolding_v01" transform="translate(-621.000000, -520.000000)">
            <g id="02" transform="translate(120.000000, 519.000000)">
                <g id="ic_80x60_Growth" transform="translate(500.000000, 0.000000)">
                    <g id="path5401-path">
                        <use fill="#FFFFFF" fill-rule="evenodd" xlink:href="#path-1"></use>
                        <use stroke="#FFAB00" mask="url(#mask-2)" stroke-width="2" xlink:href="#path-1"></use>
                    </g>
                    <use id="Rectangle-29-Copy-3" stroke="#546E7A" mask="url(#mask-4)" stroke-width="2" fill="#FFFFFF" xlink:href="#path-3"></use>
                    <use id="Rectangle-29-Copy-4" stroke="#546E7A" mask="url(#mask-6)" stroke-width="2" fill="#FFFFFF" xlink:href="#path-5"></use>
                    <use id="Rectangle-29-Copy-7" stroke="#546E7A" mask="url(#mask-8)" stroke-width="2" fill="#FFFFFF" xlink:href="#path-7"></use>
                    <use id="Combined-Shape" stroke="#546E7A" mask="url(#mask-10)" stroke-width="2" fill="#FFFFFF" xlink:href="#path-9"></use>
                </g>
            </g>
        </g>
    </g>
</svg>